<?xml version="1.0" encoding="utf-8"?>
<!-- Generator: Adobe Illustrator 22.1.0, SVG Export Plug-In . SVG Version: 6.00 Build 0)  -->
<svg version="1.1" id="Layer_1" xmlns="http://www.w3.org/2000/svg" xmlns:xlink="http://www.w3.org/1999/xlink" x="0px" y="0px"
	 width="428px" height="428px" viewBox="0 0 428 428" style="enable-background:new 0 0 428 428;" xml:space="preserve">
<style type="text/css">
	.st0{fill:#EDF0F4;}
	.st1{fill:#586861;}
	.st2{fill:#000000;}
</style>
<rect x="7.9" y="6.4" class="st0" width="414.1" height="273.6"/>
<path class="st1" d="M277.1,121l-33.7-4.7c-2.8-0.4-5.3-2.1-6.5-4.6l-15.1-29.6c-3.2-6.2-12.4-6.2-15.6,0l-15.1,29.6
	c-1.3,2.5-3.7,4.2-6.5,4.6l-33.7,4.7c-7.1,1-10,9.5-4.8,14.3l24.4,23c2,1.9,3,4.7,2.5,7.4l-5.8,32.5c-1.2,6.9,6.2,12.1,12.6,8.9
	l30.2-15.4c2.5-1.3,5.5-1.3,8.1,0l30.2,15.4c6.4,3.2,13.8-2,12.6-8.9l-5.8-32.5c-0.5-2.7,0.4-5.5,2.5-7.4l24.4-23
	C287,130.5,284.2,122,277.1,121z"/>
<rect x="21.7" y="273.4" class="st0" width="377.9" height="13.2"/>
<path class="st2" d="M427.1,13c-0.5-3.2-1.9-6.1-4-8.4L423,4.5c-0.2-0.2-0.5-0.5-0.8-0.7c-0.1-0.1-0.2-0.2-0.3-0.3
	c-0.2-0.2-0.5-0.4-0.7-0.6c-0.1-0.1-0.3-0.2-0.4-0.3c-0.2-0.2-0.5-0.3-0.7-0.5c-0.2-0.1-0.3-0.2-0.5-0.3c-0.2-0.1-0.5-0.2-0.7-0.4
	c-0.2-0.1-0.4-0.2-0.6-0.3s-0.4-0.2-0.7-0.3c-0.2-0.1-0.5-0.2-0.7-0.3s-0.4-0.1-0.6-0.2c-0.3-0.1-0.5-0.1-0.8-0.2
	c-0.2,0-0.4-0.1-0.6-0.2C414.6,0,414.3,0,414,0c-0.2,0-0.3-0.1-0.5-0.1c-0.5,0-1-0.1-1.5-0.1h-54.8V13H357
	c2.4,159,44.1,198.2,62.1,207.8c-9.4,5-25.2,18-38.5,51.8l-4.7,13.2h36c0.5,0,1,0,1.5-0.1c0.2,0,0.3,0,0.5-0.1c0.3,0,0.6-0.1,1-0.1
	c0.2,0,0.4-0.1,0.6-0.1c0.3-0.1,0.5-0.1,0.8-0.2c0.2-0.1,0.4-0.1,0.6-0.2s0.5-0.2,0.7-0.3c0.2-0.1,0.4-0.2,0.7-0.3
	c0.2-0.1,0.4-0.2,0.6-0.3c0.2-0.1,0.5-0.2,0.7-0.4c0.2-0.1,0.3-0.2,0.5-0.3c0.2-0.1,0.5-0.3,0.7-0.5c0.1-0.1,0.3-0.2,0.4-0.3
	c0.2-0.2,0.5-0.4,0.7-0.6c0.1-0.1,0.2-0.2,0.3-0.2c0.3-0.2,0.5-0.5,0.8-0.7l0.1-0.1c2.1-2.3,3.6-5.2,4-8.4c0.1-0.7,0.2-1.4,0.2-2.2
	V15.2C427.3,14.5,427.2,13.7,427.1,13z M14.4-0.1c-0.2,0-0.3,0-0.5,0.1c-0.3,0-0.6,0-0.9,0.1c-0.2,0-0.4,0.1-0.6,0.2
	c-0.3,0.1-0.5,0.1-0.8,0.2c-0.2,0.1-0.4,0.1-0.6,0.2c-0.2,0.1-0.5,0.2-0.7,0.3C10,1,9.8,1.1,9.5,1.2C9.3,1.3,9.1,1.4,8.9,1.5
	C8.7,1.6,8.5,1.8,8.2,1.9C8.1,2,7.9,2.1,7.7,2.2C7.5,2.4,7.3,2.5,7,2.7C6.9,2.8,6.8,2.9,6.6,3C6.4,3.2,6.1,3.4,5.9,3.6
	c-0.1,0-0.2,0.1-0.3,0.2C5.4,4,5.1,4.3,4.9,4.5L4.8,4.6c-2.1,2.3-3.6,5.2-4,8.4c-0.1,0.7-0.2,1.4-0.2,2.2v255.2
	c0,0.7,0.1,1.4,0.2,2.2c0.2,1.6,0.7,3.1,1.4,4.5s1.6,2.7,2.6,3.8l0.1,0.1c0.2,0.2,0.5,0.5,0.8,0.7c0.1,0.1,0.2,0.2,0.3,0.2
	c0.2,0.2,0.5,0.4,0.7,0.6c0.1,0.1,0.3,0.2,0.4,0.3c0.2,0.2,0.5,0.3,0.7,0.5c0.2,0.1,0.4,0.2,0.5,0.3c0.2,0.1,0.5,0.2,0.7,0.4
	c0.2,0.1,0.4,0.2,0.6,0.3c0.2,0.1,0.4,0.2,0.7,0.3c0.2,0.1,0.5,0.2,0.7,0.3c0.2,0.1,0.4,0.1,0.6,0.2c0.3,0.1,0.5,0.2,0.8,0.2
	c0.2,0,0.4,0.1,0.6,0.1c0.3,0.1,0.6,0.1,1,0.1c0.2,0,0.3,0,0.5,0.1c0.5,0,1,0.1,1.5,0.1h33.2c-0.1,0-0.1-0.1-0.1-0.1
	c0-2.6-1.7-13.1-1.7-13.1c-13.3-33.8-29.1-46.8-38.5-51.8c18-9.5,59.8-48.8,62.1-207.8l0,0V-0.2H15.9C15.4-0.2,14.9-0.2,14.4-0.1z"
	/>
<path class="st1" d="M390.2,346.4c12.7-3.2,22.1-14.9,21.5-28.8c-0.6-14.4-12.1-26.2-26.5-27.1c-16.5-1.1-30.2,12-30.2,28.3
	c0,13.3,9.2,24.5,21.5,27.5c-16.9,2.6-30.6,14.9-35.3,31c-4.8-16.1-18.5-28.3-35.3-31c12.7-3.2,22.1-14.9,21.5-28.8
	c-0.6-14.4-12.1-26.2-26.5-27.1c-16.5-1.1-30.2,12-30.2,28.3c0,13.3,9.2,24.5,21.5,27.5c-17.3,2.7-31.2,15.4-35.6,32.1
	c-4.4-16.6-18.4-29.4-35.6-32.1c12.7-3.2,22.1-14.9,21.5-28.8c-0.6-14.4-12.1-26.2-26.5-27.1c-16.5-1.1-30.2,12-30.2,28.3
	c0,13.3,9.2,24.5,21.5,27.5c-17.3,2.7-31.2,15.4-35.6,32.1c-4.4-16.6-18.4-29.4-35.6-32.1c12.7-3.2,22.1-14.9,21.5-28.8
	c-0.6-14.4-12.1-26.2-26.5-27.1c-16.5-1.1-30.2,12-30.2,28.3c0,13.3,9.2,24.5,21.5,27.5c-16.9,2.6-30.6,14.9-35.3,31
	c-4.8-16.1-18.4-28.3-35.3-31c12.7-3.2,22.1-14.9,21.5-28.8c-0.6-14.4-12.1-26.2-26.5-27.1c-16.5-1.1-30.2,12-30.2,28.3
	c0,13.3,9.2,24.5,21.5,27.5C17.1,349.2,1,367.4,1,389.4V413c0,7,4.7,12.9,11.1,14.7h73.3H89h81.4h85h3h81.4h3.6h73.3
	c6.4-1.9,11.1-7.8,11.1-14.7v-23.6C427.3,367.9,411.2,349.6,390.2,346.4z"/>
<rect x="71" y="-0.2" class="st0" width="286.2" height="13.2"/>
<path class="st2" d="M0.7,15.2v255.2c0,0.7,0.1,1.4,0.2,2.2c0.5,3.2,1.9,6.1,4,8.4l0.1,0.1c0.2,0.2,0.5,0.5,0.8,0.7
	c0.1,0.1,0.2,0.2,0.3,0.2c0.2,0.2,0.5,0.4,0.7,0.6c0.1,0.1,0.3,0.2,0.4,0.3c0.2,0.2,0.5,0.3,0.7,0.5c0.2,0.1,0.4,0.2,0.5,0.3
	c0.2,0.1,0.5,0.2,0.7,0.4c0.2,0.1,0.4,0.2,0.6,0.3c0.2,0.1,0.4,0.2,0.7,0.3c0.2,0.1,0.5,0.2,0.7,0.3c0.2,0.1,0.4,0.1,0.6,0.2
	c0.3,0.1,0.5,0.2,0.8,0.2c0.2,0,0.4,0.1,0.6,0.1c0.3,0.1,0.6,0.1,1,0.1c0.2,0,0.3,0,0.5,0.1c0.5,0,1,0.1,1.5,0.1h36l-4.7-13.2
	C34,238.8,18.2,225.8,8.9,220.8C26.9,211.3,68.7,172,71,13h-0.1V-0.2H16c-0.5,0-1,0-1.5,0.1c-0.2,0-0.3,0-0.5,0.1
	c-0.3,0-0.6,0.1-0.9,0.1c-0.2,0-0.4,0.1-0.6,0.2c-0.3,0.1-0.5,0.1-0.8,0.2c-0.2,0.1-0.4,0.1-0.6,0.2c-0.2,0.1-0.5,0.2-0.7,0.3
	c-0.3,0-0.5,0.1-0.7,0.2C9.5,1.3,9.3,1.4,9.1,1.5C8.8,1.6,8.6,1.8,8.4,1.9C8.2,2,8,2.1,7.9,2.2C7.6,2.4,7.4,2.5,7.2,2.7
	C7,2.8,6.9,2.9,6.8,3C6.5,3.2,6.3,3.4,6,3.6c-0.1,0-0.1,0.1-0.2,0.2C5.5,4,5.2,4.3,5,4.5L4.9,4.6c-2.1,2.3-3.6,5.2-4,8.4
	C0.8,13.7,0.7,14.5,0.7,15.2z M412.1-0.2H357V13h0.1c2.4,159,44.1,198.2,62.1,207.8c-9.4,5-25.2,18-38.5,51.8c0,0-1.7,10.5-1.7,13.1
	c0,0,0,0.1-0.1,0.1h33.2c0.5,0,1,0,1.5-0.1c0.2,0,0.3,0,0.5-0.1c0.3,0,0.6-0.1,1-0.1c0.2,0,0.4-0.1,0.6-0.1c0.3-0.1,0.5-0.1,0.8-0.2
	c0.2-0.1,0.4-0.1,0.6-0.2s0.5-0.2,0.7-0.3c0.2-0.1,0.4-0.2,0.7-0.3c0.2-0.1,0.4-0.2,0.6-0.3c0.2-0.1,0.5-0.2,0.7-0.4
	c0.2-0.1,0.3-0.2,0.5-0.3c0.2-0.2,0.5-0.3,0.7-0.5c0.1-0.1,0.3-0.2,0.4-0.3c0.2-0.2,0.5-0.4,0.7-0.6c0.1-0.1,0.2-0.2,0.3-0.2
	c0.3-0.2,0.5-0.5,0.8-0.7l0.1-0.1c1.1-1.1,2-2.4,2.6-3.8c0.7-1.4,1.2-2.9,1.4-4.5c0.1-0.7,0.2-1.4,0.2-2.2V15.3
	c0-0.7-0.1-1.5-0.2-2.2c-0.5-3.2-1.9-6.1-4-8.4l-0.1-0.1c-0.2-0.2-0.5-0.5-0.8-0.7c-0.1-0.1-0.2-0.2-0.3-0.3
	c-0.2-0.2-0.5-0.4-0.7-0.6c-0.1-0.1-0.3-0.2-0.4-0.3c-0.2-0.2-0.5-0.3-0.7-0.5c-0.2-0.1-0.3-0.2-0.5-0.3c-0.2-0.1-0.5-0.2-0.7-0.4
	c-0.2-0.1-0.4-0.2-0.6-0.3s-0.4-0.2-0.7-0.3c-0.2-0.1-0.5-0.2-0.7-0.3s-0.4-0.1-0.6-0.2c-0.3-0.1-0.5-0.1-0.8-0.2
	c-0.2,0-0.4-0.1-0.6-0.2c-0.4,0-0.7,0-1,0c-0.2,0-0.3-0.1-0.5-0.1C413.1-0.2,412.6-0.2,412.1-0.2z"/>
</svg>
