<?xml version="1.0" encoding="utf-8"?>
<!-- Generator: Adobe Illustrator 22.1.0, SVG Export Plug-In . SVG Version: 6.00 Build 0)  -->
<svg version="1.1"
	 id="Layer_1" xmlns:cc="http://creativecommons.org/ns#" xmlns:dc="http://purl.org/dc/elements/1.1/" xmlns:inkscape="http://www.inkscape.org/namespaces/inkscape" xmlns:rdf="http://www.w3.org/1999/02/22-rdf-syntax-ns#" xmlns:sodipodi="http://sodipodi.sourceforge.net/DTD/sodipodi-0.dtd" xmlns:svg="http://www.w3.org/2000/svg"
	 xmlns="http://www.w3.org/2000/svg" xmlns:xlink="http://www.w3.org/1999/xlink" x="0px" y="0px" width="428px" height="428px"
	 viewBox="0 0 428 428" style="enable-background:new 0 0 428 428;" xml:space="preserve">
<style type="text/css">
	.st0{fill:#FFFFFF;}
	.st1{display:none;}
	.st2{display:inline;}
	.st3{fill:#586861;}
	.st4{fill:#000000;}
</style>
<rect x="295.6" y="228" class="st0" width="120.2" height="139"/>
<path class="st0" d="M311,259.8H22.1c-6.1,0-11.1-5-11.1-11.1V74.1C11,68,16,63,22.1,63H311c6.1,0,11.1,5,11.1,11.1v174.6
	C322.1,254.8,317.1,259.8,311,259.8z"/>
<g transform="translate(0,-952.36218)" class="st1">
	<path class="st2" d="M7.7,1006.2c-4.2,0-7.7,3.5-7.7,7.7v201.5c0,4.2,3.5,7.7,7.7,7.7h276v97.5c0,3.3,2.7,6,6,6H422
		c3.3,0,6-2.7,6-6v-140.8c0-3.3-2.7-6.1-6-6.1h-92.5V1014c0-4.2-3.7-7.7-7.8-7.7L7.7,1006.2L7.7,1006.2z M15.4,1021.5h298.7v118.8
		l-86.7-82.1c-1.5-1.4-3.6-2.1-5.5-2c-2,0.1-3.9,1-5.2,2.5l-61.2,67.6l-45.8-46.4c-2.8-2.8-7.8-2.9-10.6-0.2l-83.6,81L15.4,1021.5
		L15.4,1021.5z M57.3,1042.1c-9.5,1-16.9,9.1-16.9,18.9c0,10.4,8.5,19.1,18.9,19.1s19.1-8.6,19.1-19.1c0-10.4-8.6-18.9-19.1-18.9
		C58.7,1042.1,58,1042.1,57.3,1042.1z M59.3,1050.4c6,0,10.6,4.7,10.6,10.6c0,6-4.7,10.8-10.6,10.8s-10.8-4.8-10.8-10.8
		C48.6,1055.1,53.4,1050.4,59.3,1050.4z M222.6,1074.4l89.6,84.9c0.5,0.6,1.1,1.1,1.8,1.5l0.5,12.8h-24.9c-3.3,0-6,2.9-6,6.1v28.7
		l-268.3-0.8v-27.8c1.6-0.3,3.2-1,4.3-2.2l84.4-81.8l46.3,46.9c2.9,2.9,8.2,2.8,10.9-0.3L222.6,1074.4L222.6,1074.4z M295.6,1185.7
		h120.2v128.8H295.6V1185.7z M351.3,1212.2c-2.4,0-4.3,1.7-4.3,4.2v25.1h-24.9c-2.4,0-4.3,2.1-4.3,4.3v8.9c0,2.2,1.9,4.5,4.3,4.5
		H347v24.8c0,2.4,1.9,4.3,4.3,4.3h9.1c2.4,0,4.2-2.1,4.2-4.3v-24.8h25.1c2.4,0,4.3-2.2,4.3-4.5v-8.9c0-2.2-1.9-4.3-4.3-4.3h-25.1
		v-25.1c0-2.2-1.7-4.2-4.2-4.2H351.3z M353.9,1218.9h3.8v25.8v3.4h3.4H387v3.8h-25.8h-3.4v3.5v25.7H354v-25.7v-3.5h-3.4h-25.8v-3.8
		h25.8h3.4v-3.4v-25.8H353.9z"/>
</g>
<g transform="translate(0,-952.36218)">
	<path class="st3" d="M7.7,1006.2c-4.2,0-7.7,3.5-7.7,7.7v201.5c0,4.2,3.5,7.7,7.7,7.7h276v97.5c0,3.3,2.7,6,6,6H422
		c3.3,0,6-2.7,6-6v-140.8c0-3.3-2.7-6.1-6-6.1h-92.5V1014c0-4.2-3.7-7.7-7.8-7.7L7.7,1006.2L7.7,1006.2z M15.4,1021.5h298.7v118.8
		l-86.7-82.1c-1.5-1.4-3.6-2.1-5.5-2c-2,0.1-3.9,1-5.2,2.5l-61.2,67.6l-45.8-46.4c-2.8-2.8-7.8-2.9-10.6-0.2l-83.6,81L15.4,1021.5
		L15.4,1021.5z M57.3,1042.1c-9.5,1-16.9,9.1-16.9,18.9c0,10.4,8.5,19.1,18.9,19.1s19.1-8.6,19.1-19.1c0-10.4-8.6-18.9-19.1-18.9
		C58.7,1042.1,58,1042.1,57.3,1042.1z M59.3,1050.4c6,0,10.6,4.7,10.6,10.6c0,6-4.7,10.8-10.6,10.8s-10.8-4.8-10.8-10.8
		C48.6,1055.1,53.4,1050.4,59.3,1050.4z M222.6,1074.4l89.6,84.9c0.5,0.6,1.1,1.1,1.8,1.5l0.5,12.8h-24.9c-3.3,0-6,2.9-6,6.1v28.7
		l-268.3-0.8v-27.8c1.6-0.3,3.2-1,4.3-2.2l84.4-81.8l46.3,46.9c2.9,2.9,8.2,2.8,10.9-0.3L222.6,1074.4L222.6,1074.4z M295.6,1185.7
		h120.2v128.8H295.6V1185.7z M351.3,1212.2c-2.4,0-4.3,1.7-4.3,4.2v25.1h-24.9c-2.4,0-4.3,2.1-4.3,4.3v8.9c0,2.2,1.9,4.5,4.3,4.5
		H347v24.8c0,2.4,1.9,4.3,4.3,4.3h9.1c2.4,0,4.2-2.1,4.2-4.3v-24.8h25.1c2.4,0,4.3-2.2,4.3-4.5v-8.9c0-2.2-1.9-4.3-4.3-4.3h-25.1
		v-25.1c0-2.2-1.7-4.2-4.2-4.2H351.3z M353.9,1218.9h3.8v25.8v3.4h3.4H387v3.8h-25.8h-3.4v3.5v25.7H354v-25.7v-3.5h-3.4h-25.8v-3.8
		h25.8h3.4v-3.4v-25.8H353.9z"/>
	<g transform="translate(0,-952.36218)">
		<path class="st4" d="M360.4,2164.5h-9.1c-2.4,0-4.3,1.7-4.3,4.2v25.1h-24.9c-2.4,0-4.3,2.1-4.3,4.3v8.9c0,2.2,1.9,4.5,4.3,4.5H347
			v24.8c0,2.4,1.9,4.3,4.3,4.3h9.1c2.4,0,4.2-2.1,4.2-4.3v-24.8h25.1c2.4,0,4.3-2.2,4.3-4.5v-8.9c0-2.2-1.9-4.3-4.3-4.3h-25.1v-25.1
			C364.5,2166.4,362.8,2164.5,360.4,2164.5z M387,2200.5v3.8h-29.2v29.2H354v-29.2h-29.2v-3.8H354v-29.2h3.8v29.2H387z"/>
	</g>
</g>
<g transform="translate(0,-952.36218)">
	<path class="st4" d="M15.4,1160.8l83.6-81c0,0,6.1-5.4,10.6,0.2s45.8,46.4,45.8,46.4l61.2-67.6c0,0,6.2-6.6,10.8-0.5
		s86.7,82.1,86.7,82.1v20.4l0.5,12.8l-50.7-16.9l-248.5,51L15.4,1160.8z"/>
	<path class="st4" d="M289.6,1173.6c-3.3,0-6,2.9-6,6.2v28.7l-268.3-0.8v-27.8c1.6-0.3,3.2-1,4.3-2.2l84.4-81.8l46.3,46.9
		c2.9,2.9,8.2,2.8,10.9-0.3l61.3-68.1l89.6,84.9c0.5,0.6,1.1,1.1,1.8,1.5l0.5,12.8L289.6,1173.6L289.6,1173.6z"/>
	<path class="st4" d="M314.5,1173.6h-24.9c-3.3,0-40.7-10.5-40.7-7.2l19.5,31.4l-253,10V1180c1.6-0.3,3.2-1,4.3-2.2l84.4-81.8
		l46.3,46.9c2.9,2.9,8.2,2.8,10.9-0.3l61.3-68.1l89.6,84.9c0.5,0.6,1.1,1.1,1.8,1.5L314.5,1173.6z"/>
</g>
<polygon class="st4" points="324.2,292.6 350.8,292.6 350.8,262.5 360.3,262.5 361.6,291.6 389,292.6 389,303.4 361.6,303.4 
	360.8,330.8 350.2,330.8 349.5,303.7 322.1,302.8 "/>
<path class="st4" d="M261.5,292.2"/>
</svg>
