<?xml version="1.0" encoding="utf-8"?>
<!-- Generator: Adobe Illustrator 22.1.0, SVG Export Plug-In . SVG Version: 6.00 Build 0)  -->
<svg version="1.1" id="Layer_1" xmlns="http://www.w3.org/2000/svg" xmlns:xlink="http://www.w3.org/1999/xlink" x="0px" y="0px"
	 width="428px" height="428px" viewBox="0 0 428 428" style="enable-background:new 0 0 428 428;" xml:space="preserve">
<style type="text/css">
	.st0{fill:#FFFFFF;}
	.st1{fill:#586861;}
	.st2{fill:#000000;}
	.st3{fill:#E8E8E8;}
	.st4{fill:#C9C9C9;}
</style>
<rect x="163" y="41.8" class="st0" width="101" height="122.3"/>
<polygon class="st0" points="19,164.1 220.6,63.3 403,151 411.8,183.4 138.9,308.3 30.2,242.1 72.4,215.1 "/>
<g>
	<path class="st1" d="M427,168.3c-0.1-3.7-2.4-7.1-5.8-8.7l-89.1-42.3c-5-2.4-11-0.2-13.4,4.8s-0.2,11,4.8,13.4l71.7,34L345.5,198
		l-40.2-20.9c-5-2.6-11-0.6-13.6,4.3c-2.6,4.9-0.6,11,4.3,13.6l44,22.8l-108.7,54.4c-0.7,0.3-1.1,1-1.1,1.7s0.4,1.4,1,1.8l56.8,32.6
		c0.3,0.2,0.7,0.3,1,0.3s0.6-0.1,0.9-0.2l119-59.5c0.7-0.3,1.1-1,1.1-1.7s-0.4-1.4-1-1.8l-52.7-30.2l65.7-37.7
		C425.2,175.5,427.1,172,427,168.3z"/>
	<path class="st1" d="M18.7,247.1c0,0.7,0.5,1.4,1.1,1.7l119.1,59.5c0.3,0.1,0.6,0.2,0.9,0.2c0.3,0,0.7-0.1,1-0.3l56.8-32.6
		c0.7-0.4,1-1.1,1-1.8c0-0.7-0.5-1.4-1.1-1.7L88.7,217.9l42.6-21.9c4.9-2.5,6.9-8.6,4.3-13.6c-2.6-4.9-8.6-6.9-13.6-4.3l-38.8,20
		l-50.3-28.9l76.9-39.2c5-2.5,6.9-8.6,4.4-13.6s-8.6-6.9-13.6-4.4L7.1,159.7c-3.3,1.7-5.4,5-5.5,8.7c-0.1,3.7,1.9,7.2,5.1,9
		l65.7,37.7l-52.7,30.2C19.1,245.7,18.7,246.4,18.7,247.1z"/>
	<path class="st1" d="M345,353.7v-55.4c0-0.7-0.4-1.3-1-1.7c-0.6-0.4-1.3-0.4-2-0.1l-50.6,25.3c-1.9,0.9-4.2,0.9-6.1-0.2l-61.7-35.4
		c-0.6-0.4-1.4-0.4-2,0s-1,1-1,1.7v125.8c0,0.7,0.4,1.3,1,1.7c0.3,0.2,0.7,0.3,1.1,0.3c0.3,0,0.6-0.1,0.9-0.2l120.3-60.1
		C344.6,355.2,345,354.5,345,353.7z"/>
	<path class="st1" d="M205.9,415.8c0.4,0,0.7-0.1,1.1-0.3c0.6-0.4,1-1,1-1.7V288c0-0.7-0.4-1.4-1-1.7c-0.6-0.4-1.4-0.4-2,0
		l-61.7,35.4c-1.8,1.1-4.1,1.1-6.1,0.2l-50.6-25.3c-0.6-0.3-1.4-0.3-2,0.1s-1,1-1,1.7v55.3c0,0.8,0.4,1.5,1.1,1.8L205,415.6
		C205.3,415.8,205.6,415.8,205.9,415.8z"/>
	<path class="st2" d="M304.7,102.5c0-49.8-40.5-90.4-90.4-90.4c-49.8,0-90.3,40.5-90.3,90.4c0,49.8,40.5,90.4,90.3,90.4
		S304.7,152.4,304.7,102.5z M180.6,128.2v-5h20.2v5c0,3.1,3.1,5.7,6.8,5.7h13.5c3.7,0,6.7-2.5,6.7-5.7v-10.7c0-0.7,0-1.7-2.3-2.7
		l-26.8-4.4c-7.2-1.7-18-6.6-18-22.2V77.4c0-13.5,10.9-24.5,24.6-25.6v-10h20.2V52c12.8,2,22.6,12.6,22.6,25.4v5h-20.2v-5
		c0-3.1-3-5.7-6.7-5.7h-13.5c-3.7,0-6.7,2.5-6.7,5.7v10.7c0,1.3,0.1,1.8,0.2,2l0,0c0.1,0,0.5,0.3,1.6,0.5l27.1,4.4
		c0.6,0.1,1.1,0.2,1.7,0.4c10.4,3.6,16.6,11.9,16.6,22v10.7c0,12.8-9.8,23.4-22.5,25.4v10.6h-20.2v-10.4
		C191.5,152.6,180.6,141.6,180.6,128.2z"/>
</g>
<g>
	<path class="st3" d="M837,492.7H581c-8.5,0-15.4-6.9-15.4-15.4V-3.9c0-8.5,6.9-15.4,15.4-15.4h256c8.5,0,15.4,6.9,15.4,15.4v481.3
		C852.4,485.8,845.5,492.7,837,492.7z"/>
	<g>
		<path class="st4" d="M739.5,6.3H678c-2.8,0-5.1-2.3-5.1-5.1l0,0c0-2.8,2.3-5.1,5.1-5.1h61.4c2.8,0,5.1,2.3,5.1,5.1l0,0
			C744.6,4,742.3,6.3,739.5,6.3z"/>
		<path class="st4" d="M739.7,462h-61.4c-2.8,0-5.1-2.3-5.1-5.1l0,0c0-2.8,2.3-5.1,5.1-5.1h61.4c2.8,0,5.1,2.3,5.1,5.1l0,0
			C744.8,459.7,742.5,462,739.7,462z"/>
	</g>
</g>
</svg>
