<?xml version="1.0" encoding="utf-8"?>
<!-- Generator: Adobe Illustrator 22.1.0, SVG Export Plug-In . SVG Version: 6.00 Build 0)  -->
<svg version="1.1" id="Layer_1" xmlns="http://www.w3.org/2000/svg" xmlns:xlink="http://www.w3.org/1999/xlink" x="0px" y="0px"
	 width="428px" height="428px" viewBox="0 0 428 428" style="enable-background:new 0 0 428 428;" xml:space="preserve">
<style type="text/css">
	.st0{fill:#FFFFFF;stroke:#000000;stroke-miterlimit:10;}
	.st1{fill:#586861;}
	.st2{fill:#C9C9C9;}
	.st3{fill:#000000;}
	.st4{fill:#FFFFFF;}
</style>
<g>
	<path class="st0" d="M42,24h344c16,0,29,13,29,29v317.3c0,16-13,29-29,29H42c-16,0-29-13-29-29V53C13,37,26.1,24,42,24z"/>
	<g>
		<g>
			<path class="st1" d="M379.8,12.4H48.2c-25.4,0-46.1,20.6-46.1,46v313.2c0,25.4,20.7,46.1,46.1,46.1h331.6
				c25.4,0,46.1-20.7,46.1-46.1V58.4C425.9,33,405.2,12.4,379.8,12.4z M121.9,49.2c5.1,0,9.2,4.1,9.2,9.2s-4.1,9.2-9.2,9.2
				c-5.1,0-9.2-4.1-9.2-9.2C112.7,53.3,116.8,49.2,121.9,49.2z M85,49.2c5.1,0,9.2,4.1,9.2,9.2s-4.1,9.2-9.2,9.2s-9.2-4.1-9.2-9.2
				S80,49.2,85,49.2z M48.2,49.2c5.1,0,9.2,4.1,9.2,9.2s-4.1,9.2-9.2,9.2c-5.1,0-9.2-4.1-9.2-9.2S43.1,49.2,48.2,49.2z M407.5,307.1
				h-1.2c0.6,4.9,0.4,9.6,0.2,14.4c0,0.3,0,0.6,0,1c0,1-0.1,2.1-0.2,3.1h1v46.1c0,15.2-12.4,27.6-27.6,27.6H48.2
				c-15.2,0-27.6-12.4-27.6-27.6v-46.1h0.5c0-4.1,0-8.1,0.4-12.1c0-0.5-0.1-1.1,0-1.6c0-1.6,0.1-3.1,0.2-4.7h-1.1V87.3h386.9V307.1z
				"/>
			<path class="st2" d="M183.7,230.7l21.1-21.1v69.9c0,5.1,4.1,9.2,9.2,9.2c5.1,0,9.2-4.1,9.2-9.2v-69.9l21.1,21.1
				c1.8,1.8,4.2,2.7,6.5,2.7s4.7-0.9,6.5-2.7c3.6-3.6,3.6-9.4,0-13l-36.9-36.8c-0.9-0.9-1.9-1.5-2.9-1.9l-0.1-0.1
				c-1.5-0.6-3.1-0.7-4.7-0.5c-0.4,0.1-0.7,0.1-1.1,0.2c-1.5,0.4-3,1.1-4.2,2.2l-36.8,36.8c-3.6,3.6-3.6,9.4,0,13
				C174.2,234.2,180.1,234.3,183.7,230.7z"/>
			<path class="st2" d="M183.7,230.7l21.1-21.1v69.9c0,5.1,4.1,9.2,9.2,9.2c5.1,0,9.2-4.1,9.2-9.2v-69.9l21.1,21.1
				c1.8,1.8,4.2,2.7,6.5,2.7s4.7-0.9,6.5-2.7c3.6-3.6,3.6-9.4,0-13l-36.9-36.8c-0.9-0.9-1.9-1.5-2.9-1.9l-0.1-0.1
				c-1.5-0.6-3.1-0.7-4.7-0.5c-0.4,0.1-0.7,0.1-1.1,0.2c-1.5,0.4-3,1.1-4.2,2.2l-36.8,36.8c-3.6,3.6-3.6,9.4,0,13
				C174.2,234.2,180.1,234.3,183.7,230.7z"/>
		</g>
		<g>
			<g>
				<path class="st3" d="M250.8,233.3c2.3,0,4.7-0.9,6.5-2.7c3.6-3.6,3.6-9.4,0-13l-36.9-36.8c-0.9-0.9-1.9-1.5-2.9-1.9l-0.1-0.1
					c-1.5-0.6-3.1-0.7-4.7-0.5c-0.4,0.1-0.7,0.1-1.1,0.2c-1.5,0.4-3,1.1-4.2,2.2l-36.8,36.8c-3.6,3.6-3.6,9.4,0,13s9.5,3.7,13.1,0.1
					l21.1-21.1v69.9c0,5.1,4.1,9.2,9.2,9.2c5.1,0,9.2-4.1,9.2-9.2v-69.9l21.1,21.1C246.1,232.5,248.5,233.3,250.8,233.3z"/>
				<path class="st3" d="M250.8,233.3c2.3,0,4.7-0.9,6.5-2.7c3.6-3.6,3.6-9.4,0-13l-36.9-36.8c-0.9-0.9-1.9-1.5-2.9-1.9l-0.1-0.1
					c-1.5-0.6-3.1-0.7-4.7-0.5c-0.4,0.1-0.7,0.1-1.1,0.2c-1.5,0.4-3,1.1-4.2,2.2l-36.8,36.8c-3.6,3.6-3.6,9.4,0,13s9.5,3.7,13.1,0.1
					l21.1-21.1v69.9c0,5.1,4.1,9.2,9.2,9.2c5.1,0,9.2-4.1,9.2-9.2v-69.9l21.1,21.1C246.1,232.5,248.5,233.3,250.8,233.3z"/>
			</g>
		</g>
	</g>
</g>
<circle class="st4" cx="48.2" cy="58.4" r="9.2"/>
<circle class="st4" cx="85" cy="58.4" r="9.2"/>
<circle class="st4" cx="121.9" cy="58.4" r="9.2"/>
</svg>
