<?xml version="1.0" encoding="utf-8"?>
<!-- Generator: Adobe Illustrator 22.1.0, SVG Export Plug-In . SVG Version: 6.00 Build 0)  -->
<svg version="1.1" id="Layer_1" xmlns="http://www.w3.org/2000/svg" xmlns:xlink="http://www.w3.org/1999/xlink" x="0px" y="0px"
	 width="512px" height="512px" viewBox="0 0 512 512" style="enable-background:new 0 0 512 512;" xml:space="preserve">
<style type="text/css">
	.st0{fill:#E8E8E8;}
	.st1{fill:#C9C9C9;}
	.st2{fill:#000000;}
</style>
<g>
	<polygon class="st0" points="431.1,512 382.8,463.7 448.8,397.7 498.2,447 	"/>
	
		<rect x="341.6" y="352" transform="matrix(0.7071 -0.7071 0.7071 0.7071 -160.0148 365.1267)" class="st0" width="38.3" height="47.4"/>
</g>
<g>
	
		<rect x="350" y="384.5" transform="matrix(0.7071 -0.7071 0.7071 0.7071 -174.8707 401.0262)" class="st1" width="93.3" height="54.2"/>
	<circle class="st1" cx="219.6" cy="205.8" r="205.8"/>
</g>
<circle class="st0" cx="219.6" cy="205.8" r="184.2"/>
<circle class="st2" cx="219.6" cy="205.4" r="34.2"/>
<path class="st2" d="M331.8,222.3v-33.7l-34.2-3.4c-1.9-7.2-5-14-8.8-20.2l22.1-27l-23.8-23.8l-28.1,23c-5.8-3.1-12.2-5.4-18.8-7
	l-3.7-37h-16.8h-0.2h-16.8l-3.7,37c-6.6,1.5-13,3.8-18.8,7l-28.1-23L128.3,138l22.1,27c-3.8,6.2-6.8,13-8.8,20.2l-34.2,3.4v33.7
	l34.3,3.4c2,7.2,5,14,8.7,20.2l-22.1,27l23.8,23.8l28.1-23c5.8,3.1,12.2,5.4,18.8,7l3.7,37h16.8h0.2h16.8l3.7-37
	c6.6-1.5,13-3.8,18.8-7l28.1,23l23.8-23.8l-22.1-27c3.8-6.2,6.8-13,8.7-20.2L331.8,222.3z M219.6,256.1c-27.9,0-50.6-22.6-50.6-50.6
	c0-27.9,22.6-50.6,50.6-50.6c27.9,0,50.6,22.6,50.6,50.6S247.5,256.1,219.6,256.1z"/>
</svg>
