<?xml version="1.0" encoding="utf-8"?>
<!-- Generator: Adobe Illustrator 21.1.0, SVG Export Plug-In . SVG Version: 6.00 Build 0)  -->
<svg version="1.1" id="Layer_1" xmlns="http://www.w3.org/2000/svg" xmlns:xlink="http://www.w3.org/1999/xlink" x="0px" y="0px"
	 viewBox="0 0 512.1 512.1" style="enable-background:new 0 0 512.1 512.1;" xml:space="preserve">
<style type="text/css">
	.st0{fill:#002833;}
	.st1{fill:#E8E8E8;}
	.st2{fill:#C9C9C9;}
	.st3{fill:#F3F3F3;}
	.st4{fill:#000000;}
	.st5{fill:#2F383A;}
	.st6{fill:#FFFFFF;}
</style>
<path class="st0" d="M0,355.3V31.4c0-5.8,4.7-10.5,10.5-10.5h491.1c5.7,0,10.4,4.7,10.4,10.5v323.9"/>
<g>
	<path class="st1" d="M0,355.3v41.8c0,5.8,4.7,10.5,10.5,10.5h491.1c5.8,0,10.5-4.7,10.5-10.5v-41.8H0z"/>
	<rect x="146.3" y="480.7" class="st1" width="219.4" height="10.5"/>
</g>
<polygon class="st2" points="329.1,480.7 182.9,480.7 193.3,407.6 318.7,407.6 "/>
<rect x="20.9" y="41.8" class="st3" width="470.2" height="292.6"/>
<path class="st4" d="M402.3,209H109.7c-8.6,0-15.7-7-15.7-15.7v-83.6c0-8.6,7-15.7,15.7-15.7h292.6c8.6,0,15.7,7,15.7,15.7v83.6
	C417.9,202,410.9,209,402.3,209z"/>
<g>
	
		<rect x="408.1" y="231" transform="matrix(0.7071 -0.7071 0.7071 0.7071 -62.5767 375.4076)" class="st5" width="27.6" height="64.6"/>
	<polygon class="st5" points="368.8,270.7 356.2,198.6 428.4,211.1 	"/>
</g>
<g>
	<path class="st6" d="M149.4,126l6.7,26c1.4,5.7,2.9,11,3.8,16.2h0.3c1.2-5.2,2.9-10.6,4.6-16.2l8.3-26.1h7.8l7.9,25.5
		c1.9,6.1,3.4,11.5,4.6,16.7h0.3c0.9-5.2,2.2-10.6,3.9-16.6L205,126h9.2l-16.5,51.1h-8.5l-7.8-24.4c-1.8-5.7-3.3-10.8-4.6-16.8h-0.2
		c-1.3,6.2-2.9,11.4-4.6,16.9l-8.2,24.3h-8.5L139.8,126L149.4,126L149.4,126z"/>
	<path class="st6" d="M228.4,126l6.7,26c1.4,5.7,2.9,11,3.8,16.2h0.3c1.2-5.2,2.9-10.6,4.6-16.2l8.3-26.1h7.8l7.9,25.5
		c1.9,6.1,3.4,11.5,4.6,16.7h0.3c0.9-5.2,2.2-10.6,3.9-16.6l7.3-25.7h9.2l-16.5,51.1h-8.5l-7.8-24.4c-1.8-5.7-3.3-10.8-4.6-16.8
		h-0.2c-1.3,6.2-2.9,11.4-4.6,16.9l-8.2,24.3h-8.5L218.7,126L228.4,126L228.4,126z"/>
	<path class="st6" d="M307.4,126l6.7,26c1.4,5.7,2.9,11,3.8,16.2h0.3c1.2-5.2,2.9-10.6,4.6-16.2L331,126h7.8l7.9,25.5
		c1.9,6.1,3.4,11.5,4.6,16.7h0.3c0.9-5.2,2.2-10.6,3.9-16.6l7.3-25.7h9.2l-16.5,51.1h-8.5l-7.8-24.4c-1.8-5.7-3.3-10.8-4.6-16.8
		h-0.2c-1.3,6.2-2.9,11.4-4.6,16.9l-8.2,24.3h-8.5L297.7,126L307.4,126L307.4,126z"/>
</g>
</svg>
