<?xml version="1.0" encoding="utf-8"?>
<!-- Generator: Adobe Illustrator 21.1.0, SVG Export Plug-In . SVG Version: 6.00 Build 0)  -->
<svg version="1.1" id="Layer_1" xmlns="http://www.w3.org/2000/svg" xmlns:xlink="http://www.w3.org/1999/xlink" x="0px" y="0px"
	 viewBox="0 0 512 512" style="enable-background:new 0 0 512 512;" xml:space="preserve">
<style type="text/css">
	.st0{fill:#002833;}
	.st1{fill:#E8E8E8;}
	.st2{fill:#C9C9C9;}
	.st3{fill:#000000;}
	.st4{fill:#F3F3F3;}
</style>
<path class="st0" d="M0,355.3V31.4c0-5.8,4.7-10.5,10.5-10.5h491.1c5.7,0,10.4,4.7,10.4,10.5v323.9"/>
<g>
	<path class="st1" d="M512,355.3V397c0,5.8-4.7,10.5-10.5,10.5h-491C4.7,407.5,0,402.8,0,397v-41.8H512z"/>
	<rect x="146.3" y="480.6" class="st1" width="219.4" height="10.5"/>
</g>
<polygon class="st2" points="329.1,480.6 182.9,480.6 193.3,407.5 318.7,407.5 "/>
<rect x="20.9" y="41.8" class="st3" width="470.2" height="292.6"/>
<path class="st4" d="M299.5,276.2c-15.7,8.2-31.7,11.4-50.7,11.4c-46.8,0-86.4-34.2-86.4-89c0-58.7,40.8-109.5,104.1-109.5
	c49.6,0,83,34.8,83,82.4c0,42.8-23.9,67.8-50.7,67.8c-11.4,0-21.9-7.7-21.1-25.1h-1.1c-10,16.8-23.1,25.1-40.2,25.1
	c-16.6,0-30.8-13.4-30.8-35.9c0-35.4,27.9-67.6,67.6-67.6c12.2,0,23.1,2.6,30.5,6l-9.7,51.6c-4.3,21.7-0.9,31.7,8.6,31.9
	c14.6,0.2,30.8-19.1,30.8-52.2c0-41.4-24.8-71-69-71c-46.5,0-85.5,36.8-85.5,94.6c0,47.6,31,77,73.3,77c16.2,0,31.4-3.4,43-10
	L299.5,276.2z M283.8,153c-2.8-0.9-7.7-2-14.2-2c-25.1,0-45.4,23.7-45.4,51.4c0,12.6,6.2,21.7,18.8,21.7c16.6,0,31.7-21.1,34.8-38.8
	L283.8,153z"/>
</svg>
