<svg enable-background="new 0 0 480 480" viewBox="0 0 480 480" xmlns="http://www.w3.org/2000/svg"><path d="m444.1 372v-276c0-6.6-5.4-12-12-12h-383.9c-6.6 0-12 5.4-12 12v276s408.8 0 407.9 0z" fill="#002833"/><path d="m54.2 100h371.9v272h-371.9z" fill="#000000"/><path d="m0 372h480v8h-480z" fill="#e8e8e8"/><path d="m456 396h-432l-24-16h480z" fill="#c9c9c9"/><g fill="#fff"><path d="m122.2 154.4 7.4 28.6c1.6 6.3 3.1 12.1 4.2 17.9h.3c1.3-5.7 3.1-11.8 5-17.8l9.2-28.8h8.6l8.7 28.2c2.1 6.7 3.8 12.7 5 18.4h.3c1-5.7 2.5-11.7 4.3-18.3l8-28.3h10.2l-18.2 56.4h-9.4l-8.6-27c-2-6.3-3.6-11.9-5-18.6h-.2c-1.4 6.8-3.1 12.6-5.1 18.6l-9.1 26.8h-9.4l-17-56.4h10.7z"/><path d="m209.4 154.4 7.4 28.6c1.6 6.3 3.1 12.1 4.2 17.9h.3c1.3-5.7 3.1-11.8 5-17.8l9.2-28.8h8.6l8.7 28.2c2.1 6.7 3.8 12.7 5 18.4h.3c1-5.7 2.5-11.7 4.3-18.3l8-28.3h10.2l-18.2 56.4h-9.4l-8.6-27c-2-6.3-3.6-11.9-5-18.6h-.2c-1.4 6.8-3.1 12.6-5.1 18.6l-9.1 26.8h-9.4l-17-56.4h10.7z"/><path d="m296.6 154.4 7.4 28.6c1.6 6.3 3.1 12.1 4.2 17.9h.3c1.3-5.7 3.1-11.8 5-17.8l9.2-28.8h8.6l8.7 28.2c2.1 6.7 3.8 12.7 5 18.4h.3c1-5.7 2.5-11.7 4.3-18.3l8-28.3h10.4l-18.2 56.4h-9.4l-8.6-27c-2-6.3-3.6-11.9-5-18.6h-.2c-1.4 6.8-3.1 12.6-5.1 18.6l-9.1 26.8h-9.4l-17-56.4h10.6z"/></g><path d="m308 275.2h25.9v60.6h-25.9z" fill="#edf0f4" transform="matrix(.7071 -.7071 .7071 .7071 -122.0092 316.4658)"/><path d="m259.4 245 11.7 67.5 19.3-19.2 36.6-36.7z" fill="#edf0f4"/></svg>