<?xml version="1.0" encoding="utf-8"?>
<!-- Generator: Adobe Illustrator 22.1.0, SVG Export Plug-In . SVG Version: 6.00 Build 0)  -->
<svg version="1.1" id="Layer_1" xmlns="http://www.w3.org/2000/svg" xmlns:xlink="http://www.w3.org/1999/xlink" x="0px" y="0px"
	 width="512px" height="512px" viewBox="0 0 512 512" style="enable-background:new 0 0 512 512;" xml:space="preserve">
<style type="text/css">
	.st0{fill:#F3F3F3;}
	.st1{fill:#2F383A;}
	.st2{fill:#000000;}
</style>
<path class="st0" d="M437.8,336H22.2C10,336,0,325.9,0,313.7V195c0-12.2,10-22.2,22.2-22.2h415.5c12.2,0,22.2,10,22.2,22.2v118.7
	C460.1,325.9,450.1,336,437.8,336z"/>
<g>
	
		<rect x="446.1" y="367.1" transform="matrix(0.7071 -0.7071 0.7071 0.7071 -155.6201 450.2725)" class="st1" width="39.2" height="91.8"/>
	<polygon class="st1" points="390.2,423.5 372.5,321.1 474.9,339 	"/>
</g>
<g>
	<path class="st2" d="M78.7,218.1l9.6,36.9c2.1,8.1,4,15.6,5.4,23.1h0.5c1.7-7.4,4-15.1,6.5-23l11.8-37h11.1l11.3,36.3
		c2.7,8.7,4.8,16.3,6.5,23.7h0.5c1.2-7.4,3.1-15,5.5-23.5l10.3-36.4h13l-23.4,72.6h-12l-11.1-34.6c-2.6-8.1-4.6-15.3-6.5-23.8h-0.3
		c-1.8,8.7-4,16.2-6.6,24l-11.7,34.5h-12l-21.9-72.6L78.7,218.1L78.7,218.1L78.7,218.1z"/>
	<path class="st2" d="M190.8,218.1l9.6,36.9c2.1,8.1,4,15.6,5.4,23.1h0.5c1.7-7.4,4-15.1,6.5-23l11.8-37h11.1l11.3,36.3
		c2.7,8.7,4.8,16.3,6.5,23.7h0.5c1.2-7.4,3.1-15,5.5-23.5l10.3-36.4h13l-23.4,72.6h-12l-11.1-34.6c-2.6-8.1-4.6-15.3-6.5-23.8h-0.3
		c-1.8,8.7-4,16.2-6.6,24l-11.7,34.5h-12l-21.9-72.6L190.8,218.1L190.8,218.1z"/>
	<path class="st2" d="M303,218.1l9.6,36.9c2.1,8.1,4,15.6,5.4,23.1h0.5c1.7-7.4,4-15.1,6.5-23l11.8-37h11.1l11.3,36.3
		c2.7,8.7,4.8,16.3,6.5,23.7h0.5c1.2-7.4,3.1-15,5.5-23.5l10.3-36.4h13l-23.4,72.6h-12l-11.1-34.6c-2.6-8.1-4.6-15.3-6.5-23.8h-0.4
		c-1.8,8.7-4,16.2-6.6,24l-11.7,34.5h-12l-21.9-72.6L303,218.1L303,218.1L303,218.1z"/>
</g>
</svg>
