<?xml version="1.0" encoding="UTF-8"?>
<svg width="89px" height="89px" viewBox="0 0 89 89" version="1.1" xmlns="http://www.w3.org/2000/svg" xmlns:xlink="http://www.w3.org/1999/xlink">
    <!-- Generator: Sketch 53.1 (72631) - https://sketchapp.com -->
    <title>alert</title>
    <desc>Created with Sketch.</desc>
    <g id="alert" stroke="none" stroke-width="1" fill="none" fill-rule="evenodd">
        <g id="noun_Alert_149381" transform="translate(3.000000, 0.000000)" fill="#E3C200" fill-rule="nonzero">
            <g id="Group" transform="translate(0.000000, 0.000000)">
                <g transform="translate(49.382716, 0.000000)" id="Path">
                    <path d="M1.92296296,11.8281 L0.61037037,15.0311111 C0.373333333,15.6106 0.64691358,16.2593111 1.21481481,16.5213667 C9.94864198,20.5560333 15.7748148,29.2018889 16.2409877,38.8208111 C16.2716049,39.4457889 16.7693827,39.9432 17.3945679,39.9402333 L20.8523457,39.9214444 C21.4992593,39.9174889 22.0325926,39.3795333 22.0049383,38.7318111 C21.5002469,26.8344889 14.2844444,16.1258111 3.45481481,11.2031222 C2.86617284,10.9351333 2.16888889,11.2288333 1.92296296,11.8281 Z"></path>
                    <path d="M6.29530864,1.15502222 L4.98469136,4.35506667 C4.74666667,4.93554444 5.02222222,5.58821111 5.59506173,5.84433333 C18.6083951,11.6481222 27.2671605,24.4987333 27.7698765,38.7535667 C27.7916049,39.3805222 28.2933333,39.8809 28.9204938,39.8769444 L32.3753086,39.8581556 C33.0212346,39.8542 33.5506173,39.3192111 33.5298765,38.6724778 C32.9945679,22.1343 22.9422222,7.21691111 7.82617284,0.527077778 C7.23555556,0.266011111 6.54024691,0.556744444 6.29530864,1.15502222 Z"></path>
                </g>
                <path d="M67.0716049,62.8844333 L60.9876543,56.6297111 L60.9876543,45.0379556 C60.9876543,33.4788333 54.1580247,23.5454444 43.9209877,19.5295667 C42.8938272,14.9015667 38.8266667,11.4355111 33.9812346,11.4355111 C29.1358025,11.4355111 25.0696296,14.9015667 24.0414815,19.5295667 C13.8044444,23.5454444 6.97481481,33.4778444 6.97481481,45.0379556 L6.97481481,56.6307 L0.890864198,62.8854222 C0.351604938,63.4392 0.0503703704,64.1818556 0.0503703704,64.9551667 L0.0503703704,73.7859444 C0.0503703704,75.3721222 1.33530864,76.6586667 2.91950617,76.6586667 L22.0612346,76.6586667 C22.0760494,83.0063444 27.6395062,88.5688444 33.9812346,88.5688444 C40.322963,88.5688444 45.8864198,83.0063444 45.9012346,76.6586667 L65.042963,76.6586667 C66.6271605,76.6586667 67.9120988,75.3721222 67.9120988,73.7859444 L67.9120988,64.9551667 C67.9120988,64.1808667 67.6108642,63.4382111 67.0716049,62.8844333 Z M33.9812346,82.8234 C30.5906173,82.8234 27.8162963,79.6233556 27.8004938,76.6586667 L40.162963,76.6586667 C40.1471605,79.6223667 37.3728395,82.8234 33.9812346,82.8234 Z M62.1738272,70.9122333 L5.78962963,70.9122333 L5.78962963,66.0834889 L12.7140741,58.9654667 C12.7140741,52.1549889 12.7140741,46.2750556 12.7140741,45.0369667 C12.7140741,34.5636444 19.6385185,25.9583333 29.5298765,23.8628778 C29.5298765,22.7938889 29.5298765,22.0304667 29.5298765,21.8237889 C29.5298765,19.3476111 31.5081481,17.1809556 33.9812346,17.1809556 C36.454321,17.1809556 38.4325926,19.3476111 38.4325926,21.8237889 C38.4325926,22.0304667 38.4325926,22.7938889 38.4325926,23.8628778 C48.3249383,25.9593222 55.2493827,34.5646333 55.2493827,45.0379556 C55.2493827,46.5855667 55.2493827,52.1559778 55.2493827,58.9664556 L62.1738272,66.0844778 L62.1738272,70.9122333 Z" id="Shape"></path>
            </g>
        </g>
    </g>
</svg>