<?xml version="1.0" encoding="UTF-8"?>
<svg width="102px" height="77px" viewBox="0 0 102 77" version="1.1" xmlns="http://www.w3.org/2000/svg" xmlns:xlink="http://www.w3.org/1999/xlink">
    <!-- Generator: Sketch 43.1 (39012) - http://www.bohemiancoding.com/sketch -->
    <title>binoculars</title>
    <desc>Created with Sketch.</desc>
    <defs></defs>
    <g id="Page-1" stroke="none" stroke-width="1" fill="none" fill-rule="evenodd">
        <g id="binoculars">
            <path d="M101.337162,75.2298851 L101.337162,1.77011494 C101.337162,0.792507454 100.591531,0 99.6717491,0 L1.66541304,0 C0.745630815,0 0,0.792507454 0,1.77011494 L0,75.2298851 C0,76.2074925 0.745630815,77 1.66541304,77 L99.6717491,77 C100.591531,77 101.337162,76.2074925 101.337162,75.2298851 Z" id="Shape-Copy-2" fill-opacity="0.01" fill="#FFFFFF" fill-rule="nonzero"></path>
            <g id="Group-2" transform="translate(7.000000, 8.000000)">
                <path d="M30.9545455,2 C28.3038638,2 25.9098859,2.91510529 24.227983,4.60181452 C22.8936873,5.93992223 22.1927495,7.79163865 21.8984375,9.80544355 C16.8925052,10.7750015 12.482494,13.9093514 10.5710227,19.1310484 L4.98011364,34.0987903 C4.95783354,34.1562589 4.93839694,34.2147981 4.921875,34.2741935 C3.71459068,36.6749417 3,39.3598983 3,42.2258065 C3,52.0200606 10.94867,60 20.7045455,60 C28.8692687,60 35.7643785,54.4090442 37.7975852,46.8447581 C38.7948273,47.4678062 39.9525573,47.8387097 41.2045455,47.8387097 L46.7954545,47.8387097 C48.0474427,47.8387097 49.2051727,47.4678062 50.2024148,46.8447581 C52.2356215,54.4090442 59.1307332,60 67.2954545,60 C77.0513309,60 85,52.0200606 85,42.2258065 C85,39.3274024 84.2820388,36.6073362 83.0490057,34.1864919 C83.0400202,34.1570218 77.4289773,19.1310484 77.4289773,19.1310484 C75.517506,13.9093514 71.1074948,10.7750015 66.1015625,9.80544355 C65.8072505,7.79163865 65.1063127,5.93992223 63.772017,4.60181452 C62.0901141,2.91510529 59.6961362,2 57.0454545,2 C52.5366715,2 48.4792789,4.81462961 47.3196023,9.07459677 C47.1943604,9.19537398 47.0865468,9.33313115 46.9992898,9.48387097 L44,9.48387097 L40.9715909,9.48387097 C40.8911619,9.3451784 40.7932943,9.21744993 40.6803977,9.10383065 C39.5306916,4.82859171 35.4729337,2 30.9545455,2 Z" id="Shape-Copy" fill="#FFFFF7" fill-rule="nonzero"></path>
                <path d="M40.6702627,32.5272418 C40.6195575,33.082723 41.0250095,33.5330613 41.5778793,33.5331006 L51.6209803,33.5338148 L49.1991943,9.50589741 L42.780362,9.41087922 L40.6702627,32.5272418 Z" id="Path-3" fill="#37474F"></path>
                <circle id="Oval" fill="#FCB717" cx="21" cy="45" r="9"></circle>
                <circle id="Oval" fill="#FCB717" cx="71" cy="45" r="9"></circle>
                <path d="M11.9136323,27.2673073 C13.0324897,23.6115937 12.3551237,14.3932262 25.4884606,12.6025042 C25.4884606,3.55674479 40.0171028,1.01232409 39.1093635,12.6025042 C38.0070104,24.158988 37.2815067,33.3037735 37.2815067,33.3037735 C37.2815067,33.3037735 29.541654,20.6078019 11.9136323,27.2673073 Z" id="Path-2" fill="#B0BEC5"></path>
                <path d="M53.9136323,26.2673073 C55.0324897,22.6115937 54.3551237,13.3932262 67.4884606,11.6025042 C67.4884606,2.55674479 82.0171028,0.0123240856 81.1093635,11.6025042 C80.0070104,23.158988 79.2815067,32.3037735 79.2815067,32.3037735 C79.2815067,32.3037735 71.541654,19.6078019 53.9136323,26.2673073 Z" id="Path-2" fill="#B0BEC5" transform="translate(67.531913, 18.069304) scale(-1, 1) translate(-67.531913, -18.069304) "></path>
                <path d="M30,0 C27.155366,0 24.586219,0.978216 22.78125,2.78125 C21.349323,4.211641 20.597097,6.191062 20.28125,8.34375 C14.90903,9.380174 10.176335,12.730686 8.125,18.3125 L2.125,34.3125 C2.10108966,34.3739319 2.08023086,34.4365083 2.0625,34.5 C0.7668778,37.066317 0,39.936443 0,43 C0,53.46972 8.53028,62 19,62 C27.762142,62 35.161772,56.023461 37.34375,47.9375 C38.413961,48.603517 39.656403,49 41,49 L47,49 C48.343597,49 49.586039,48.603517 50.65625,47.9375 C52.838228,56.023461 60.23786,62 69,62 C79.469721,62 88,53.46972 88,43 C88,39.901706 87.229505,36.994049 85.90625,34.40625 C85.896607,34.3747474 85.8861872,34.3434879 85.875,34.3125 L79.875,18.3125 C77.823665,12.730686 73.09097,9.380174 67.71875,8.34375 C67.402903,6.191062 66.650677,4.211641 65.21875,2.78125 C63.413781,0.978216 60.844634,0 58,0 C53.161306,0 48.807031,3.008742 47.5625,7.5625 C47.4280941,7.69160667 47.3123917,7.83886433 47.21875,8 L44,8 L40.75,8 C40.663686,7.85174243 40.5586572,7.7152051 40.4375,7.59375 C39.203669,3.023667 34.849002,0 30,0 Z M30,4 C33.679243,4 36.616496,6.07184 36.96875,9.34375 L34.90625,32.625 C31.509517,27.433854 25.64787,24 19,24 C15.420939,24 12.081228,25.019588 9.21875,26.75 L11.875,19.6875 C13.588849,15.024006 17.470417,12.501071 22.21875,12 C23.2370705,11.8878747 24.006052,11.024457 24,10 C24,8.032298 24.631693,6.585991 25.625,5.59375 C26.618307,4.601509 28.037738,4 30,4 Z M58,4 C59.962262,4 61.381693,4.601509 62.375,5.59375 C63.368307,6.585991 64,8.032298 64,10 C63.993948,11.024457 64.7629295,11.8878747 65.78125,12 C70.529583,12.501071 74.411151,15.024006 76.125,19.6875 L78.78125,26.75 C75.918772,25.019588 72.579061,24 69,24 C62.352132,24 56.490484,27.433854 53.09375,32.625 L51.03125,9.34375 C51.383504,6.07184 54.320757,4 58,4 Z M40.75,12 L44,12 L47.25,12 L49.3125,35.40625 C48.585128,35.147769 47.811967,35 47,35 L41,35 C40.188033,35 39.414872,35.147769 38.6875,35.40625 L40.75,12 Z M19,28 C27.30796,28 34,34.692042 34,43 C33.9960268,43.0728625 33.9960268,43.1458875 34,43.21875 C33.882161,51.423703 27.233905,58 19,58 C10.692042,58 4,51.307958 4,43 C4,40.528536 4.605455,38.20808 5.65625,36.15625 C5.71734872,36.0568403 5.76963146,35.9522748 5.8125,35.84375 C8.347182,31.167172 13.288279,28 19,28 Z M69,28 C74.696451,28 79.615487,31.15651 82.15625,35.8125 C82.2132515,35.9559016 82.2866564,36.092225 82.375,36.21875 C83.406004,38.255379 84,40.553491 84,43 C84,51.30796 77.307961,58 69,58 C60.787255,58 54.150971,51.456723 54,43.28125 C54.0065711,43.1876151 54.0065711,43.0936349 54,43 C54,42.968262 53.999805,42.93794 54,42.90625 C54.0007293,42.8750043 54.0007293,42.8437457 54,42.8125 C54.101184,34.592815 60.755518,28 69,28 Z M19,30 C11.843946,30 6,35.843979 6,43 C6,50.156022 11.843946,56 19,56 C26.156055,56 32,50.156021 32,43 C32,35.843979 26.156055,30 19,30 Z M69,30 C61.843946,30 56,35.843979 56,43 C56,50.156021 61.843946,56 69,56 C76.156055,56 82,50.156021 82,43 C82,35.843979 76.156055,30 69,30 Z M19,34 C23.994311,34 28,38.005759 28,43 C28,47.994241 23.994311,52 19,52 C14.00569,52 10,47.994242 10,43 C10,38.005759 14.00569,34 19,34 Z M69,34 C73.994311,34 78,38.005759 78,43 C78,47.994241 73.994311,52 69,52 C64.00569,52 60,47.994241 60,43 C60,38.005759 64.00569,34 69,34 Z M41,39 L47,39 C48.294321,39 49.348751,39.761962 49.78125,40.875 L49.9375,42.5625 C49.687221,43.979182 48.505517,45 47,45 L41,45 C39.494483,45 38.312779,43.979182 38.0625,42.5625 L38.21875,40.8125 C38.664861,39.730166 39.727555,39 41,39 Z" id="Shape" fill="#000000" fill-rule="nonzero"></path>
            </g>
        </g>
    </g>
</svg>