<?xml version="1.0" encoding="UTF-8" standalone="no"?>
<svg width="88px" height="100px" viewBox="0 0 88 100" version="1.1" xmlns="http://www.w3.org/2000/svg" xmlns:xlink="http://www.w3.org/1999/xlink" xmlns:sketch="http://www.bohemiancoding.com/sketch/ns">
    <!-- Generator: Sketch 3.5.2 (25235) - http://www.bohemiancoding.com/sketch -->
    <title>brand</title>
    <desc>Created with Sketch.</desc>
    <defs></defs>
    <g id="Page-1" stroke="none" stroke-width="1" fill="none" fill-rule="evenodd" sketch:type="MSPage">
        <path d="M74.9533333,52.7777778 C70.86,52.7777778 67.2466667,54.7966667 65.0288889,57.8855556 L57.8755556,53.0533333 C58.3177778,51.5544444 58.5644444,49.9744444 58.5644444,48.3333333 C58.5644444,44.1644444 57.0222222,40.3622222 54.4922222,37.4388889 L65.3644444,27.3811111 C66.97,28.9722222 69.18,29.9566667 71.62,29.9566667 C76.53,29.9566667 80.5088889,25.9766667 80.5088889,21.0677778 C80.5088889,16.1588889 76.53,12.1788889 71.62,12.1788889 C66.71,12.1788889 62.7311111,16.1588889 62.7311111,21.0677778 C62.7311111,22.84 63.2555556,24.4866667 64.1477778,25.8722222 L53.1411111,36.0566667 C50.1766667,33.3388889 46.2366667,31.6666667 41.8977778,31.6666667 C38.2744444,31.6666667 34.9311111,32.8355556 32.1966667,34.8 L22.92,22.1211111 C25.9888889,19.9011111 27.9922222,16.3 27.9922222,12.2222222 C27.9922222,5.47333333 22.52,0 15.77,0 C9.02,0 3.54777778,5.47333333 3.54777778,12.2222222 C3.54777778,18.9733333 9.02,24.4444444 15.77,24.4444444 C17.7355556,24.4444444 19.5866667,23.9688889 21.2311111,23.1455556 L30.6688889,36.0433333 C27.3366667,39.09 25.2311111,43.46 25.2311111,48.3333333 C25.2311111,52.8077778 27.0044444,56.8622222 29.8755556,59.8566667 L16.7722222,72.8888889 C14.99,71.2444444 12.6166667,70.2311111 10,70.2311111 C4.47666667,70.2311111 0,74.7077778 0,80.2311111 C0,85.7544444 4.47666667,90.2311111 10,90.2311111 C15.5233333,90.2311111 20,85.7544444 20,80.2311111 C20,78.1377778 19.3544444,76.1966667 18.2555556,74.5911111 L31.5422222,61.3766667 C34.3866667,63.6388889 37.9811111,65 41.8977778,65 C43.0277778,65 44.1311111,64.8844444 45.1977778,64.67 L50.7333333,82.7922222 C47.36,84.0533333 44.9533333,87.2966667 44.9533333,91.1111111 C44.9533333,96.02 48.9322222,100 53.8422222,100 C58.7522222,100 62.7311111,96.02 62.7311111,91.1111111 C62.7311111,86.2022222 58.7522222,82.2222222 53.8422222,82.2222222 C53.4322222,82.2222222 53.0311111,82.26 52.6344444,82.3133333 L47.09,64.1644444 C51.4277778,62.7422222 54.9688889,59.5866667 56.92,55.5177778 L63.7477778,60.1277778 C63.0977778,61.6211111 62.7322222,63.2666667 62.7322222,65 C62.7322222,71.7511111 68.2044444,77.2222222 74.9544444,77.2222222 C81.7044444,77.2222222 87.1766667,71.7511111 87.1766667,65 C87.1755556,58.2511111 81.7033333,52.7777778 74.9533333,52.7777778 L74.9533333,52.7777778 Z M71.62,14.4011111 C75.3022222,14.4011111 78.2866667,17.3866667 78.2866667,21.0677778 C78.2866667,24.7488889 75.3022222,27.7344444 71.62,27.7344444 C67.9377778,27.7344444 64.9533333,24.7488889 64.9533333,21.0677778 C64.9533333,17.3866667 67.9377778,14.4011111 71.62,14.4011111 L71.62,14.4011111 Z M15.77,22.2222222 C10.2466667,22.2222222 5.77,17.7455556 5.77,12.2222222 C5.77,6.69888889 10.2466667,2.22222222 15.77,2.22222222 C21.2933333,2.22222222 25.77,6.69888889 25.77,12.2222222 C25.77,17.7455556 21.2933333,22.2222222 15.77,22.2222222 L15.77,22.2222222 Z M60.5088889,91.1111111 C60.5088889,94.7922222 57.5244444,97.7777778 53.8422222,97.7777778 C50.16,97.7777778 47.1755556,94.7922222 47.1755556,91.1111111 C47.1755556,87.43 50.16,84.4444444 53.8422222,84.4444444 C57.5244444,84.4444444 60.5088889,87.43 60.5088889,91.1111111 L60.5088889,91.1111111 Z M10,88.0088889 C5.70444444,88.0088889 2.22222222,84.5266667 2.22222222,80.2311111 C2.22222222,75.9355556 5.70444444,72.4533333 10,72.4533333 C14.2955556,72.4533333 17.7777778,75.9355556 17.7777778,80.2311111 C17.7777778,84.5266667 14.2955556,88.0088889 10,88.0088889 L10,88.0088889 Z M41.8977778,62.7777778 C33.9211111,62.7777778 27.4533333,56.3111111 27.4533333,48.3333333 C27.4533333,40.3555556 33.9211111,33.8888889 41.8977778,33.8888889 C49.8755556,33.8888889 56.3422222,40.3555556 56.3422222,48.3333333 C56.3422222,56.3111111 49.8755556,62.7777778 41.8977778,62.7777778 L41.8977778,62.7777778 Z M74.9533333,75 C69.43,75 64.9533333,70.5233333 64.9533333,65 C64.9533333,59.4766667 69.43,55 74.9533333,55 C80.4766667,55 84.9533333,59.4766667 84.9533333,65 C84.9533333,70.5233333 80.4766667,75 74.9533333,75 L74.9533333,75 Z" id="brand" fill="#6A3C4F" sketch:type="MSShapeGroup"></path>
    </g>
</svg>