<?xml version="1.0" encoding="UTF-8"?>
<svg width="482px" height="482px" viewBox="0 0 482 482" version="1.1" xmlns="http://www.w3.org/2000/svg" xmlns:xlink="http://www.w3.org/1999/xlink">
    <!-- Generator: Sketch 53.1 (72631) - https://sketchapp.com -->
    <title>brand</title>
    <desc>Created with Sketch.</desc>
    <g id="brand" stroke="none" stroke-width="1" fill="none" fill-rule="evenodd">
        <g id="noun_Business-Process_1855377" transform="translate(0.000000, 15.000000)" fill="#64A3C1" fill-rule="nonzero">
            <g id="Group">
                <path d="M285.074322,457.855283 L285.074322,403.187961 C285.074322,359.072236 249.150731,323.196806 204.975783,323.196806 L193.202505,323.196806 L193.202505,310.032432 C217.554071,294.355774 233.151148,268.830958 235.968685,240.2914 L250.861378,228.131941 C261.42714,219.489681 265.150313,205.11941 260.018372,192.457494 C256.093946,182.709828 247.037578,175.67543 236.471816,173.665602 L236.471816,170.550369 L236.37119,170.550369 C237.276827,159.596806 237.981211,146.834398 235.465553,134.373464 C232.144885,117.490909 223.088518,103.623096 210.711482,96.387715 C210.107724,95.9857494 209.40334,95.6842752 208.799582,95.2823096 C207.390814,94.4783784 205.982046,93.7749386 205.378288,93.0714988 C204.77453,92.4685504 204.170772,91.363145 203.466388,90.1572482 C203.265136,89.7552826 203.063883,89.4538084 202.86263,89.0518428 C197.42881,79.7061425 189.278079,71.9683047 179.416701,66.6422604 C165.127766,58.9044226 147.216284,56.492629 129.002923,59.6078624 C114.512735,62.1201474 100.022547,67.8481572 83.3185804,77.4953317 C81.5073069,78.6007371 79.6960334,79.6056511 77.7841336,80.7110565 C69.0296451,85.9366093 60.6776618,90.860688 51.7219207,92.7700246 C39.7473904,95.2823096 25.760334,92.0665848 14.2889353,84.0272727 C10.6663883,81.5149877 5.63507307,82.4194103 3.11941545,86.0371007 C1.50939457,88.3484029 1.30814196,91.2626536 2.21377871,93.6744472 C2.31440501,95.6842752 2.21377871,100.507862 2.1131524,102.718673 C2.0125261,105.632924 2.0125261,106.939312 2.0125261,107.944226 C2.51565762,114.576658 3.52192067,120.907617 5.03131524,126.736118 C8.55323591,140.603931 14.5908142,152.260934 22.9427975,161.405651 C28.1753653,167.133661 34.4141962,171.856757 41.4580376,175.574939 C33.7098121,178.690172 27.3703549,184.719656 24.2509395,192.457494 C19.1189979,205.11941 22.8421712,219.489681 33.4079332,228.131941 L48.6025052,240.592875 C51.5206681,269.132432 67.1177453,294.556757 91.2680585,310.132924 L91.2680585,323.297297 L80.0985386,323.297297 C35.9235908,323.297297 0,359.172727 0,403.288452 L0,457.955774 C0,462.377396 3.62254697,465.995086 8.05010438,465.995086 L277.024217,465.995086 C281.451775,465.894595 285.074322,462.276904 285.074322,457.855283 Z M245.025052,198.285995 C247.440084,204.415971 245.729436,211.349877 240.597495,215.570516 L236.37119,218.987224 L236.37119,190.146192 C240.295616,191.653563 243.515658,194.567813 245.025052,198.285995 Z M48.0993737,219.288698 L43.57119,215.570516 C38.4392484,211.349877 36.6279749,204.415971 39.1436326,198.285995 C40.6530271,194.467322 44.0743215,191.45258 48.0993737,190.0457 L48.0993737,219.288698 Z M58.6651357,165.324816 C49.3068894,162.310074 41.0555324,157.185012 34.8167015,150.351597 C28.2759916,143.216708 23.445929,133.871007 20.6283925,122.615971 C19.4208768,117.691892 18.5152401,112.265356 18.0121086,106.537346 C18.0121086,106.135381 18.0121086,105.33145 18.0121086,104.326536 C30.0872651,109.451597 42.9674322,110.958968 54.9419624,108.346192 C66.5139875,105.934398 76.3753653,100.005405 85.9348643,94.2773956 C87.7461378,93.1719902 89.456785,92.1670762 91.2680585,91.1621622 C106.261378,82.4194103 119.141545,77.3948403 131.619207,75.1840295 C146.310647,72.6717445 160.599582,74.4805897 171.668476,80.5100737 C179.014196,84.4292383 184.951148,90.1572482 188.875574,96.890172 C189.076827,97.1916462 189.177453,97.4931204 189.378706,97.7945946 C190.384969,99.6034398 191.693111,101.914742 193.705637,103.92457 C196.020042,106.336364 198.736952,107.843735 200.950731,109.049631 C201.453862,109.351106 201.956994,109.65258 202.460125,109.954054 C210.912735,114.878133 217.151566,124.826781 219.566597,137.287715 C221.478497,147.236364 221.075992,157.988943 220.371608,167.535627 L220.270981,167.535627 C213.730271,154.471744 203.868894,144.724079 192.095616,139.900491 C181.932359,135.679853 169.857203,134.875921 156.373278,137.488698 C145.908142,139.498526 135.946138,143.216708 126.88977,148.44226 C123.971608,150.150614 121.154071,151.959459 118.437161,153.768305 C115.720251,155.57715 113.103967,157.285504 110.387056,158.792875 C98.0100209,165.827273 83.8217119,168.942506 70.5390397,167.636118 C66.5139875,167.435135 62.4889353,166.530713 58.6651357,165.324816 L58.6651357,165.324816 Z M64.3002088,234.362408 C64.1995825,233.257002 64.1995825,232.151597 64.1995825,230.845209 L64.1995825,183.111794 C65.708977,183.413268 67.3189979,183.614251 68.8283925,183.714742 C71.4446764,184.016216 73.960334,184.116708 76.576618,184.116708 C90.8655532,184.116708 105.355741,180.197543 118.336534,172.861671 C121.45595,171.052826 124.374113,169.143489 127.191649,167.334644 C129.807933,165.62629 132.323591,164.018428 134.939875,162.511057 C142.486848,158.189926 150.738205,155.074693 159.492693,153.366339 C169.857203,151.356511 178.812944,151.858968 185.957411,154.773219 C195.013779,158.591892 202.963257,167.234152 207.692693,178.690172 C207.692693,178.790663 207.793319,178.891155 207.893946,179.092138 C208.296451,179.896069 208.799582,180.7 209.503967,181.40344 C211.013361,182.910811 213.126514,183.815233 215.239666,183.714742 L220.270981,183.614251 L220.270981,230.744717 C220.270981,232.051106 220.270981,233.156511 220.170355,234.261916 C218.962839,260.992629 204.372025,284.909582 181.127349,298.274939 C169.354071,305.007862 155.870146,308.625553 142.285595,308.625553 C128.600418,308.625553 115.116493,305.007862 103.443841,298.274939 C80.0985386,285.110565 65.5077244,261.193612 64.3002088,234.362408 Z M146.713152,367.915479 L158.888935,396.354545 C148.222547,401.178133 135.845511,401.178133 125.179123,396.354545 L137.757411,368.317445 C139.065553,365.403194 138.461795,361.986486 136.348643,359.574693 L107.468894,328.120885 L107.468894,318.272727 C118.537787,322.694349 130.311065,324.90516 142.285595,324.90516 C154.260125,324.90516 166.134029,322.593857 177.102296,318.272727 L177.102296,328.020393 L148.222547,359.273219 C146.109395,361.584521 145.505637,365.001229 146.713152,367.915479 Z M120.852192,366.5086 L114.311482,381.180344 L96.2993737,339.777887 L120.852192,366.5086 Z M188.674322,339.27543 L188.9762,339.27543 L170.360334,382.185258 L163.618372,366.408108 L188.674322,339.27543 Z M16.1002088,449.815971 L16.1002088,403.187961 C16.1002088,368.417936 43.9736952,340.179853 78.5891441,339.27543 L106.46263,403.388943 C106.663883,403.790909 106.764509,404.092383 107.066388,404.494349 L135.443006,449.815971 L16.1002088,449.815971 L16.1002088,449.815971 Z M132.726096,415.146437 C139.266806,416.251843 146.008768,416.151351 152.650104,414.945455 L142.587474,430.923587 L132.726096,415.146437 Z M268.974113,449.815971 L149.731942,449.815971 L177.907307,404.896314 C178.108559,404.59484 178.309812,404.192875 178.511065,403.790909 L206.585804,339.27543 C241.201253,340.079361 269.074739,368.417936 269.074739,403.187961 L269.074739,449.815971 L268.974113,449.815971 Z" id="Shape"></path>
                <path d="M478,0 L438.696939,2.37310172e-15 L420.57449,2.37310172e-15 L376.17449,3.2933402e-32 L358.052041,2.37310172e-15 L313.652041,3.2933402e-32 L295.529592,3.2933402e-32 L256,0 L256,171 L478,171 L478,0 Z M460,155 L274,155 L274,17 L460,17 L460,155 Z" id="Shape"></path>
            </g>
        </g>
        <polygon id="Path-2" fill="#64A3C1" points="346 65 346 133.809657 393.681354 99.4048284"></polygon>
    </g>
</svg>