<?xml version="1.0" encoding="UTF-8"?>
<svg width="482px" height="482px" viewBox="0 0 482 482" version="1.1" xmlns="http://www.w3.org/2000/svg" xmlns:xlink="http://www.w3.org/1999/xlink">
    <!-- Generator: Sketch 53.1 (72631) - https://sketchapp.com -->
    <title>business</title>
    <desc>Created with Sketch.</desc>
    <g id="business" stroke="none" stroke-width="1" fill="none" fill-rule="evenodd">
        <g id="noun_event_1855363" fill="#64A3C1" fill-rule="nonzero">
            <g id="Group">
                <path d="M8,481.9 L301.2,481.9 C305.6,481.9 309.2,478.3 309.2,473.9 L309.2,423.6 C309.2,387 286,354.2 251.5,342 C248.7,341 245.8,340.2 242.9,339.5 C242.5,338.3 241.8,337.2 240.9,336.3 C240.8,336.2 230,325.8 217.6,313.5 C231.6,299.1 240.3,280.3 242.2,260.3 L255.1,249.7 C265.1,241.5 268.6,227.9 263.8,215.9 C262,211.4 259,207.5 255.2,204.5 C261.4,198.6 265.2,190.4 265.2,181.2 L265.2,166.9 C265.2,150.5 252.8,137 237,135.1 L237,127 C237,109.3 222.6,95 205,95 L203.9,95 L52.5,136.8 L52.5,142.9 C52.5,153.4 57.8,163.2 66.2,169.2 L66.2,198.3 C56.9,200.5 49,207 45.5,215.8 C40.7,227.8 44.2,241.4 54.2,249.6 L66.7,259.9 C68.7,280.1 77.6,299.1 91.7,313.6 C80.4,324.9 68.9,336.4 68.9,336.4 C68.1,337.2 67.4,338.2 67,339.3 C28.1,348.1 0,382.6 0,423.6 L0,473.9 C0,478.3 3.6,481.9 8,481.9 Z M66.2,238.8 L64.3,237.2 C59.7,233.4 58.1,227.2 60.3,221.7 C61.4,218.9 63.5,216.7 66.2,215.2 L66.2,238.8 Z M147.2,383.4 L142.8,375.1 C150.2,371.2 159.1,371 166.6,374.7 L162,383.4 L147.2,383.4 L147.2,383.4 Z M158.8,399.4 L146.9,411.3 L149.1,399.4 L158.8,399.4 Z M163.4,417.4 L165.1,426.5 L139.5,451.4 L141.8,439 L163.4,417.4 Z M148.8,465.9 L147.6,465.9 L168.6,445.4 L171.1,458.9 L148.8,465.6 L148.8,465.9 Z M154.3,352.3 C149.6,352.3 145.2,350.5 141.9,347.2 C139.5,344.8 137.8,341.7 137.1,338.4 C142.5,339.5 148.1,340.1 153.7,340.1 C153.9,340.1 154.2,340.1 154.4,340.1 C160.2,340.1 165.9,339.5 171.5,338.4 C169.8,346.3 162.7,352.3 154.3,352.3 Z M246.1,357.1 C274.2,367 293.1,393.8 293.1,423.6 L293.1,465.9 L246.8,465.9 L246.8,449.4 L230.8,449.4 L230.8,465.9 L189,465.9 L187.9,462.5 L175.1,392.6 L179,385.2 L181.4,387.7 C183,389.3 185.1,390.2 187.2,390.2 C189,390.2 190.8,389.6 192.3,388.3 L233.4,353.8 C237.8,354.6 242,355.6 246.1,357.1 Z M223.3,341.6 L187.9,371.3 L185.7,369 C184.7,367.9 183.6,366.9 182.3,365.8 C182.2,365.7 182.2,365.7 182.1,365.6 C179.9,363.8 177.6,362.2 175.1,360.9 C182.9,354.7 187.9,345.2 187.9,334.6 L187.9,333.4 C194,330.9 199.9,327.7 205.3,323.8 C212.3,330.8 218.8,337.2 223.3,341.6 Z M244.9,237.2 L242.5,239.2 L242.5,215.1 C245.4,216.6 247.7,218.9 248.9,221.7 C251.1,227.2 249.5,233.5 244.9,237.2 Z M235.9,150.9 C243.4,152.2 249.1,158.8 249.1,166.7 L249.1,181 C249.1,189.5 242.5,196.5 234,197 C233.7,197 233.4,197 233.1,197 C227.8,197 222.9,195 219.1,191.3 C215.3,187.6 213.2,182.7 213.1,177.4 L213,173.8 C224.2,171 233,162.1 235.9,150.9 Z M69.6,148.7 L205.8,111 C214.2,111.5 220.9,118.5 220.9,127 L220.9,134.7 L220.9,142.7 L220.9,143 C220.9,151.8 213.7,159 204.9,159 L196.7,159 L84.5,159 C82.1,159 79.8,158.5 77.6,157.4 C73.9,155.6 71,152.5 69.6,148.7 Z M82.3,255.1 C82.2,253.7 82.2,252.4 82.2,250.9 L82.2,206 C82.2,205.8 82.2,205.7 82.2,205.5 C82.2,205.3 82.2,205.1 82.2,205 L82.2,174.9 C83,175 83.7,175 84.5,175 L197,175 L197.1,177.9 C197.3,187.4 201.2,196.2 207.9,202.8 C213.1,207.9 219.5,211.2 226.5,212.5 L226.5,252 C226.5,253.3 226.5,254.4 226.4,255.6 C226.4,255.7 226.4,255.9 226.4,256 C225.3,275.8 216,294.4 200.8,307.2 C193.8,313.1 185.9,317.5 177.3,320.4 C169.7,322.9 161.8,324.2 153.8,324.1 C146.1,324 138.5,322.8 131.3,320.3 C122.9,317.4 115.2,313.1 108.4,307.3 C92.9,294.3 83.5,275.3 82.3,255.1 Z M103.9,324 C109.2,327.7 114.8,330.9 120.7,333.3 L120.7,334.7 C120.7,343.7 124.2,352.1 130.5,358.5 C131.6,359.6 132.8,360.7 134.1,361.6 C131.7,363 129.4,364.6 127.2,366.5 L127.1,366.6 C126.6,367.1 126,367.6 125.5,368.1 L122,371.5 L86.3,341.6 C90.9,336.9 97.5,330.4 103.9,324 Z M16,423.6 C16,388.2 41.6,358.8 76.1,353.8 L117.3,388.3 C120.5,390.9 125.1,390.8 128,387.9 L130.3,385.7 L134,392.7 L120.6,465.9 L78,465.9 L78,449.4 L62,449.4 L62,465.9 L16,465.9 L16,423.6 Z" id="Shape"></path>
                <path d="M478,14.8 L443.3,14.8 L443.3,0.1 L427.3,0.1 L427.3,14.8 L388.1,14.8 L388.1,0.1 L372.1,0.1 L372.1,14.8 L332.9,14.8 L332.9,0.1 L316.9,0.1 L316.9,14.8 L282,14.8 L282,185.7 L478,185.7 L478,14.8 Z M462,169.7 L298,169.7 L298,78.9 L462,78.9 L462,169.7 Z M462,62.9 L298,62.9 L298,30.9 L316.9,30.9 L316.9,45.8 L332.9,45.8 L332.9,30.8 L372.1,30.8 L372.1,45.7 L388.1,45.7 L388.1,30.8 L427.3,30.8 L427.3,45.7 L443.3,45.7 L443.3,30.8 L462,30.8 L462,62.9 Z" id="Shape"></path>
                <polygon id="Path" points="427.7 99.1 416.7 87.6 367.8 134.3 343.7 110.2 332.4 121.5 367.6 156.6"></polygon>
            </g>
        </g>
    </g>
</svg>