<?xml version="1.0" encoding="UTF-8"?>
<svg width="68px" height="68px" viewBox="0 0 68 68" version="1.1" xmlns="http://www.w3.org/2000/svg" xmlns:xlink="http://www.w3.org/1999/xlink">
    <!-- Generator: Sketch 53.1 (72631) - https://sketchapp.com -->
    <title>compass</title>
    <desc>Created with Sketch.</desc>
    <g id="compass" stroke="none" stroke-width="1" fill="none" fill-rule="evenodd">
        <g id="noun_Navigation_1613552" fill="#64A3C1" fill-rule="nonzero">
            <g id="Group">
                <path d="M49.9,15.4 L30.1,26.9 C29.9,27 29.7,27.2 29.6,27.4 L18.5,48.4 C18.2,48.9 18.3,49.5 18.7,49.9 C18.9,50.1 19.3,50.2 19.6,50.2 C19.8,50.2 20,50.1 20.2,50 L41.5,37.7 C41.7,37.6 41.9,37.4 42,37.2 L51.7,17 C51.9,16.5 51.8,15.9 51.4,15.5 C51,15.1 50.4,15.1 49.9,15.4 Z M40,35.9 L22.8,45.8 L31.7,28.9 L47.7,19.5 L40,35.9 Z" id="Shape"></path>
                <path d="M67.5,33.4 C67.5,33.4 67.5,33.4 67.5,33.4 C67.1,15.2 52.3,0.5 34,0.5 C15.5,0.5 0.5,15.5 0.5,34 C0.5,52.5 15.5,67.5 34,67.5 C34.3,67.5 34.7,67.5 35,67.5 C35,67.5 35.1,67.5 35.1,67.5 C35.2,67.5 35.2,67.5 35.3,67.5 C53.2,66.8 67.5,52.1 67.5,34 C67.5,33.8 67.5,33.7 67.5,33.4 C67.5,33.5 67.5,33.4 67.5,33.4 Z M36.4,64.9 L36.4,60.6 C36.4,59.9 35.8,59.3 35.1,59.3 C34.4,59.3 33.8,59.9 33.8,60.6 L33.8,65 C17,64.9 3.4,51.4 3,34.7 L7.9,34.7 C8.6,34.7 9.2,34.1 9.2,33.4 C9.2,32.7 8.6,32.1 7.9,32.1 L3,32.1 C4,16 17.4,3.1 33.9,3 L33.9,8 C33.9,8.7 34.5,9.3 35.2,9.3 C35.9,9.3 36.5,8.7 36.5,8 L36.5,3.1 C51.8,4.3 64.1,16.7 65,32.2 L60.7,32.2 C60,32.2 59.4,32.8 59.4,33.5 C59.4,34.2 60,34.8 60.7,34.8 L65,34.8 C64.7,50.7 52.1,63.7 36.4,64.9 Z" id="Shape"></path>
            </g>
        </g>
    </g>
</svg>