<?xml version="1.0" encoding="UTF-8"?>
<svg width="71px" height="71px" viewBox="0 0 71 71" version="1.1" xmlns="http://www.w3.org/2000/svg" xmlns:xlink="http://www.w3.org/1999/xlink">
    <!-- Generator: Sketch 53.1 (72631) - https://sketchapp.com -->
    <title>dashboard</title>
    <desc>Created with Sketch.</desc>
    <g id="dashboard" stroke="none" stroke-width="1" fill="none" fill-rule="evenodd">
        <g id="noun_Table_1061423" transform="translate(1.000000, 0.000000)" fill="#E3C200" fill-rule="nonzero">
            <path d="M60.5617978,0 L9.43820225,0 C4.24719101,0 0,4.26 0,9.46666667 L0,61.5333333 C0,66.74 4.24719101,71 9.43820225,71 L60.5617978,71 C65.752809,71 70,66.74 70,61.5333333 L70,9.46666667 C70,4.26 65.752809,0 60.5617978,0 Z M65,9.5 L65,14 L47,14 L47,5 L60.3043478,5 C62.8869565,5 65,7.025 65,9.5 Z M26,14 L26,5 L44,5 L44,14 L26,14 Z M44,17 L44,66 L26,66 L26,17 L44,17 Z M8.69565217,5 L22,5 L22,14 L4,14 L4,9.5 C4,7.025 6.11304348,5 8.69565217,5 Z M4,61.2580645 L4,17 L22,17 L22,66 L8.69565217,66 C6.11304348,66 4,63.866129 4,61.2580645 Z M60.3043478,66 L47,66 L47,17 L65,17 L65,61.2580645 C65,63.866129 62.8869565,66 60.3043478,66 Z M7,27.5 C7,26.675 7.72,26 8.6,26 L17.4,26 C18.28,26 19,26.675 19,27.5 C19,28.325 18.28,29 17.4,29 L8.6,29 C7.72,29 7,28.325 7,27.5 Z M19,37.5 C19,38.325 18.28,39 17.4,39 L8.6,39 C7.72,39 7,38.325 7,37.5 C7,36.675 7.72,36 8.6,36 L17.4,36 C18.28,36 19,36.675 19,37.5 Z M19,46.5 C19,47.325 18.28,48 17.4,48 L8.6,48 C7.72,48 7,47.325 7,46.5 C7,45.675 7.72,45 8.6,45 L17.4,45 C18.28,45 19,45.675 19,46.5 Z M19,56.5 C19,57.325 18.28,58 17.4,58 L8.6,58 C7.72,58 7,57.325 7,56.5 C7,55.675 7.72,55 8.6,55 L17.4,55 C18.28,55 19,55.675 19,56.5 Z M29,27.5 C29,26.675 29.72,26 30.6,26 L39.4,26 C40.28,26 41,26.675 41,27.5 C41,28.325 40.28,29 39.4,29 L30.6,29 C29.72,29 29,28.325 29,27.5 Z M29,37.5 C29,36.675 29.72,36 30.6,36 L39.4,36 C40.28,36 41,36.675 41,37.5 C41,38.325 40.28,39 39.4,39 L30.6,39 C29.72,39 29,38.325 29,37.5 Z M29,46.5 C29,45.675 29.72,45 30.6,45 L39.4,45 C40.28,45 41,45.675 41,46.5 C41,47.325 40.28,48 39.4,48 L30.6,48 C29.72,48 29,47.325 29,46.5 Z M41,56.5 C41,57.325 40.28,58 39.4,58 L30.6,58 C29.72,58 29,57.325 29,56.5 C29,55.675 29.72,55 30.6,55 L39.4,55 C40.28,55 41,55.675 41,56.5 Z M62,27.5 C62,28.325 61.28,29 60.4,29 L51.6,29 C50.72,29 50,28.325 50,27.5 C50,26.675 50.72,26 51.6,26 L60.4,26 C61.28,26 62,26.675 62,27.5 Z M62,37.5 C62,38.325 61.28,39 60.4,39 L51.6,39 C50.72,39 50,38.325 50,37.5 C50,36.675 50.72,36 51.6,36 L60.4,36 C61.28,36 62,36.675 62,37.5 Z M62,46.5 C62,47.325 61.28,48 60.4,48 L51.6,48 C50.72,48 50,47.325 50,46.5 C50,45.675 50.72,45 51.6,45 L60.4,45 C61.28,45 62,45.675 62,46.5 Z M62,56.5 C62,57.325 61.28,58 60.4,58 L51.6,58 C50.72,58 50,57.325 50,56.5 C50,55.675 50.72,55 51.6,55 L60.4,55 C61.28,55 62,55.675 62,56.5 Z" id="Shape"></path>
        </g>
    </g>
</svg>