<?xml version="1.0" encoding="UTF-8"?>
<svg width="62px" height="62px" viewBox="0 0 62 62" version="1.1" xmlns="http://www.w3.org/2000/svg" xmlns:xlink="http://www.w3.org/1999/xlink">
    <!-- Generator: Sketch 53.1 (72631) - https://sketchapp.com -->
    <title>Artboard</title>
    <desc>Created with Sketch.</desc>
    <g id="Artboard" stroke="none" stroke-width="1" fill="none" fill-rule="evenodd">
        <g id="noun_design_2123403" transform="translate(1.000000, 1.000000)" fill="#64A3C1" fill-rule="nonzero">
            <rect id="Rectangle" x="12" y="4" width="2" height="2"></rect>
            <rect id="Rectangle" x="16" y="4" width="2" height="2"></rect>
            <rect id="Rectangle" x="20" y="4" width="2" height="2"></rect>
            <path d="M1,60 L32,60 C32.4043959,59.9999137 32.7689341,59.7562725 32.923678,59.3826546 C33.0784219,59.0090366 32.9929079,58.5789943 32.707,58.293 L1.707,27.293 C1.42100575,27.0070921 0.990963384,26.9215781 0.617345442,27.076322 C0.2437275,27.2310659 8.63480138e-05,27.5956041 0,28 L0,59 C0,59.5522847 0.44771525,60 1,60 Z M2,30.414 L29.586,58 L2,58 L2,30.414 Z" id="Shape"></path>
            <path d="M17.707,52.293 L7.707,42.293 C7.42100575,42.0070921 6.99096338,41.9215781 6.61734544,42.076322 C6.2437275,42.2310659 6.00008635,42.5956041 6,43 L6,53 C6,53.5522847 6.44771525,54 7,54 L17,54 C17.4043959,53.9999137 17.7689341,53.7562725 17.923678,53.3826546 C18.0784219,53.0090366 17.9929079,52.5789943 17.707,52.293 Z M8,52 L8,45.414 L14.586,52 L8,52 Z" id="Shape"></path>
            <path d="M58.878,8.536 C60.3730348,7.04096518 60.3730348,4.61703482 58.878,3.122 C57.3829652,1.62696518 54.9590348,1.62696518 53.464,3.122 L51.964,4.622 C51.771179,2.02096352 49.6081645,0.00697218922 47,0 L13,0 C10.2399468,0.00330611633 8.00330612,2.23994685 8,5 L8,31 L10,31 L10,5 C10,3.34314575 11.3431458,2 13,2 L47,2 C48.6568542,2 50,3.34314575 50,5 L50,6.586 L40.586,16 L33.236,16 C31.2641971,10.9514964 25.9075613,8.09295823 20.6159856,9.26540126 C15.32441,10.4378443 11.6765462,15.29149 12.0217681,20.7003917 C12.3669899,26.1092934 16.6023064,30.459797 22,30.95 L22,35 C22,35.5522847 22.4477153,36 23,36 L45,36 C45.5522847,36 46,35.5522847 46,35 L46,21.414 L50,17.414 L50,38 L27,38 C26.4477153,38 26,38.4477153 26,39 L26,47 C26,47.5522847 26.4477153,48 27,48 L50,48 L50,49 C50,50.6568542 48.6568542,52 47,52 L31,52 L31,54 L47,54 C49.7600532,53.9966939 51.9966939,51.7600532 52,49 L52,48 L59,48 C59.5522847,48 60,47.5522847 60,47 L60,39 C60,38.4477153 59.5522847,38 59,38 L52,38 L52,15.414 L58.878,8.536 Z M54.878,4.536 C55.3364998,4.05736905 56.0180638,3.86424354 56.6594954,4.03120193 C57.300927,4.19816032 57.8018397,4.699073 57.9687981,5.3405046 C58.1357565,5.9819362 57.9426309,6.66350025 57.464,7.122 L57,7.586 L54.414,5 L54.878,4.536 Z M32,20 C31.9937912,24.5806044 28.5517384,28.4275287 24,28.941 L24,18 L31.768,18 C31.9201372,18.6558489 31.9979605,19.3267398 32,20 Z M22,17 L22,28.941 C17.7103715,28.4685353 14.3598916,25.0176728 14.0142283,20.7159693 C13.668565,16.4142658 16.425025,12.4726804 20.5841707,11.3213147 C24.7433164,10.1699489 29.1343198,12.1329203 31.05,16 L23,16 C22.7347835,16 22.4804296,16.1053568 22.2928932,16.2928932 C22.1053568,16.4804296 22,16.7347835 22,17 Z M44,34 L24,34 L24,30.95 C27.0834145,30.6801746 29.9087937,29.1185842 31.7776584,26.6512788 C33.6465231,24.1839735 34.3844458,21.0412354 33.809,18 L38.586,18 L36.293,20.293 C36.1531304,20.4323368 36.0580671,20.6102756 36.02,20.804 L35.02,25.804 C34.9613045,26.0976582 35.0373055,26.402165 35.2271078,26.6338013 C35.4169101,26.8654376 35.7005333,26.9998192 36,27 C36.0671927,27.0005626 36.1342492,26.9938569 36.2,26.98 L41.2,25.98 C41.3937244,25.9419329 41.5716632,25.8468696 41.711,25.707 L44,23.414 L44,34 Z M37.614,23.028 L38.972,24.386 L37.272,24.725 L37.614,23.028 Z M54,40 L54,42 L56,42 L56,40 L58,40 L58,46 L28,46 L28,40 L30,40 L30,42 L32,42 L32,40 L34,40 L34,42 L36,42 L36,40 L38,40 L38,42 L40,42 L40,40 L42,40 L42,42 L44,42 L44,40 L46,40 L46,42 L48,42 L48,40 L50,40 L50,42 L52,42 L52,40 L54,40 Z M41,23.586 L38.414,21 L53,6.414 L55.586,9 L41,23.586 Z" id="Shape"></path>
        </g>
    </g>
</svg>