<?xml version="1.0" encoding="UTF-8"?>
<svg width="85px" height="85px" viewBox="0 0 85 85" version="1.1" xmlns="http://www.w3.org/2000/svg" xmlns:xlink="http://www.w3.org/1999/xlink">
    <!-- Generator: Sketch 53.1 (72631) - https://sketchapp.com -->
    <title>filter</title>
    <desc>Created with Sketch.</desc>
    <g id="filter" stroke="none" stroke-width="1" fill="none" fill-rule="evenodd">
        <g id="noun_filter_375748" transform="translate(1.000000, 1.000000)" fill="#E3C200" fill-rule="nonzero">
            <path d="M83.7651746,1.4832176 C83.3484294,0.579413753 82.4424172,0 81.4454974,0 L2.5539994,0 C1.55707954,0 0.652088768,0.578393658 0.234322148,1.4832176 C-0.182423038,2.38702145 -0.0353365017,3.44996006 0.612252831,4.20687028 L31.5484328,40.3773859 L31.5484328,80.4497634 C31.5484328,81.5035212 32.1970436,82.4481288 33.1817063,82.8286241 C33.4809865,82.9438948 33.7935454,83 34.1020185,83 C34.8078296,83 35.4983192,82.7072328 35.9926934,82.1655626 L51.7881531,64.8076323 C52.216134,64.3383887 52.4520854,63.726332 52.4520854,63.0918331 L52.4520854,40.3773859 L83.3882654,4.20687028 C84.0348333,3.44996006 84.1829412,2.38600135 83.7651746,1.4832176 Z" id="Path"></path>
        </g>
    </g>
</svg>