<?xml version="1.0" encoding="UTF-8"?>
<svg width="482px" height="482px" viewBox="0 0 482 482" version="1.1" xmlns="http://www.w3.org/2000/svg" xmlns:xlink="http://www.w3.org/1999/xlink">
    <!-- Generator: Sketch 53.1 (72631) - https://sketchapp.com -->
    <title>gco</title>
    <desc>Created with Sketch.</desc>
    <g id="gco" stroke="none" stroke-width="1" fill="none" fill-rule="evenodd">
        <g id="noun_global-business_1855368" transform="translate(0.000000, 6.000000)" fill="#64A3C1" fill-rule="nonzero">
            <g id="Group">
                <path d="M7.88548057,475.113043 L276.6818,475.113043 C281.018814,475.113043 284.56728,471.565217 284.56728,467.228986 L284.56728,412.13913 C284.56728,368.086957 248.688344,332.214493 204.628221,332.214493 L192.701431,332.214493 L192.701431,331.031884 C222.370552,319.994203 243.759918,306.098551 257.953783,288.655072 C273.823313,269.043478 280.328834,245.884058 277.371779,219.669565 C274.907566,198.382609 265.937832,175.518841 251.448262,153.443478 C238.732924,134.226087 222.173415,116.092754 204.726789,102.591304 C179.000409,82.5855072 158.005317,77.4608696 142.234356,87.2173913 C126.463395,77.4608696 105.468303,82.5855072 79.8404908,102.591304 C62.393865,116.092754 45.8343558,134.226087 33.1190184,153.443478 C18.5308793,175.518841 9.56114519,198.382609 7.19550102,219.669565 C4.1398773,245.785507 10.7439673,269.043478 26.6134969,288.655072 C40.7087935,306 61.9010225,319.797101 91.2744376,330.834783 L91.2744376,332.214493 L79.9390593,332.214493 C35.8789366,332.214493 0,368.086957 0,412.13913 L0,467.228986 C0,471.663768 3.54846626,475.113043 7.88548057,475.113043 Z M38.8359918,278.8 C25.7263804,262.637681 20.3051125,243.321739 22.8678937,221.542029 C27.599182,180.052174 59.8310838,138.168116 89.598773,115.107246 C111.57955,97.9594203 127.153374,94.0173913 137.010225,102.985507 C138.488753,104.266667 140.460123,105.055072 142.431493,105.055072 C144.402863,105.055072 146.275665,104.365217 147.754192,102.985507 C157.611043,94.0173913 173.184867,97.9594203 195.165644,115.107246 C224.933333,138.266667 257.066667,180.150725 261.896524,221.542029 C264.360736,243.321739 259.038037,262.53913 245.928425,278.8 C236.564417,290.428986 223.1591,300.284058 205.416769,308.75942 C218.329243,296.834783 227.79182,281.362319 232.325971,264.313043 C236.268712,249.628986 236.564417,214.93913 236.36728,186.35942 C236.36728,183.994203 235.283027,181.727536 233.410225,180.249275 C226.411861,174.631884 222.271984,166.255072 222.074847,157.286957 L221.976278,150.191304 C221.87771,146.643478 219.512065,143.686957 216.160736,142.701449 C212.809407,141.814493 209.162372,143.194203 207.388139,146.249275 L206.796728,147.234783 C202.262577,154.823188 196.447035,161.426087 189.547239,166.944928 C187.575869,168.521739 185.50593,170.098551 183.337423,171.478261 C185.111656,164.481159 186.590184,155.907246 186.590184,146.347826 C186.590184,142.208696 186.294479,138.168116 185.801636,134.226087 C185.407362,131.072464 183.041718,128.411594 179.887526,127.623188 C176.733333,126.834783 173.480573,128.017391 171.607771,130.678261 C138.488753,176.504348 126.660532,190.104348 77.6719836,200.057971 C77.5734151,200.057971 77.4748466,200.057971 77.4748466,200.156522 L54.2126789,205.37971 C50.8613497,206.168116 48.397137,209.026087 48.1014315,212.475362 C47.9042945,215.037681 47.805726,217.107246 47.7071575,218.97971 C47.5100204,223.808696 47.4114519,228.342029 47.608589,232.776812 C48.2,253.768116 52.6355828,271.901449 60.7182004,286.684058 C64.9566462,294.371014 70.3779141,301.368116 76.6862986,307.576812 C60.3239264,299.298551 47.805726,289.837681 38.8359918,278.8 Z M74.5177914,278.997101 C67.6179959,266.481159 63.8723926,250.811594 63.3795501,232.382609 C63.2809816,228.342029 63.2809816,224.202899 63.4781186,219.669565 C63.4781186,219.571014 63.4781186,219.472464 63.4781186,219.373913 L80.7276074,215.333333 C126.7591,205.971014 144.304294,192.371014 169.537832,159.553623 C167.369325,172.66087 162.835174,181.727536 162.145194,183.008696 C160.370961,186.063768 160.765235,189.907246 163.426585,192.568116 C165.693661,194.834783 168.946421,195.426087 171.706339,194.342029 C181.661759,190.892754 190.927198,185.768116 199.206953,179.066667 C202.459714,176.504348 205.515337,173.646377 208.275256,170.689855 C210.6409,177.982609 214.780777,184.585507 220.399182,190.005797 C220.497751,208.237681 220.596319,246.672464 216.949284,260.272464 C211.725153,279.884058 198.516973,297.031884 180.873211,307.37971 C179.197546,308.365217 177.62045,309.252174 175.944785,310.04058 C156.033947,319.797101 131.884663,320.486957 111.480982,311.913043 C108.622495,310.730435 105.862577,309.350725 103.102658,307.773913 C90.9787321,300.776812 81.1218814,290.823188 74.5177914,278.997101 Z M107.045399,340 L107.045399,327.089855 C117.986503,331.426087 129.814724,333.594203 141.642945,333.594203 C153.766871,333.594203 165.890798,331.327536 177.127607,326.794203 L177.127607,339.605797 C177.127607,339.802899 177.127607,339.901449 177.127607,340.098551 L177.127607,377.153623 C177.127607,396.469565 161.455215,412.13913 142.135787,412.13913 C122.81636,412.13913 107.143967,396.469565 107.143967,377.153623 L107.143967,340.098551 C107.045399,340.098551 107.045399,340 107.045399,340 Z M15.7709611,412.13913 C15.7709611,376.75942 44.5529652,347.982609 79.9390593,347.982609 L91.2744376,347.982609 L91.2744376,377.153623 C91.2744376,405.142029 114.043763,427.907246 142.037219,427.907246 C170.030675,427.907246 192.8,405.142029 192.8,377.153623 L192.8,347.982609 L204.726789,347.982609 C240.112883,347.982609 268.894888,376.75942 268.894888,412.13913 L268.894888,459.344928 L227.496115,459.344928 L227.496115,445.744928 L211.725153,445.744928 L211.725153,459.344928 L72.5464213,459.344928 L72.5464213,445.744928 L56.7754601,445.744928 L56.7754601,459.344928 L15.7709611,459.344928 L15.7709611,412.13913 Z" id="Shape"></path>
                <path d="M374.856033,0.591304348 C316.109202,0.591304348 268.402045,48.2898551 268.402045,107.026087 C268.402045,165.762319 316.109202,213.46087 374.856033,213.46087 C433.602863,213.46087 481.31002,165.762319 481.31002,107.026087 C481.31002,48.2898551 433.602863,0.591304348 374.856033,0.591304348 Z M339.568507,23.4550725 C332.865849,30.9449275 327.247444,39.5188406 322.811861,49.0782609 C319.263395,46.6144928 315.912065,43.9536232 312.757873,40.9971014 C320.544785,33.7043478 329.613088,27.6927536 339.568507,23.4550725 Z M302.309611,52.7246377 C306.843763,56.9623188 311.772188,60.8057971 316.996319,64.1565217 C313.64499,74.9971014 311.575051,86.7246377 310.98364,99.142029 L284.56728,99.142029 C286.045808,81.7971014 292.452761,65.9304348 302.309611,52.7246377 Z M284.56728,114.910145 L310.98364,114.910145 C311.575051,127.327536 313.64499,139.055072 316.996319,149.895652 C311.772188,153.246377 306.843763,157.089855 302.309611,161.327536 C292.452761,148.121739 286.045808,132.156522 284.56728,114.910145 Z M312.757873,172.956522 C315.912065,170 319.263395,167.33913 322.811861,164.875362 C327.247444,174.434783 332.865849,183.008696 339.568507,190.498551 C329.613088,186.26087 320.544785,180.347826 312.757873,172.956522 Z M366.970552,193.455072 C353.860941,184.881159 343.511247,172.365217 336.512883,156.991304 C345.97546,152.655072 356.325153,149.895652 366.970552,149.008696 L366.970552,193.455072 Z M366.970552,133.24058 C354.452352,134.127536 342.328425,137.182609 331.190184,142.208696 C328.82454,133.733333 327.247444,124.568116 326.754601,114.910145 L367.069121,114.910145 L367.069121,133.24058 L366.970552,133.24058 Z M366.970552,99.142029 L326.656033,99.142029 C327.148875,89.484058 328.725971,80.3188406 331.091616,71.8434783 C342.328425,76.7710145 354.353783,79.826087 366.871984,80.8115942 L366.871984,99.142029 L366.970552,99.142029 Z M366.970552,64.9449275 C356.325153,64.057971 346.074029,61.2985507 336.512883,56.9623188 C343.412679,41.5884058 353.762372,29.0724638 366.970552,20.4985507 L366.970552,64.9449275 Z M436.757055,40.8 C433.602863,43.7565217 430.350102,46.4173913 426.900204,48.8811594 C422.464622,39.4202899 416.846217,30.9449275 410.242127,23.5536232 C420.098978,27.6927536 429.068712,33.5072464 436.757055,40.8 Z M382.741513,20.4985507 C395.851125,29.0724638 406.102249,41.4898551 413.100613,56.7652174 C403.638037,61.2 393.386912,63.9594203 382.741513,64.8463768 L382.741513,20.4985507 Z M382.741513,80.7130435 C395.259714,79.826087 407.285072,76.6724638 418.521881,71.6463768 C420.986094,80.2202899 422.464622,89.3855072 423.056033,99.0434783 L382.741513,99.0434783 L382.741513,80.7130435 L382.741513,80.7130435 Z M382.741513,114.910145 L423.056033,114.910145 C422.56319,124.568116 420.986094,133.831884 418.521881,142.307246 C407.285072,137.281159 395.259714,134.127536 382.741513,133.24058 L382.741513,114.910145 L382.741513,114.910145 Z M382.741513,193.455072 L382.741513,149.008696 C393.386912,149.895652 403.638037,152.655072 413.100613,157.089855 C406.200818,172.463768 395.851125,184.881159 382.741513,193.455072 Z M410.242127,190.498551 C416.846217,183.107246 422.464622,174.533333 426.900204,165.171014 C430.350102,167.634783 433.701431,170.295652 436.757055,173.252174 C429.068712,180.446377 420.098978,186.35942 410.242127,190.498551 Z M447.303885,161.524638 C442.769734,157.286957 437.841309,153.443478 432.715746,150.092754 C436.165644,139.153623 438.235583,127.426087 438.826994,114.910145 L465.243354,114.910145 C463.764826,132.255072 457.259305,148.318841 447.303885,161.524638 Z M438.826994,99.142029 C438.235583,86.626087 436.165644,74.8 432.715746,63.9594203 C437.841309,60.6086957 442.769734,56.7652174 447.303885,52.5275362 C457.259305,65.7333333 463.764826,81.7971014 465.243354,99.142029 C465.243354,99.142029 438.826994,99.142029 438.826994,99.142029 Z" id="Shape"></path>
            </g>
        </g>
    </g>
</svg>