<?xml version="1.0" encoding="utf-8"?>
<!-- Generator: Adobe Illustrator 22.1.0, SVG Export Plug-In . SVG Version: 6.00 Build 0)  -->
<svg version="1.1" id="Layer_1" xmlns="http://www.w3.org/2000/svg" xmlns:xlink="http://www.w3.org/1999/xlink" x="0px" y="0px"
	 viewBox="0 0 222.1 222.1" style="enable-background:new 0 0 222.1 222.1;" xml:space="preserve">
<style type="text/css">
	.st0{fill:none;stroke:#57483A;stroke-width:5;stroke-miterlimit:10;}
	.st1{fill:#57483A;stroke:#57483A;stroke-miterlimit:10;}
</style>
<title>tools</title>
<desc>Created with Sketch.</desc>
<g>
	<g>
		<path class="st0" d="M156.9,140.4c0.3,1.2,0.5,2.4,0.5,3.6c0,14.2-21.4,25.7-47.7,25.7C83.4,169.7,62,158.2,62,144
			c0-1.2,0.2-2.4,0.5-3.6"/>
		<path class="st0" d="M90.6,119.1v19.1h-9.5C36.3,138.2,0,174.5,0,219.3l0,0h219.4l0,0c0-44.8-36.3-81.1-81.1-81.1h-9.5v-19.1"/>
		<path class="st0" d="M155.5,72.7c0,0,16.3,6.3-4.9,27.4c0,0-9.9,23.5-40.9,23.5s-38.9-23.5-38.9-23.5
			c-20.6-14.9-7.7-25.7-7.7-25.7s-12.7-21.3-6-47c0,0,5-16,21.7-8c0,0,15.2-28.3,54.1-16.6C132.8,2.8,184.5,21.4,155.5,72.7z"/>
		<path class="st0" d="M64.4,76c0,0-2.1-20.5,21.8-33.2v18.1c0,0,14.3-13.4,38.2-22.9v20.8c0,0,22.2-13.9,39.5-9.6"/>
	</g>
	<g>
		<g>
			<g>
				<path class="st1" d="M156.7,203.2c-0.2,0-0.4-0.1-0.6-0.3c-0.3-0.3-0.3-0.7-0.2-1l6.6-13.3c0.1-0.2,0.3-0.4,0.6-0.5
					c0.4-0.1,3.5-0.6,6,1.8c2.4,2.4,1.8,5.5,1.7,5.9c-0.1,0.3-0.2,0.5-0.5,0.6L157,203C157,203.1,156.8,203.2,156.7,203.2z
					 M163.8,189.8l-5.3,10.6l10.6-5.2c0.1-0.8,0-2.6-1.3-4C166.4,189.8,164.6,189.8,163.8,189.8z M170,195.7L170,195.7L170,195.7z"
					/>
			</g>
		</g>
		<g>
			<path class="st1" d="M170,196.6c-0.2,0-0.4-0.1-0.6-0.3c-0.3-0.3-0.3-0.9,0-1.2l20.6-20.6c0.1-0.7,0.2-2.6-1.3-4.1
				s-3.5-1.4-4.2-1.4l-20.6,20.6c-0.3,0.3-0.9,0.3-1.2,0c-0.3-0.3-0.3-0.9,0-1.2l20.8-20.8c0.1-0.1,0.3-0.2,0.4-0.2
				c0.4-0.1,3.5-0.6,6,1.8c2.4,2.4,1.8,5.5,1.7,5.9c0,0.2-0.1,0.3-0.2,0.4l-20.8,20.8C170.4,196.5,170.2,196.6,170,196.6z"/>
		</g>
		<g>
			<path class="st1" d="M186.1,180.4c-0.1,0-0.1,0-0.2,0c-0.5-0.1-0.8-0.5-0.7-1c0-0.1,0.5-2.5-1.3-4.3s-4.3-1.3-4.4-1.3
				c-0.5,0.1-0.9-0.2-1-0.7s0.2-0.9,0.7-1c0.4-0.1,3.5-0.6,6,1.8c2.4,2.4,1.8,5.5,1.7,5.9S186.5,180.4,186.1,180.4z"/>
		</g>
		<g>
			<path class="st1" d="M156.7,203.2h-5.1c-0.5,0-0.9-0.4-0.9-0.9s0.4-0.9,0.9-0.9h5.1c0.5,0,0.9,0.4,0.9,0.9
				C157.5,202.8,157.2,203.2,156.7,203.2z"/>
		</g>
	</g>
</g>
</svg>
