<?xml version="1.0" encoding="UTF-8"?>
<svg width="83px" height="83px" viewBox="0 0 83 83" version="1.1" xmlns="http://www.w3.org/2000/svg" xmlns:xlink="http://www.w3.org/1999/xlink">
    <!-- Generator: Sketch 53.1 (72631) - https://sketchapp.com -->
    <title>Artboard</title>
    <desc>Created with Sketch.</desc>
    <g id="Artboard" stroke="none" stroke-width="1" fill="none" fill-rule="evenodd">
        <g id="key" transform="translate(16.000000, 1.000000)" fill="#64A3C1" fill-rule="nonzero">
            <path d="M15.5288461,7.08333333 C12.4205319,7.05344432 9.91652292,4.52512458 9.91666662,1.41666667 C9.91666662,0.634263271 9.28240335,0 8.49999996,0 C7.71759656,0 7.08333329,0.634263271 7.08333329,1.41666667 C7.08333329,4.54628025 4.54628021,7.08333333 1.41666662,7.08333333 C0.634263245,7.08333336 7.10542736e-15,7.71759662 7.10542736e-15,8.5 C7.10542736e-15,9.28240338 0.634263245,9.91666664 1.41666662,9.91666667 C4.54628021,9.91666667 7.08333329,12.4537198 7.08333329,15.5833333 C7.08333329,16.3657367 7.71759656,17 8.49999996,17 C9.28240335,17 9.91666662,16.3657367 9.91666662,15.5833333 C9.91666662,12.4537198 12.4537197,9.91666667 15.5833333,9.91666667 C16.0894596,9.91666668 16.5571395,9.64665154 16.8102026,9.20833335 C17.0632658,8.77001515 17.0632658,8.22998485 16.8102026,7.79166665 C16.5571395,7.35334846 16.0894596,7.08333332 15.5833333,7.08333333 L15.5288461,7.08333333 Z M8.44551278,10.8974359 C7.812291,9.94800677 6.99750601,9.13322178 6.04807688,8.5 C6.99750601,7.86677822 7.812291,7.05199323 8.44551278,6.1025641 C9.07873456,7.05199323 9.89351955,7.86677822 10.8429487,8.5 C9.89351955,9.13322178 9.07873456,9.94800677 8.44551278,10.8974359 L8.44551278,10.8974359 Z" id="Shape"></path>
            <path d="M40.5353527,16.3999122 L40.5353527,5.46663728 L29.8036913,5.46663728 C29.8036912,2.44749685 27.401327,2.3343026e-16 24.4378606,0 C21.4743942,0 19.07203,2.44749685 19.0720299,5.46663728 L19.0720299,47.3074393 C11.6827824,49.7101277 6.75735473,56.8185476 7.00922969,64.716577 C7.36955247,74.0169238 14.6233313,81.5072129 23.7464939,81.9995615 L24.4481795,81.9995615 C33.0742352,82.0608796 40.4465828,75.6841828 41.7867856,67.00257 C43.1269885,58.3209571 38.0317959,49.9466191 29.8036913,47.3074393 L29.8036913,30.0665058 L40.5353527,30.0665058 L40.5353527,19.1332309 L29.8036913,19.1332309 L29.8036913,16.3999122 L40.5353527,16.3999122 Z M37.8524373,21.8665496 L37.8524373,27.3331871 L27.1207759,27.3331871 L27.1207759,49.4099921 L28.1526664,49.6728113 C35.4627376,51.5823806 40.1778894,58.8066326 39.0786894,66.4129599 C37.9794894,74.0192872 31.420734,79.5525423 23.8806397,79.2347045 C16.1758153,78.8180762 10.0473898,72.497099 9.73342067,64.6429876 C9.51290061,57.6474851 14.0893348,51.4338506 20.7436925,49.6938368 L21.775583,49.4310177 L21.775583,5.46663728 C21.775583,3.95706704 22.9767652,2.73331856 24.4584984,2.73331856 C25.9402316,2.73331856 27.1414137,3.95706704 27.1414137,5.46663728 L27.1414137,8.19995601 L37.8730751,8.19995601 L37.8730751,13.6665935 L27.1207759,13.6665935 L27.1207759,21.8665496 L37.8524373,21.8665496 Z" id="Shape"></path>
            <path d="M24.5,65 C21.4624339,65 19,67.4624339 19,70.5 C19,73.5375661 21.4624339,76 24.5,76 C27.5375661,76 30,73.5375661 30,70.5 C30,67.4624339 27.5375661,65 24.5,65 L24.5,65 Z M24.5,73.25 C22.9812169,73.25 21.75,72.0187831 21.75,70.5 C21.75,68.9812169 22.9812169,67.75 24.5,67.75 C26.0187831,67.75 27.25,68.9812169 27.25,70.5 C27.2528248,71.2302077 26.9640007,71.9313234 26.4476621,72.4476621 C25.9313234,72.9640007 25.2302077,73.2528248 24.5,73.25 Z" id="Shape"></path>
            <path d="M24,54.6666667 C29.5554012,54.6779481 34.0559155,58.8500225 34.0680851,64 L37,64 C36.9878191,57.3772659 31.1994174,52.011292 24.0553191,52 L24,54.6666667 Z" id="Path"></path>
            <path d="M19.9791667,52 C17.4637933,53.0935432 15.360496,55.0478265 14,57.5555556 L16.34375,59 C17.4076879,57.0520082 19.0443334,55.5327716 21,54.6777778 L19.9791667,52 Z" id="Path"></path>
        </g>
    </g>
</svg>