<?xml version="1.0" encoding="UTF-8"?>
<svg width="250px" height="156px" viewBox="0 0 250 156" version="1.1" xmlns="http://www.w3.org/2000/svg" xmlns:xlink="http://www.w3.org/1999/xlink">
    <!-- Generator: Sketch 53.1 (72631) - https://sketchapp.com -->
    <title>Artboard</title>
    <desc>Created with Sketch.</desc>
    <g id="Artboard" stroke="none" stroke-width="1" fill="none" fill-rule="evenodd">
        <g id="oneColor_logo" transform="translate(3.000000, 2.000000)" fill="#286E90" fill-rule="nonzero">
            <path d="M131.716,73.4343 L82.196,149.9873 C76.422,151.1373 70.124,151.7123 63.302,151.7123 C42.949,151.7123 27.312,146.5053 16.387,136.0913 C5.462,125.6773 0,110.7043 0,91.1663 L0,0.3993 L40.533,0.3993 L40.533,88.0013 C40.533,98.5533 42.507,106.2103 46.455,110.9743 C50.403,115.7403 56.222,118.1223 63.914,118.1223 C72.15,118.1223 78.122,115.7573 81.833,111.0263 C85.542,106.2953 87.398,98.5533 87.398,87.7973 L87.398,5.1013 L131.716,73.4343 Z M213.344318,147.624678 C213.901946,147.466791 214.444343,147.272549 214.9699,147.0397 C216.5549,146.3687 217.9719,145.2447 219.3029,143.9037 C222.6019,140.3347 223.1719,134.4517 221.2259,130.0607 C219.0059,125.0197 213.8699,122.1437 208.4589,122.4687 C212.0309,119.4187 213.6369,115.2867 213.0249,110.5717 C212.4749,106.3107 209.0299,101.9847 204.9709,100.6437 C200.7219,98.9997 195.7319,100.0817 192.4359,103.0447 L192.2659,103.0447 C193.7029,99.2157 192.9429,94.4787 190.7229,91.2997 C187.8689,87.4707 183.5769,85.5237 179.0329,86.1077 C174.6349,86.5617 170.3019,90.1097 168.8009,94.3937 C168.3579,93.5067 168.0189,92.5547 167.4479,91.7107 C164.4469,87.2327 159.4789,85.2657 154.2569,86.3897 C150.3459,87.2117 146.4989,90.7367 145.3159,94.6947 C144.3229,97.2047 144.7019,100.7087 145.4209,103.1517 C141.9539,99.8007 136.3739,98.7187 131.9559,100.7087 C128.0869,102.3737 125.0649,106.4407 124.5359,110.6137 C123.9639,115.4167 125.6349,119.8937 129.6099,122.5987 C125.3809,122.1227 121.5759,123.3977 118.6159,126.4477 C115.5509,129.8217 114.1989,134.6027 115.5929,139.2317 C116.682713,143.076779 120.046699,146.398854 123.844532,147.624678 L96.1114744,147.624678 L144.545127,72.9270037 L99.0075072,1.62467812 L142.747589,1.62467812 L169.111474,46.762845 L194.476727,1.62467812 L239.515031,1.62467812 L193.278369,76.0227629 L243.010243,147.624678 L213.344318,147.624678 Z M177.696867,138.134849 L186.574397,117.876468 L190.782906,108.4432 C192.474503,105.400466 195.591747,103.496706 198.956883,103.500612 C202.180921,103.556888 205.01084,105.169831 206.774675,108.003704 C208.59127,110.838498 208.615173,115.421552 206.700938,118.227778 C205.841851,119.542047 204.583812,120.705625 203.297093,121.528078 L177.696867,138.134849 Z M174.896416,93.6147181 C177.202845,92.2219574 180.64937,91.956351 183.118131,93.2353132 C186.334219,94.6806485 188.483701,98.2455815 188.410422,101.803438 C188.348363,103.11727 188.079083,104.457921 187.543628,105.614135 L174.264627,134.246738 L173.828324,131.05786 L170.971907,107.104711 C170.869156,105.645658 170.417708,101.894337 170.417708,101.894337 C170.316234,98.4528153 171.927911,95.3881588 174.896416,93.6147181 Z M160.348539,91.6944701 C163.272546,92.3949432 166.008847,95.1281307 166.728117,98.0484794 C167.070357,99.1422283 167.017767,100.457096 166.950613,101.651928 L161.78627,132.3993 L149.693794,103.992629 C148.393605,100.953034 148.941351,96.9555203 151.164697,94.4955726 C153.541767,91.9163787 156.893777,90.8234196 160.348539,91.6944701 Z M130.06529,112.456907 C130.422142,109.111814 133.05593,105.836796 136.199279,104.825938 C139.427017,103.815886 142.943289,104.617323 145.288543,107.038548 C146.273904,107.980136 146.885534,109.094899 147.394288,110.244297 L159,138.3993 L133.276953,120.766882 C130.813553,118.624347 129.709242,115.767365 130.06529,112.456907 Z M121.973377,139.190842 C120.368836,136.124018 120.786421,131.771053 122.942681,129.051071 C125.292127,126.281304 128.69355,124.888122 132.118594,125.571022 C133.514765,125.7934 134.685691,126.384195 135.786598,127.064606 L162,144.3993 L129.524503,144.392662 C126.155136,144.016777 123.557671,142.230284 121.973377,139.190842 Z M216.074032,138.464973 C214.566993,141.344444 212.097789,143.036909 208.891116,143.393012 L178,143.3993 L202.933572,126.976958 C203.981599,126.332358 205.095428,125.772658 206.422715,125.561984 C209.68155,124.915027 212.917112,126.234883 215.152796,128.858873 C217.20311,131.435698 217.600333,135.55956 216.074032,138.464973 Z" id="nbcuxlab"></path>
        </g>
    </g>
</svg>