<?xml version="1.0" encoding="UTF-8"?>
<svg width="70px" height="70px" viewBox="0 0 70 70" version="1.1" xmlns="http://www.w3.org/2000/svg" xmlns:xlink="http://www.w3.org/1999/xlink">
    <!-- Generator: Sketch 53.1 (72631) - https://sketchapp.com -->
    <title>Artboard</title>
    <desc>Created with Sketch.</desc>
    <g id="Artboard" stroke="none" stroke-width="1" fill="none" fill-rule="evenodd">
        <g id="noun_problem_2104842" fill="#64A3C1" fill-rule="nonzero">
            <path d="M42.91,9.64 C37.0596847,9.6399974 32.3155192,14.3796873 32.31,20.23 C32.31,21.6107119 33.4292881,22.73 34.81,22.73 C36.1907119,22.73 37.31,21.6107119 37.31,20.23 C37.3059538,17.9519719 38.6750909,15.8960025 40.7785542,15.0214338 C42.8820175,14.1468651 45.3052192,14.6260725 46.917462,16.2354517 C48.5297049,17.8448309 49.0132195,20.2671769 48.1423916,22.3721917 C47.2715638,24.4772064 45.2180317,25.8499964 42.94,25.85 C42.2787956,25.8473284 41.6439009,26.108809 41.1763549,26.5763549 C40.708809,27.0439009 40.4473284,27.6787956 40.45,28.34 L40.45,28.48 C40.45,28.48 40.45,28.56 40.45,28.61 L40.45,33.79 C40.45,35.1707119 41.5692881,36.29 42.95,36.29 C44.3307119,36.29 45.45,35.1707119 45.45,33.79 L45.45,30.5 C50.6613052,29.2320045 54.099396,24.265136 53.4511206,18.94111 C52.8028451,13.6170839 48.2733133,9.62038613 42.91,9.64 L42.91,9.64 Z" id="Path"></path>
            <path d="M42.91,37.21 C42.2505322,37.2073408 41.6171624,37.4674514 41.1499071,37.9328302 C40.6826519,38.3982089 40.4199946,39.0305268 40.42,39.69 L40.42,41.23 C40.42,42.6107119 41.5392881,43.73 42.92,43.73 C44.3007119,43.73 45.42,42.6107119 45.42,41.23 L45.42,39.69 C45.4200485,39.0270321 45.1546494,38.3916451 44.6830505,37.9256828 C44.2114516,37.4597205 43.5729194,37.2019802 42.91,37.21 L42.91,37.21 Z" id="Path"></path>
            <path d="M42.91,-1.96101002e-15 C32.5118049,-0.0174270704 23.0538098,6.0167923 18.6876362,15.4539155 C14.3214627,24.8910387 15.8452007,36.0060599 22.59,43.92 L16.19,50.3 C13.3641797,49.015144 10.0414194,49.572893 7.79,51.71 L2.18,57.27 C-0.581907469,60.2052267 -0.513069993,64.8034527 2.33546338,67.6546887 C5.18399676,70.5059247 9.78215541,70.5791227 12.72,67.82 L18.29,62.25 C20.528765,60.0275851 21.1074285,56.6279372 19.73,53.79 L26.14,47.4 C35.2546924,54.7777683 48.119112,55.3364133 57.8390542,48.7765501 C67.5589964,42.2166868 71.8538112,30.0774964 68.4218532,18.8645242 C64.9898953,7.65155192 54.6364259,-0.00423345603 42.91,-1.96101002e-15 Z M14.79,58.74 L9.21,64.3 C8.2281693,65.2384201 6.6818307,65.2384201 5.7,64.3 C5.23159622,63.8361157 4.96806645,63.2042349 4.96806645,62.545 C4.96806645,61.8857651 5.23159622,61.2538843 5.7,60.79 L11.26,55.23 C11.8870011,54.5994262 12.8027811,54.3512531 13.6623746,54.5789651 C14.5219681,54.8066771 15.1947823,55.4756794 15.4273746,56.3339651 C15.659967,57.1922509 15.4170011,58.1094262 14.79,58.74 Z M42.91,48.38 C34.127306,48.3840445 26.2073513,43.0960558 22.8444912,34.9826777 C19.4816311,26.8692997 21.3384109,17.5290173 27.5487141,11.3187141 C33.7590173,5.10841091 43.0992997,3.25163106 51.2126777,6.61449116 C59.3260558,9.97735126 64.6140445,17.897306 64.61,26.68 C64.5934752,38.6577276 54.8877276,48.3634752 42.91,48.38 Z" id="Shape"></path>
        </g>
    </g>
</svg>