<svg xmlns="http://www.w3.org/2000/svg" viewBox="0 0 243.01 151.31"><defs><style>.cls-1{fill:#e3c200;}</style></defs><title>nbc</title><g id="Layer_2" data-name="Layer 2"><g id="Layer_1-2" data-name="Layer 1"><g id="Artboard"><g id="oneColor_logo" data-name="oneColor logo"><path id="nbcuxlab" class="cls-1" d="M131.72,73,82.2,149.59a97,97,0,0,1-18.9,1.72q-30.52,0-46.91-15.62T0,90.77V0H40.53V87.6q0,15.83,5.93,23t17.45,7.15q12.36,0,17.92-7.09T87.4,87.4V4.7Zm81.62,74.19a13.19,13.19,0,0,0,1.63-.59,13.8,13.8,0,0,0,4.33-3.14c3.3-3.56,3.87-9.45,1.93-13.84a13,13,0,0,0-12.77-7.59A12.76,12.76,0,0,0,205,100.24a12.41,12.41,0,0,0-12.53,2.41h-.17a13.34,13.34,0,0,0-1.55-11.75A12.41,12.41,0,0,0,179,85.71,12.92,12.92,0,0,0,168.8,94a23.18,23.18,0,0,0-1.35-2.68A12.32,12.32,0,0,0,154.26,86a12.72,12.72,0,0,0-8.94,8.31c-1,2.51-.62,6,.1,8.45A12.52,12.52,0,0,0,132,100.31a13,13,0,0,0-7.42,9.9c-.58,4.81,1.09,9.28,5.07,12a12.75,12.75,0,0,0-11,3.85,13.29,13.29,0,0,0-3,12.78,13,13,0,0,0,8.25,8.4H96.11l48.44-74.7L99,1.23h43.74l26.36,45.13L194.48,1.23h45L193.28,75.62,243,147.23Zm-35.64-9.49,8.87-20.26,4.21-9.44A9.42,9.42,0,0,1,199,103.1a9.24,9.24,0,0,1,7.81,4.5,10,10,0,0,1-.07,10.23,11.74,11.74,0,0,1-3.4,3.3Zm-2.8-44.52a8.91,8.91,0,0,1,8.22-.38,9.39,9.39,0,0,1,5.29,8.56,10.16,10.16,0,0,1-.87,3.81l-13.28,28.64-.43-3.19-2.86-24c-.1-1.46-.55-5.21-.55-5.21A9.1,9.1,0,0,1,174.9,93.22ZM160.35,91.3a9.23,9.23,0,0,1,6.38,6.35,10.52,10.52,0,0,1,.22,3.6L161.79,132l-12.1-28.41a9.29,9.29,0,0,1,1.47-9.49A9.17,9.17,0,0,1,160.35,91.3Zm-30.28,20.76a9.45,9.45,0,0,1,6.13-7.63,8.9,8.9,0,0,1,9.09,2.21,9.65,9.65,0,0,1,2.1,3.2L159,138l-25.72-17.63A9.21,9.21,0,0,1,130.07,112.06ZM122,138.79a9.89,9.89,0,0,1,1-10.14,9.58,9.58,0,0,1,9.18-3.48,9.72,9.72,0,0,1,3.67,1.5L162,144H129.52A9.35,9.35,0,0,1,122,138.79Zm94.1-.72a8.84,8.84,0,0,1-7.18,4.92H178l24.93-16.42a9.38,9.38,0,0,1,3.49-1.42,9.14,9.14,0,0,1,8.73,3.3A9.32,9.32,0,0,1,216.07,138.07Z"/></g></g></g></g></svg>