<svg viewBox="0 0 69.58 70" xmlns="http://www.w3.org/2000/svg"><g fill="#64A3C1" transform="translate(-.21)"><path d="m43.12 9.64a10.6 10.6 0 0 0 -10.6 10.59 2.49 2.49 0 1 0 5 0 5.63 5.63 0 1 1 5.63 5.62 2.48 2.48 0 0 0 -2.49 2.49v.14s0 .08 0 .13v5.18a2.49 2.49 0 0 0 5 0v-3.29a10.58 10.58 0 0 0 -2.54-20.86z"/><path d="m43.12 37.21a2.48 2.48 0 0 0 -2.49 2.48v1.54a2.49 2.49 0 1 0 5 0v-1.54a2.48 2.48 0 0 0 -2.51-2.48z"/><path d="m43.12 0a26.64 26.64 0 0 0 -20.32 43.92l-6.4 6.38a7.62 7.62 0 0 0 -8.4 1.41l-5.61 5.56a7.46 7.46 0 0 0 10.54 10.55l5.57-5.57a7.38 7.38 0 0 0 1.44-8.46l6.41-6.39a26.67 26.67 0 1 0 16.77-47.4zm-28.12 58.74-5.58 5.56a2.54 2.54 0 0 1 -3.51 0 2.47 2.47 0 0 1 0-3.51l5.56-5.56a2.48 2.48 0 1 1 3.53 3.51zm28.12-10.36a21.71 21.71 0 1 1 21.7-21.7 21.73 21.73 0 0 1 -21.7 21.7z"/></g></svg>
