<?xml version="1.0" encoding="UTF-8"?>
<svg width="88px" height="88px" viewBox="0 0 88 88" version="1.1" xmlns="http://www.w3.org/2000/svg" xmlns:xlink="http://www.w3.org/1999/xlink">
    <!-- Generator: Sketch 53.1 (72631) - https://sketchapp.com -->
    <title>person</title>
    <desc>Created with Sketch.</desc>
    <g id="person" stroke="none" stroke-width="1" fill="none" fill-rule="evenodd">
        <g id="noun_student_1618019" transform="translate(10.000000, 1.000000)" fill="#64A3C1" fill-rule="nonzero">
            <path d="M50.2059368,48.4114778 L50.3158228,48.2148747 C50.5682342,47.7597547 50.4627001,47.1916695 50.0655873,46.8571183 L45.5939885,43.0988487 C45.3676886,42.9065904 45.07067,42.8186078 44.7769153,42.8501077 C44.4820727,42.8816077 44.2122536,43.0325902 44.0316489,43.2682967 L43.3690689,44.1285711 L43.3690689,39.5513028 C48.1289825,36.2166532 51.2743334,30.585766 51.3080608,24.2032248 C52.5973174,17.5382704 51.8661947,12.5004512 49.1353642,9.22554279 C46.6917606,6.29604765 43.3962684,5.71818654 42.0896041,5.60522121 C36.8847066,-0.824026748 30.8475041,-0.579630602 26.6609561,0.786815408 C20.0601799,2.94184632 13.6987594,9.5894215 13.6574161,11.3121428 C13.6498003,11.5999871 13.7575103,11.8780556 13.9566107,12.0876932 C15.4199441,13.6246734 15.6299243,19.1719228 15.4145042,23.0236061 C15.4123283,23.0800888 15.3981845,23.1376576 15.4058004,23.1930541 C15.3873047,23.5058812 15.3666331,23.8111048 15.3426975,24.0956905 C15.3426975,30.7541278 18.7382839,36.591394 23.8191517,39.8891126 L23.8191517,44.197002 L23.1021727,43.2661243 C22.92048,43.0304178 22.6517489,42.8805215 22.3569062,42.8479353 C22.0653275,42.8186078 21.7672209,42.9055042 21.5398331,43.0966763 L17.0682342,46.8549459 C16.6700335,47.1894971 16.5655873,47.7575823 16.8179988,48.2127023 L16.9235329,48.401702 C7.5375272,48.7753565 0,57.3552905 0,67.8751869 L0,85.9137949 C0,86.5144663 0.487415154,87 1.08798025,87 L65.9120197,87 C66.5125848,87 67,86.5144663 67,85.9137949 L67,67.8784455 C66.9945601,57.4074284 59.5288396,48.8611667 50.2059368,48.4114778 Z M45.0608782,45.4906723 L47.9777532,47.9433234 L40.2672372,61.8271969 L35.5279952,57.8614621 L45.0608782,45.4906723 Z M29.697509,2.29120946 C33.9297522,1.679676 37.6267091,3.37198353 40.6774057,7.32794249 C40.883034,7.59514894 41.2061641,7.75156248 41.544526,7.75156248 C41.545614,7.75156248 41.545614,7.75156248 41.546702,7.75156248 L41.546702,7.75156248 C41.5945731,7.75156248 45.1152772,7.77980381 47.4816342,10.640868 C49.0602936,12.5504166 49.7968562,15.2833086 49.7261375,18.7635097 C46.7972947,12.552589 41.4161443,10.7310231 41.1365334,10.6397818 C40.8318989,10.539851 40.496801,10.582213 40.2248059,10.7516609 C39.9528109,10.9211089 39.7689422,11.2024361 39.724335,11.519608 C39.7232471,11.5261252 39.5807216,12.1246242 38.7962879,12.6872784 C37.6767562,13.4943288 35.2581761,14.2568448 30.1087655,13.3140188 C23.6657465,12.1398311 19.7686012,15.4896876 17.6263681,18.5180274 C17.5132181,15.8546525 17.1117534,12.9110367 16.0041895,11.1980912 C17.2401351,9.32764607 23.2349063,3.22751826 29.697509,2.29120946 Z M17.5121302,24.1891042 C17.5251859,24.0305182 17.5523854,23.6731568 17.5806729,23.1984851 C18.0463285,21.8483322 21.1764477,13.8951385 29.7160047,15.4505842 C34.4563346,16.3195483 37.9389594,15.9795661 40.0670488,14.4501893 C40.6850216,14.0059314 41.0941022,13.5236564 41.3639213,13.0956915 C43.3364295,14.0732761 47.9538177,17.0831504 49.1255724,24.1782421 C49.0831412,33.2219857 42.0123575,40.5658184 33.3226592,40.5658184 C24.6068494,40.5647322 17.5164821,33.1774513 17.5121302,24.1891042 Z M25.9918483,41.1013175 C28.2330876,42.1440744 30.7104186,42.7371424 33.3226592,42.7371424 C36.145968,42.7371424 38.8104316,42.0408849 41.1898444,40.8330248 L41.1898444,46.9516181 L33.5641908,56.8469466 L25.9918483,47.0222215 L25.9918483,41.1013175 Z M22.0675035,45.4906723 L31.6014745,57.8614621 L26.8611445,61.8271969 L19.1506284,47.9433234 L22.0675035,45.4906723 Z M2.17052061,67.8784455 C2.17052061,58.3187545 9.0694034,50.541526 17.5491215,50.541526 L18.1050794,50.541526 L25.5979994,64.0332795 C25.7557566,64.316779 26.0310156,64.5144683 26.3508818,64.5742096 C26.4172485,64.5861579 26.4836153,64.5926751 26.5499821,64.5926751 C26.8034815,64.5926751 27.051541,64.5046925 27.2484655,64.3395893 L32.3587087,60.0631999 L32.3587087,84.8275898 L16.2653048,84.8275898 L16.2653048,78.0322907 C16.2653048,77.4316193 15.7778896,76.9460856 15.1773245,76.9460856 C14.5767594,76.9460856 14.0893443,77.4316193 14.0893443,78.0322907 L14.0893443,84.8275898 L2.17052061,84.8275898 L2.17052061,67.8784455 Z M64.8185996,84.8275898 L52.6310448,84.8275898 L52.6310448,78.0322907 C52.6310448,77.4316193 52.1436296,76.9460856 51.5430645,76.9460856 C50.9424994,76.9460856 50.4550843,77.4316193 50.4550843,78.0322907 L50.4550843,84.8275898 L34.5346692,84.8275898 L34.5346692,59.8655105 L39.8799162,64.3385031 C40.0779286,64.5036063 40.3259881,64.5915889 40.5794875,64.5915889 C40.6458543,64.5915889 40.7122211,64.5850717 40.7785879,64.5731234 C41.0973661,64.5133821 41.3737131,64.3156928 41.5314702,64.0321933 L49.0243902,50.5404398 L49.4421747,50.5404398 C57.9218928,50.5404398 64.8207756,58.3176683 64.8207756,67.8773593 L64.8207756,84.8275898 L64.8185996,84.8275898 Z" id="Shape"></path>
        </g>
    </g>
</svg>