<?xml version="1.0" encoding="UTF-8"?>
<svg width="79px" height="79px" viewBox="0 0 79 79" version="1.1" xmlns="http://www.w3.org/2000/svg" xmlns:xlink="http://www.w3.org/1999/xlink">
    <!-- Generator: Sketch 53.1 (72631) - https://sketchapp.com -->
    <title>pipeline</title>
    <desc>Created with Sketch.</desc>
    <g id="pipeline" stroke="none" stroke-width="1" fill="none" fill-rule="evenodd">
        <g id="noun_pipeline_2638023" transform="translate(6.000000, 1.000000)" fill="#E3C200" fill-rule="nonzero">
            <path d="M26.3928223,28.3585739 L26.3928223,42.6312179 L26.3928223,49.7675094 L26.3928223,53.3356857 L26.3928223,55.1197433 C26.3890992,55.2274093 26.4031983,55.53582 26.4112549,55.7507247 L26.4447632,56.4563521 C26.4708252,56.92675 26.491272,57.3965376 26.5714722,57.8636397 C27.0028687,61.1497725 28.2156983,64.3474043 30.1156617,67.0382613 C32.0170899,69.7249068 34.5215455,71.9824752 37.4525147,73.5160445 C40.378296,75.0495528 43.7039185,75.8802413 47.0048218,75.8940963 C50.305481,75.8950729 53.6339722,75.0714645 56.5644531,73.5477218 C59.5050659,72.0300216 62.0128784,69.7744064 63.9231567,67.0953292 C65.8381347,64.4149093 67.055603,61.2178878 67.4988403,57.9340743 C67.6403808,57.1148604 67.6339111,56.2866134 67.6804199,55.4616622 L67.6876831,53.8174972 L67.6876831,50.6863326 L67.6876831,44.4240645 L67.6876831,5.8902521 C67.6876831,3.6011896 64.3458862,1.8077326 60.0802612,1.8077326 C55.8146362,1.8077326 52.4733276,3.6011896 52.4733276,5.8902521 L52.4733276,47.9200983 L52.4733276,54.6194391 L52.4733276,55.0381403 L52.4733276,55.2474909 L52.463684,55.3347101 C52.4520873,55.4507379 52.4457397,55.5664606 52.444641,55.6828546 C52.4393309,55.9157648 52.3730468,56.1364679 52.352661,56.3655328 C52.224243,56.8026666 52.1221922,57.2546319 51.8855589,57.6589288 C51.4940184,58.504693 50.7956541,59.2087335 50.0422972,59.7596368 C49.2444456,60.2483453 48.3815916,60.6119317 47.4542235,60.652398 C46.5234374,60.7035455 45.5943602,60.5806207 44.7666625,60.1586236 C44.333496,59.9890069 43.9626464,59.6872491 43.5810546,59.4135674 C43.2389525,59.0894707 42.8834838,58.767022 42.6253051,58.3710869 C42.0549316,57.6122978 41.7697143,56.7178276 41.6383056,55.8148125 L41.6277465,55.4662407 C41.6208495,55.3492973 41.6013183,55.2836235 41.6071777,54.9361504 L41.6071777,53.2612847 L41.6071777,49.9116753 L41.6071777,23.1144352 L41.6071777,21.4396305 L41.6071777,21.0209293 L41.5997924,20.5228214 L41.5364379,19.1982364 C41.4989013,18.3157901 41.3177489,17.438898 41.1799926,16.5651187 C40.956665,15.7077579 40.783142,14.8303165 40.4603271,14.0040225 C39.904602,12.3143252 39.0593261,10.7467593 38.1072387,9.2639712 C37.0954589,7.8243951 35.972412,6.4517144 34.6324462,5.3062066 C32.0230712,2.9431085 28.7422484,1.3272027 25.2789916,0.5535821 C21.8043212,-0.1833564 18.175598,-0.003913 14.7749022,1.0433892 C7.9937743,3.1872491 2.5512694,8.8865288 0.9151,15.8524111 C0.6707152,16.7076967 0.5766601,17.5934389 0.4420775,18.4695986 C0.3886107,18.9089297 0.3771971,19.3510073 0.3507079,19.7924135 L0.3221434,20.4548281 L0.3123167,20.7685488 L0.3123167,20.9778994 L0.3123167,24.32757 L0.3123167,31.0268479 L0.3123167,44.0090256 C0.3123167,46.2980881 3.6536253,48.0915451 7.9192503,48.0915451 C12.1848753,48.0915451 15.5266722,46.2980881 15.5266722,44.0090256 L15.5266722,29.278801 L15.5266722,22.1425114 L15.5266722,21.2504826 L15.5266722,20.8044377 C15.5277708,20.6658879 15.5392454,20.6595402 15.5427244,20.5806828 C15.5527952,20.4572087 15.5569456,20.3337956 15.5551756,20.2092839 L15.6157225,19.8475285 C15.6204832,19.5989933 15.7418211,19.3773747 15.7726439,19.1338444 C15.8840331,18.9137516 15.9189452,18.6659489 16.0542601,18.454401 C16.89093,16.6409855 18.8157957,15.3315372 20.7684935,15.3243351 C21.0159911,15.2764835 21.2619627,15.3577213 21.5108641,15.3338566 C21.7467039,15.4047795 22.0004881,15.3784123 22.22937,15.4723454 C22.7113646,15.5582829 23.1534423,15.7885075 23.5949706,16.0082341 C24.0332641,16.2462102 24.4164428,16.5781804 24.7934569,16.9120427 C25.1286009,17.2883855 25.455078,17.6751653 25.6957396,18.1116887 C25.9119261,18.5546208 26.1450194,18.9957219 26.2286986,19.4783269 C26.3228148,19.7071477 26.2955321,19.9612371 26.3645018,20.1974431 C26.3623656,20.3220159 26.3660887,20.44549 26.3757933,20.5689641 L26.3928221,20.7762395 L26.3928221,21.2222844 L26.3928221,28.3585739 L26.3928223,28.3585739 Z M60.0802612,2.8077326 C63.6618042,2.8077326 66.6876831,4.2193537 66.6876831,5.8902521 C66.6876831,6.8386774 65.7114258,7.7026911 64.2133789,8.2733087 C64.631897,7.8756036 64.8864136,7.4152154 64.8864136,6.9122247 C64.8864136,5.4146661 62.7750855,4.2413263 60.0802613,4.2413263 C57.3854371,4.2413263 55.274109,5.4146661 55.274109,6.9122247 C55.274109,7.4152154 55.5286256,7.8755426 55.9470216,8.2731866 C54.4492799,7.7025689 53.4733278,6.8386163 53.4733278,5.890252 C53.4733276,4.2193537 56.4987183,2.8077326 60.0802612,2.8077326 Z M7.9192505,47.0915451 C4.3377075,47.0915451 1.3123169,45.679924 1.3123169,44.0090256 C1.3123169,43.0606613 2.288269,42.1967087 3.7860107,41.626091 C3.3676147,42.023735 3.1130981,42.4840622 3.1130981,42.9870529 C3.1130981,44.4846115 5.2244262,45.6579513 7.9192504,45.6579513 C10.6140746,45.6579513 12.7254027,44.4846115 12.7254027,42.9870529 C12.7254027,42.4840622 12.4708861,42.023674 12.052368,41.6259689 C13.5504149,42.1965866 14.5266722,43.0606002 14.5266722,44.0090255 C14.5266724,45.679924 11.5007935,47.0915451 7.9192505,47.0915451 Z M18.3323364,5.5641413 C15.4240112,6.0605402 12.6683349,7.4292536 10.5228271,9.4360295 C9.442871,10.4312077 8.4908447,11.57403 7.7484741,12.846674 C6.9853515,14.1040593 6.397644,15.4766789 6.0458984,16.9105168 C5.4661255,17.1291447 4.8694458,17.501093 4.3460083,18.0454045 C4.6036987,16.4219914 5.098938,14.8284245 5.8390503,13.362177 C6.5583496,11.8871404 7.486084,10.5120793 8.6116943,9.3227483 C10.8219604,6.9125911 13.7651977,5.1617366 16.9678344,4.3882991 C18.5656127,3.9966365 20.2199706,3.8250056 21.8580932,3.9329158 C23.4978637,4.0030452 25.133728,4.3403255 26.6749267,4.9115535 C28.2276611,5.4571468 29.6851806,6.2559139 30.9923705,7.2410823 C32.3140868,8.2090999 33.4848021,9.3799382 34.4536132,10.7010442 C35.4397582,12.0075628 36.2382812,13.4652044 36.7847289,15.0175725 C37.0944823,15.7811833 37.2664184,16.5906316 37.4679564,17.3876287 C37.5942381,18.2000677 37.7517088,19.0118352 37.7652586,19.8340398 C37.8209227,20.7322942 37.804077,21.3053533 37.8063963,21.9445134 L37.8063963,23.8513127 L37.8063963,27.6649705 L37.8063963,42.919487 L37.8063963,49.9116745 L37.8063963,53.4077072 L37.8063963,55.1557541 C37.842346,55.6198044 37.8212278,55.9983444 37.8928221,56.4153366 C38.1161497,58.1930466 38.8825682,59.8959274 40.069763,61.2638473 C41.2533568,62.6321334 42.8385618,63.6513595 44.5632322,64.127922 C46.2840574,64.6249313 48.1662595,64.5680465 49.8680418,64.0285568 C50.7227171,63.7532272 51.5236204,63.3281173 52.2750853,62.8306198 C53.0219115,62.3195114 53.6699828,61.6753464 54.2479247,60.9826584 C55.3781737,59.5659104 56.0704955,57.8402023 56.2307128,56.0526657 L56.2650756,55.3785324 C56.283142,55.1689377 56.2700805,54.7729416 56.2741088,54.4793014 L56.2741088,52.572441 L56.2741088,48.7588424 L56.2741088,33.5043259 C56.7239379,33.9833908 57.2019652,34.3821946 57.7062377,34.683281 L57.7062377,49.6430588 L57.7062377,53.382988 L57.7059936,55.2520066 C57.6602783,55.7593308 57.6883544,56.2745286 57.5804443,56.7736741 C57.3052978,58.7882005 56.4003296,60.709282 55.0537109,62.2444993 C53.7125854,63.7888108 51.9177246,64.9301682 49.9652099,65.4913255 C48.9921264,65.7982713 47.9674682,65.881035 46.9507446,65.9083177 C45.9296264,65.8866502 44.9193725,65.731682 43.9418335,65.4479295 C42.9778442,65.125847 42.0408936,64.7095872 41.1883545,64.1436082 C40.350647,63.5621263 39.5633545,62.8971482 38.9050903,62.1122972 C37.5892944,60.5455858 36.7225952,58.6185228 36.472229,56.5970384 C36.3924561,56.1204759 36.4098511,55.6636888 36.3742676,55.1557542 L36.3742676,53.4077073 L36.3742676,49.9116746 L36.3742676,42.919487 L36.3742676,27.9597092 L36.3605957,20.4330387 C36.3461914,18.9574528 36.065918,17.4939518 35.6474609,16.0806827 C35.1879882,14.6760196 34.5288086,13.3472232 33.7208252,12.1159 C32.8783569,10.9074649 31.8825073,9.8143863 30.7606812,8.8611383 C29.612732,7.9398737 28.3526612,7.1613092 27.0015259,6.5660333 C24.2799072,5.4182673 21.2398071,5.0438166 18.3323364,5.5641413 Z" id="Shape"></path>
        </g>
    </g>
</svg>