<svg xmlns="http://www.w3.org/2000/svg" viewBox="0 0 69.44 69.84"><defs><style>.cls-1{fill:#e3c200;}</style></defs><title>problem</title><g id="Layer_2" data-name="Layer 2"><g id="Layer_1-2" data-name="Layer 1"><path class="cls-1" d="M42.82,9.55a10.6,10.6,0,0,0-10.6,10.59,2.5,2.5,0,0,0,5,0,5.63,5.63,0,1,1,5.64,5.62h0a2.47,2.47,0,0,0-2.49,2.47V33.7a2.5,2.5,0,0,0,5,0V30.41A10.58,10.58,0,0,0,42.82,9.55Z"/><path class="cls-1" d="M42.82,37.12a2.47,2.47,0,0,0-2.49,2.47h0v1.54a2.5,2.5,0,0,0,5,0V39.6a2.48,2.48,0,0,0-2.48-2.48Z"/><path class="cls-1" d="M59.55,5.94a26.66,26.66,0,0,0-37.11,38L16,50.3a7.62,7.62,0,0,0-8.4,1.41L2,57.27A7.46,7.46,0,0,0,12.57,67.82l5.57-5.57a7.39,7.39,0,0,0,1.44-8.46L26,47.4A26.67,26.67,0,1,0,59.55,5.94ZM42.84,48.3a21.71,21.71,0,1,1,21.7-21.72v0A21.73,21.73,0,0,1,42.84,48.3Z"/></g></g></svg>