<?xml version="1.0" encoding="UTF-8"?>
<svg width="89px" height="89px" viewBox="0 0 89 89" version="1.1" xmlns="http://www.w3.org/2000/svg" xmlns:xlink="http://www.w3.org/1999/xlink">
    <!-- Generator: Sketch 53.1 (72631) - https://sketchapp.com -->
    <title>prototype</title>
    <desc>Created with Sketch.</desc>
    <g id="prototype" stroke="none" stroke-width="1" fill="none" fill-rule="evenodd">
        <g id="noun_Prototyping_832783" transform="translate(1.000000, 0.000000)" fill="#64A3C1" fill-rule="nonzero">
            <path d="M25.1052802,42.5727305 L25.1052802,7.76823507 L8.87109436,7.76823507 L8.87109436,42.5727305 L25.1052802,42.5727305 L25.1052802,42.5727305 Z M11.0024882,9.89373213 L22.9738863,9.89373213 L22.9738863,40.4472334 L11.0024882,40.4472334 L11.0024882,9.89373213 Z M29.5148093,23.9575069 L58.5165438,23.9575069 L58.5165438,7.76823507 L29.5148093,7.76823507 L29.5148093,23.9575069 Z M31.6462031,9.89373213 L56.38515,9.89373213 L56.38515,21.8320097 L31.6462031,21.8320097 L31.6462031,9.89373213 Z M29.7354419,29.1960061 L56.5194029,29.1960061 L56.5194029,31.3215031 L29.7354419,31.3215031 L29.7354419,29.1960061 Z M46.1985861,36.9471168 L29.7354419,36.9471168 L29.7354419,34.8216197 L46.1985861,34.8216197 L46.1985861,36.9471168 L46.1985861,36.9471168 Z M29.7354419,40.4472335 L37.9675344,40.4472335 L37.9675344,42.5727305 L29.7354419,42.5727305 L29.7354419,40.4472335 Z M87,74.8002682 L75.4324011,63.4178838 L75.4324011,59.1371815 L73.3010072,59.1371815 L73.3010072,61.320603 L63.0977917,51.28073 L63.0977917,72.8242202 L59.3688932,72.8242202 L59.3688932,74.9497172 L63.0977917,74.9497172 L63.0977917,83.3261267 L70.1653188,77.4841234 L76.1817191,89 L82.8287955,85.6591919 L77.1225297,74.8915982 L87,74.8002682 Z M79.9293506,84.735514 L77.0996339,86.1583931 L70.8355423,74.1692613 L65.2291856,78.8032185 L65.2291856,56.364072 L81.8526005,72.7225118 L73.6028159,72.7972363 L79.9293506,84.735514 Z M51.0910091,72.8242202 L54.8209483,72.8242202 L54.8209483,74.9497172 L48.9596152,74.9497172 L48.9596152,71.4231357 L0,71.4231357 L0,0 L64.6848892,0 L64.6848892,44.3749402 L64.6547083,44.3749402 L64.6547083,46.4641128 L59.7383487,46.4641128 L59.7383487,44.3386158 L62.5534954,44.3386158 L62.5534954,2.12549706 L2.13139385,2.12549706 L2.13139385,69.2976386 L48.9596152,69.2976386 L48.9596152,69.1046003 L51.0910091,69.1046003 L51.0910091,72.8242202 Z M51.0910091,62.7976445 L48.9596152,62.7976445 L48.9596152,56.4906886 L51.0910091,56.4906886 L51.0910091,62.7976445 Z M48.9596152,44.3386158 L54.8209483,44.3386158 L54.8209483,46.4641128 L51.0910091,46.4641128 L51.0910091,50.1837327 L48.9596152,50.1837327 L48.9596152,44.3386158 Z M73.3010072,46.4641128 L69.571068,46.4641128 L69.571068,44.3386158 L75.4324011,44.3386158 L75.4324011,50.1837327 L73.3010072,50.1837327 L73.3010072,46.4641128 Z" id="Shape"></path>
        </g>
    </g>
</svg>