<svg xmlns="http://www.w3.org/2000/svg" viewBox="0 0 75 75"><defs><style>.cls-1{fill:#e3c200;}</style></defs><title>icon</title><g id="Layer_2" data-name="Layer 2"><g id="Layer_1-2" data-name="Layer 1"><rect class="cls-1" x="38" y="40" width="25" height="10"/><path class="cls-1" d="M75,16V8a8,8,0,0,0-8-8H8A8,8,0,0,0,0,8v8ZM65.57,6.53a2.8,2.8,0,1,1-2.8,2.8A2.81,2.81,0,0,1,65.57,6.53Zm-10,0a2.8,2.8,0,1,1-2.8,2.8A2.81,2.81,0,0,1,55.57,6.53Zm-10,0a2.8,2.8,0,1,1-2.8,2.8A2.81,2.81,0,0,1,45.57,6.53ZM7,8H23a2,2,0,0,1,0,4H7A2,2,0,0,1,7,8Z"/><path class="cls-1" d="M0,20V67a8,8,0,0,0,8,8H67a8,8,0,0,0,8-8V20ZM67,52a2,2,0,0,1-2,2H11a2,2,0,0,1-2-2V38a2,2,0,0,1,2-2H65a2,2,0,0,1,2,2Z"/></g></g></svg>