<?xml version="1.0" encoding="UTF-8"?>
<svg width="81px" height="81px" viewBox="0 0 81 81" version="1.1" xmlns="http://www.w3.org/2000/svg" xmlns:xlink="http://www.w3.org/1999/xlink">
    <!-- Generator: Sketch 53.1 (72631) - https://sketchapp.com -->
    <title>qctool</title>
    <desc>Created with Sketch.</desc>
    <g id="qctool" stroke="none" stroke-width="1" fill="none" fill-rule="evenodd">
        <g id="noun_quality-control_2168325" transform="translate(13.000000, 0.000000)" fill="#E3C200" fill-rule="nonzero">
            <g id="Group" transform="translate(0.000000, 0.637820)">
                <path d="M28,0.36 C26.8641,0.36 24.7081,0.75363 22.9375,1.4225 C22.05218,1.75693 21.242,2.18341 20.7187,2.5787 C20.19542,2.97404 20.0312,3.30358 20.0312,3.48495 L20.0312,7.35995 C20.0311558,7.77414526 19.6953953,8.10990583 19.2812,8.10995 L11.2812,8.10995 L11.2812,13.04745 C11.2846779,13.0890441 11.2846779,13.1308559 11.2812,13.17245 L11.2812,18.26625 L44.7192,18.26625 L44.7192,13.14125 C44.7172473,13.1100472 44.7172473,13.0787528 44.7192,13.04755 L44.7192,8.11005 L36.7504,8.11005 C36.3362047,8.11000583 36.0004442,7.77424526 36.0004,7.36005 L36.0004,3.48505 C36.0004,3.30368 35.80493,2.97414 35.28165,2.5788 C34.75837,2.18346 33.97945,1.75698 33.09415,1.4226 C31.32355,0.75373 29.13635,0.3601 28.00035,0.3601 L28,0.36 Z M2.188,13.922 C1.34077,13.922 0.6568,14.60552 0.6568,15.4532 L0.6568,78.8282 C0.6568,79.6759 1.34081,80.3595 2.188,80.3595 L53.844,80.3595 C54.69124,80.3595 55.344,79.6759 55.344,78.8282 L55.344,15.4532 C55.344,14.60547 54.69123,13.922 53.844,13.922 L46.219,13.922 L46.219,19.0158 C46.2301407,19.2282603 46.1505337,19.4354567 46,19.5858 C45.9804133,19.6078438 45.9595438,19.6287133 45.9375,19.6483 C45.9273918,19.6590044 45.9169706,19.6694089 45.90625,19.6795 C45.8581675,19.7169662 45.8056972,19.7484316 45.75,19.7732 C45.6590786,19.80135 45.5636304,19.8119384 45.46875,19.8044 L10.53075,19.8044 C10.1165547,19.8043558 9.78079417,19.4685953 9.78075,19.0544 L9.78075,13.9606 L2.18695,13.9606 L2.188,13.922 Z M18.532,29.516 C18.8622763,29.4687855 19.1840387,29.6453957 19.321552,29.9493723 C19.4590652,30.2533489 19.379271,30.6116157 19.12575,30.8285 L13.12575,36.7973 C13.0779421,36.881612 13.0142719,36.9558769 12.93825,37.016 C12.9186465,37.0378705 12.8977773,37.0585727 12.87575,37.078 C12.8554079,37.0892956 12.8345521,37.0996401 12.81325,37.109 C12.7929079,37.1202956 12.7720521,37.1306401 12.75075,37.14 C12.6618755,37.1786104 12.566371,37.1996639 12.4695,37.202 C12.4590845,37.2022167 12.4486655,37.2022167 12.43825,37.202 C12.4278345,37.2022167 12.4174155,37.2022167 12.407,37.202 C12.3965845,37.2022167 12.3861655,37.2022167 12.37575,37.202 C12.3341557,37.2054722 12.2923443,37.2054722 12.25075,37.202 C12.2400328,37.1919741 12.2296117,37.1816363 12.2195,37.171 C12.2090845,37.1712167 12.1986655,37.1712167 12.18825,37.171 C12.1778345,37.1712167 12.1674155,37.1712167 12.157,37.171 C12.1135003,37.1542556 12.0716532,37.1334995 12.032,37.109 C12.0317868,37.0986678 12.0317868,37.0883322 12.032,37.078 C11.9885003,37.0612556 11.9466532,37.0404995 11.907,37.016 C11.9067868,37.0056678 11.9067868,36.9953322 11.907,36.985 L11.87575,36.954 C11.8537227,36.9345727 11.8328535,36.9138705 11.81325,36.892 L7.78205,32.892 C7.54268693,32.6815201 7.46248811,32.3427509 7.5820778,32.047294 C7.70166749,31.7518371 7.99492405,31.5642284 8.3133,31.5795 C8.51699683,31.5871852 8.70879317,31.6774423 8.84455,31.8295 L12.43835,35.392 L18.06335,29.767 C18.1640606,29.6587306 18.2945257,29.5826434 18.43835,29.5483 C18.4688852,29.5359187 18.500203,29.525563 18.5321,29.5173 L18.532,29.516 Z M23.2195,34.7348 C23.2403243,34.7339333 23.2611757,34.7339333 23.282,34.7348 C23.3132194,34.7328452 23.3445306,34.7328452 23.37575,34.7348 L47.40675,34.7348 C47.6773099,34.7308481 47.9290259,34.8729267 48.0654595,35.106602 C48.2018931,35.3402773 48.2018931,35.6293227 48.0654595,35.862998 C47.9290259,36.0966733 47.6773099,36.2387519 47.40675,36.2348 L23.37575,36.2348 C22.962107,36.2769327 22.5924142,35.9762923 22.5493366,35.5627467 C22.5062589,35.1492011 22.8060539,34.7788224 23.2195,34.7348 L23.2195,34.7348 Z M18.4995,44.1048 C18.820734,44.0604348 19.1341029,44.2275272 19.2762718,44.5189848 C19.4184407,44.8104424 19.3572122,45.1602581 19.1245,45.3861 L13.1245,51.3861 C13.0976795,51.4309118 13.0662596,51.472805 13.03075,51.5111 L12.96825,51.5731 C12.9581383,51.5837363 12.9477172,51.5940741 12.937,51.6041 C12.9173965,51.6259705 12.8965273,51.6466727 12.8745,51.6661 C12.8541579,51.6773956 12.8333021,51.6877401 12.812,51.6971 C12.7916579,51.7083956 12.7708021,51.7187401 12.7495,51.7281 C12.6606255,51.7667104 12.565121,51.7877639 12.46825,51.7901 C12.4578345,51.7903167 12.4474155,51.7903167 12.437,51.7901 C12.4265845,51.7903167 12.4161655,51.7903167 12.40575,51.7901 C12.3953345,51.7903167 12.3849155,51.7903167 12.3745,51.7901 C12.3329057,51.7935722 12.2910943,51.7935722 12.2495,51.7901 C12.2387828,51.7800741 12.2283617,51.7697363 12.21825,51.7591 C12.2078345,51.7593167 12.1974155,51.7593167 12.187,51.7591 C12.1765845,51.7593167 12.1661655,51.7593167 12.15575,51.7591 C12.1122503,51.7423556 12.0704032,51.7215995 12.03075,51.6971 C12.0305368,51.6867678 12.0305368,51.6764322 12.03075,51.6661 C11.9872503,51.6493556 11.9454032,51.6285995 11.90575,51.6041 C11.9055368,51.5937678 11.9055368,51.5834322 11.90575,51.5731 L11.8745,51.5421 C11.8389904,51.503805 11.8075705,51.4619118 11.78075,51.4171 L7.78075,47.4484 C7.57405497,47.2462693 7.50192344,46.9433423 7.59534154,46.6697501 C7.68875965,46.3961578 7.93109672,46.2006062 8.21825,46.1671 C8.44924313,46.1391466 8.68012966,46.2199754 8.84325,46.3859 L12.43705,49.9796 L18.06205,44.3546 C18.1746918,44.2233102 18.3292514,44.1349904 18.49955,44.1046 L18.4995,44.1048 Z M23.1557,49.3236 C23.1765244,49.3227362 23.1973756,49.3227362 23.2182,49.3236 C23.2701413,49.3181604 23.3225087,49.3181604 23.37445,49.3236 L47.40545,49.3236 C47.6760099,49.3196481 47.9277259,49.4617267 48.0641595,49.695402 C48.2005931,49.9290773 48.2005931,50.2181227 48.0641595,50.451798 C47.9277259,50.6854733 47.6760099,50.8275519 47.40545,50.8236 L23.37445,50.8236 C22.9602364,50.8840061 22.5754811,50.5971886 22.515075,50.182975 C22.4546689,49.7687614 22.7414864,49.3840061 23.1557,49.3236 L23.1557,49.3236 Z M18.4369,58.6673 C18.4577243,58.6664317 18.4785757,58.6664317 18.4994,58.6673 C18.820634,58.6229348 19.1340029,58.7900272 19.2761718,59.0814848 C19.4183407,59.3729424 19.3571122,59.7227581 19.1244,59.9486 L13.1244,65.9486 C13.0975795,65.9934118 13.0661596,66.035305 13.03065,66.0736 L12.96815,66.1356 C12.9580383,66.1462363 12.9476172,66.1565741 12.9369,66.1666 C12.9172965,66.1884705 12.8964273,66.2091727 12.8744,66.2286 C12.8540579,66.2398956 12.8332021,66.2502401 12.8119,66.2596 C12.7915579,66.2708956 12.7707021,66.2812401 12.7494,66.2906 C12.6605255,66.3292104 12.565021,66.3502639 12.46815,66.3526 C12.4577345,66.3528167 12.4473155,66.3528167 12.4369,66.3526 C12.4264845,66.3528167 12.4160655,66.3528167 12.40565,66.3526 C12.3952345,66.3528167 12.3848155,66.3528167 12.3744,66.3526 C12.3328057,66.3560722 12.2909943,66.3560722 12.2494,66.3526 C12.2386828,66.3425741 12.2282617,66.3322363 12.21815,66.3216 C12.2077345,66.3218167 12.1973155,66.3218167 12.1869,66.3216 C12.1764845,66.3218167 12.1660655,66.3218167 12.15565,66.3216 C12.1121503,66.3048556 12.0703032,66.2840995 12.03065,66.2596 C12.0304368,66.2492678 12.0304368,66.2389322 12.03065,66.2286 C11.9871503,66.2118556 11.9453032,66.1910995 11.90565,66.1666 C11.9054368,66.1562678 11.9054368,66.1459322 11.90565,66.1356 L11.8744,66.1046 C11.8388904,66.066305 11.8074705,66.0244118 11.78065,65.9796 L7.78065,62.0109 C7.57633516,61.8173655 7.49754447,61.5257477 7.57659362,61.2556526 C7.65564277,60.9855575 7.87922928,60.7824369 8.15565,60.7296 C8.40714721,60.6802924 8.66641174,60.7628046 8.84315,60.9484 L12.43695,64.5421 L18.06195,58.8859 C18.1626475,58.7775939 18.2931139,58.7014711 18.43695,58.6671 L18.4369,58.6673 Z M23.1557,63.8861 C23.1765244,63.8852362 23.1973756,63.8852362 23.2182,63.8861 C23.2701413,63.8806604 23.3225087,63.8806604 23.37445,63.8861 L47.40545,63.8861 C47.6760099,63.8821481 47.9277259,64.0242267 48.0641595,64.257902 C48.2005931,64.4915773 48.2005931,64.7806227 48.0641595,65.014298 C47.9277259,65.2479733 47.6760099,65.3900519 47.40545,65.3861 L23.37445,65.3861 C22.9602365,65.446506 22.5754814,65.1596884 22.5150752,64.745475 C22.4546691,64.3312615 22.7414865,63.9465063 23.1557,63.8861 L23.1557,63.8861 Z" id="Shape"></path>
            </g>
        </g>
    </g>
</svg>