<?xml version="1.0" encoding="UTF-8"?>
<svg width="213px" height="213px" viewBox="0 0 213 213" version="1.1" xmlns="http://www.w3.org/2000/svg" xmlns:xlink="http://www.w3.org/1999/xlink">
    <!-- Generator: Sketch 53.1 (72631) - https://sketchapp.com -->
    <title>Artboard</title>
    <desc>Created with Sketch.</desc>
    <g id="Artboard" stroke="none" stroke-width="1" fill="none" fill-rule="evenodd">
        <g id="remote-control" transform="translate(-0.000000, 0.000000)" fill="#64A3C1" fill-rule="nonzero">
            <path d="M61.0873299,212 C57.0302598,212 53.2171308,210.420641 50.3477227,207.551334 L4.44132887,161.646563 C-1.48044296,155.725001 -1.48044296,146.089671 4.44132887,140.169142 L140.165569,4.44866557 C143.033943,1.57935897 146.848106,0 150.905176,0 C154.962246,0 158.775375,1.57935897 161.644783,4.44866557 L207.551177,50.3544704 C210.419552,53.2227434 212,57.0367712 212,61.0936979 C212,65.1506246 210.420585,68.9636188 207.551177,71.8329254 L71.826937,207.552368 C68.9585626,210.420641 65.1433663,212 61.0873299,212 Z M150.905176,4.13444755 C147.953076,4.13444755 145.176697,5.28382397 143.087693,7.37171999 L7.36448662,143.091163 C3.05520633,147.401324 3.05520633,154.412314 7.36448662,158.722475 L53.2708805,204.62828 C55.3588503,206.716176 58.1341963,207.865552 61.0873299,207.865552 C64.0404634,207.865552 66.8158095,206.716176 68.9048129,204.62828 L204.628019,68.9088374 C208.9373,64.5986758 208.9373,57.5876864 204.628019,53.2775248 L158.721626,7.37171999 C156.633656,5.28382397 153.85831,4.13444755 150.905176,4.13444755 Z M75.6504025,174.140864 C75.1325447,174.140864 74.6322589,173.946545 74.2487753,173.593049 C73.8249794,173.201311 73.5831057,172.651429 73.5831057,172.07364 L73.5831057,163.715854 C73.5831057,162.660537 74.379015,161.773698 75.4281681,161.661034 C85.5165768,160.57264 93.7247789,152.811249 95.3910202,142.786247 C95.5564039,141.788812 96.4184667,141.058048 97.4304085,141.058048 L105.860845,141.058048 C106.453126,141.058048 107.016464,141.312317 107.40925,141.755736 C107.802037,142.200189 107.984993,142.790382 107.912637,143.377473 C105.880484,159.868751 92.3831033,172.80337 75.8157863,174.133628 C75.7599693,174.138797 75.7041523,174.140864 75.6504025,174.140864 Z M77.7176994,165.50607 L77.7176994,169.751114 C90.5308053,167.773815 100.873491,157.891451 103.432805,145.191462 L99.1235246,145.191462 C96.6820471,155.591665 88.2133655,163.624896 77.7176994,165.50607 Z M67.4680416,173.797705 C67.3553739,173.797705 67.240639,173.788402 67.1279713,173.769797 C51.8733878,171.226078 39.9006381,158.728677 38.0100951,143.378507 C37.9387734,142.791415 38.1206955,142.200189 38.5134819,141.75677 C38.9062683,141.31335 39.4696067,141.059082 40.0618873,141.059082 L48.4923238,141.059082 C49.5042656,141.059082 50.3663284,141.789845 50.5317122,142.787281 C52.0532426,151.940948 58.8794568,159.176231 67.9238806,161.220715 C68.8655343,161.433639 69.5353385,162.271898 69.5353385,163.237292 L69.5353385,171.731514 C69.5353385,172.339278 69.2676235,172.916034 68.804549,173.308806 C68.428301,173.625091 67.9538564,173.797705 67.4680416,173.797705 Z M42.4909611,145.192496 C44.8497468,156.863007 53.8590264,166.293682 65.4007448,169.189863 L65.4007448,164.83629 C56.077236,162.123058 49.0029461,154.650044 46.7981741,145.192496 L42.4909611,145.192496 Z M72.961883,154.593196 C68.8055827,154.593196 64.897358,152.975593 61.9586955,150.036001 C59.0189994,147.097442 57.4013396,143.190389 57.4013396,139.033202 C57.4013396,134.876015 59.0189994,130.968962 61.9586955,128.030404 C64.897358,125.090812 68.804549,123.473209 72.961883,123.473209 C77.1181833,123.473209 81.0253744,125.090812 83.9650705,128.030404 C86.9047666,130.968962 88.5224264,134.876015 88.5224264,139.033202 C88.5224264,143.190389 86.9047666,147.097442 83.9650705,150.036001 C81.0253744,152.975593 77.1171497,154.593196 72.961883,154.593196 Z M72.961883,127.60869 C69.9095192,127.60869 67.0401112,128.79631 64.8828869,130.954492 C62.7256626,133.112673 61.5369669,135.980946 61.5369669,139.033202 C61.5369669,142.085458 62.724629,144.954765 64.8828869,147.111913 C67.0411448,149.269061 69.9095192,150.457715 72.961883,150.457715 C76.0132131,150.457715 78.8836548,149.270094 81.0408791,147.111913 C83.1981034,144.953731 84.386799,142.085458 84.386799,139.033202 C84.386799,135.980946 83.199137,133.11164 81.0408791,130.954492 C78.8826212,128.797344 76.0132131,127.60869 72.961883,127.60869 Z M105.859811,137.010424 L97.4293749,137.010424 C96.4174331,137.010424 95.5553703,136.27966 95.3899865,135.282225 C93.7247789,125.257223 85.5155431,117.495831 75.4281681,116.408472 C74.3769477,116.295808 73.5820721,115.408969 73.5820721,114.353651 L73.5820721,105.994832 C73.5820721,105.417043 73.8229121,104.867161 74.2477416,104.475422 C74.6715375,104.084717 75.2328086,103.882129 75.8157863,103.934843 C92.3820696,105.265102 105.880484,118.199721 107.912637,134.690999 C107.983959,135.27809 107.802037,135.869316 107.40925,136.312736 C107.01543,136.756155 106.452092,137.010424 105.859811,137.010424 Z M99.1235246,132.875976 L103.432805,132.875976 C100.873491,120.175987 90.5318389,110.293624 77.7176994,108.316324 L77.7176994,112.562402 C88.2133655,114.443576 96.6820471,122.475774 99.1235246,132.875976 Z M48.4933575,137.010424 L40.0629209,137.010424 C39.4706404,137.010424 38.907302,136.756155 38.5145156,136.312736 C38.1217292,135.868283 37.9387734,135.27809 38.0111288,134.690999 C39.9016718,119.339795 51.8744215,106.843427 67.1290049,104.299708 C67.7274874,104.198414 68.3414745,104.36896 68.8055827,104.760699 C69.2686572,105.153472 69.5363721,105.730227 69.5363721,106.337991 L69.5363721,114.832214 C69.5363721,115.798641 68.8676016,116.634833 67.9249142,116.84879 C58.8804905,118.894308 52.0542763,126.129592 50.5327458,135.282225 C50.3673621,136.27966 49.5052993,137.010424 48.4933575,137.010424 Z M42.4909611,132.875976 L46.7981741,132.875976 C49.0029461,123.420495 56.077236,115.946447 65.4007448,113.232182 L65.4007448,108.878609 C53.8590264,111.77479 44.8507804,121.205464 42.4909611,132.875976 Z M135.342565,126.854153 C133.915097,126.854153 132.574455,126.299104 131.566648,125.290299 L125.90949,119.633341 C123.827722,117.551646 123.827722,114.1645 125.908456,112.080739 L127.234627,110.755648 C128.244502,109.746843 129.58411,109.191794 131.010545,109.191794 C132.438013,109.191794 133.778655,109.746843 134.786463,110.755648 L140.44362,116.411573 C142.525388,118.495334 142.525388,121.88248 140.44362,123.964175 L139.11745,125.290299 C138.108609,126.29807 136.767967,126.854153 135.342565,126.854153 Z M131.010545,113.327275 C130.688047,113.327275 130.386221,113.452342 130.157785,113.68077 L128.832648,115.004827 C128.363371,115.47512 128.362338,116.239993 128.832648,116.710286 L134.489806,122.367244 C134.945644,122.821 135.738453,122.821 136.194292,122.367244 L137.520463,121.04112 C137.990773,120.570827 137.989739,119.805954 137.519429,119.335661 L131.863305,113.679736 C131.635902,113.452342 131.333043,113.327275 131.010545,113.327275 Z M147.251229,114.944877 C145.823761,114.944877 144.482085,114.389828 143.474278,113.379989 L137.818153,107.724065 C136.809313,106.715259 136.25321,105.374665 136.25321,103.94828 C136.25321,102.521896 136.809313,101.180268 137.818153,100.172496 L139.144324,98.8463721 C140.152132,97.8375669 141.492774,97.2825173 142.920242,97.2825173 C144.346677,97.2825173 145.688353,97.8375669 146.69616,98.8474057 L152.352284,104.50333 C154.434052,106.587092 154.434052,109.974238 152.352284,112.055932 L151.027147,113.381022 C150.019339,114.389828 148.677664,114.944877 147.251229,114.944877 Z M142.921276,101.416965 C142.598777,101.416965 142.296952,101.542032 142.069549,101.77046 L140.742345,103.096584 C140.514942,103.323979 140.388837,103.626827 140.388837,103.94828 C140.388837,104.269734 140.514942,104.572582 140.742345,104.80101 L146.399503,110.456934 C146.855342,110.912757 147.649184,110.912757 148.105023,110.456934 L149.43016,109.131844 C149.899436,108.661551 149.899436,107.896678 149.429126,107.426384 L143.773002,101.77046 C143.544566,101.542032 143.241707,101.416965 142.921276,101.416965 Z M115.740457,107.252738 C114.314022,107.252738 112.97338,106.697688 111.964539,105.689916 L106.308415,100.031925 C105.29854,99.0241534 104.743471,97.6835587 104.743471,96.2571743 C104.743471,94.8297563 105.29854,93.4881281 106.308415,92.4803565 L107.632518,91.1552661 C108.642393,90.1464609 109.982001,89.5914113 111.40947,89.5914113 C112.835905,89.5914113 114.176547,90.1464609 115.185388,91.1542324 L120.841512,96.8122239 C121.851386,97.8199955 122.406455,99.1605901 122.406455,100.588008 C122.406455,102.014393 121.851386,103.356021 120.841512,104.363792 L119.516374,105.688883 C118.507534,106.697688 117.167925,107.252738 115.740457,107.252738 Z M111.40947,93.7258588 C111.086972,93.7258588 110.785146,93.8509259 110.55671,94.0783205 L109.232606,95.4044445 C109.003136,95.6328728 108.878065,95.935721 108.878065,96.2571743 C108.878065,96.5786276 109.003136,96.8814759 109.231573,97.1078369 L114.887697,102.765828 C115.343536,103.219584 116.137378,103.219584 116.593217,102.765828 L117.918354,101.440738 C118.14679,101.21231 118.271862,100.909461 118.271862,100.588008 C118.271862,100.266555 118.14679,99.9637066 117.918354,99.736312 L112.26223,94.0783205 C112.034827,93.8509259 111.731968,93.7258588 111.40947,93.7258588 Z M159.160926,103.035601 C157.734491,103.035601 156.392816,102.480552 155.385008,101.471746 L149.727851,95.8158221 C147.646083,93.7320605 147.646083,90.3449143 149.727851,88.26322 L151.054022,86.9370959 C152.061829,85.9282907 153.402471,85.3732412 154.829939,85.3732412 C156.256374,85.3732412 157.59805,85.9282907 158.605857,86.9381296 L164.261981,92.5940538 C166.344783,94.6767818 166.344783,98.0639279 164.261981,100.146656 L162.936844,101.471746 C161.928003,102.479518 160.586327,103.035601 159.160926,103.035601 Z M154.829939,89.5087223 C154.507441,89.5087223 154.205616,89.6337894 153.978213,89.8622176 L152.651008,91.1883416 C152.180698,91.6576014 152.181732,92.4224742 152.652042,92.8927676 L158.308166,98.5486919 C158.764005,99.0024475 159.557847,99.0024475 160.013686,98.5486919 L161.338823,97.2236015 C161.809133,96.753308 161.809133,95.9884352 161.338823,95.5181418 L155.682699,89.8622176 C155.455297,89.6337894 155.152438,89.5087223 154.829939,89.5087223 Z M127.64912,95.3434614 C126.223719,95.3434614 124.882043,94.7884118 123.873203,93.7806403 L118.217078,88.1226488 C117.207204,87.1148772 116.652135,85.7742826 116.652135,84.3468645 C116.652135,82.9204801 117.207204,81.5788519 118.217078,80.5710803 L119.542216,79.2459899 C120.55209,78.2371847 121.891699,77.6821351 123.318133,77.6821351 C124.745602,77.6821351 126.086244,78.2371847 127.094051,79.2459899 L132.750175,84.9029477 C133.76005,85.9107193 134.315119,87.251314 134.315119,88.678732 C134.315119,90.1051164 133.76005,91.4467446 132.750175,92.4545162 L131.425038,93.7796066 C130.417231,94.7884118 129.076589,95.3434614 127.64912,95.3434614 Z M123.319167,81.8165826 C122.996669,81.8165826 122.694843,81.9416497 122.466407,82.1700779 L121.14127,83.4941347 C120.912833,83.722563 120.787762,84.0254113 120.787762,84.3468645 C120.787762,84.6683178 120.912833,84.9711661 121.14127,85.1985607 L126.797394,90.8565522 C127.253233,91.3103078 128.047075,91.3103078 128.502914,90.8565522 L129.828051,89.5314618 C130.056487,89.3030336 130.181559,89.0001853 130.181559,88.678732 C130.181559,88.3572787 130.056487,88.0544304 129.828051,87.8270358 L124.171927,82.1690443 C123.943491,81.9416497 123.640632,81.8165826 123.319167,81.8165826 Z M171.06959,91.1263249 C169.643155,91.1263249 168.302513,90.5712753 167.293672,89.5635037 L161.637548,83.9055123 C160.627673,82.8977407 160.072604,81.5571461 160.072604,80.1307617 C160.072604,78.7033436 160.627673,77.3617154 161.637548,76.3539438 L162.961651,75.0288534 C163.971526,74.0200482 165.311134,73.463965 166.738603,73.463965 C168.165038,73.463965 169.50568,74.0200482 170.51452,75.0278198 L176.170645,80.6858112 C177.180519,81.6935828 177.735588,83.0341774 177.735588,84.4615955 C177.735588,85.8879799 177.180519,87.2296081 176.170645,88.2373797 L174.845507,89.5624701 C173.8377,90.5712753 172.497058,91.1263249 171.06959,91.1263249 Z M166.739636,77.5984125 C166.417138,77.5984125 166.115313,77.7245132 165.886876,77.9519078 L164.562773,79.2780318 C164.333303,79.5064601 164.208231,79.8093084 164.208231,80.1307617 C164.208231,80.452215 164.333303,80.7550632 164.561739,80.9814242 L170.217863,86.6394157 C170.673702,87.0931713 171.467544,87.0931713 171.923383,86.6394157 L173.248521,85.3143253 C173.476957,85.085897 173.602028,84.7830488 173.602028,84.4615955 C173.602028,84.1401422 173.476957,83.8372939 173.248521,83.6098993 L167.592396,77.9519078 C167.36396,77.7245132 167.061101,77.5984125 166.739636,77.5984125 Z M96.1393816,87.6523554 C94.7119132,87.6523554 93.3712712,87.0973058 92.3634639,86.0885006 L86.7063061,80.4315427 C84.6245382,78.3498484 84.6245382,74.9627022 86.7052725,72.8789406 L88.0314434,71.5538502 C89.0413179,70.545045 90.3809263,69.9889618 91.8073611,69.9889618 C93.2348296,69.9889618 94.5754716,70.545045 95.5832788,71.5538502 L101.240437,77.2097745 C103.322205,79.293536 103.322205,82.6806822 101.240437,84.7623765 L99.9142657,86.0885006 C98.9064585,87.0973058 97.5658165,87.6523554 96.1393816,87.6523554 Z M91.8073611,74.124443 C91.4848628,74.124443 91.1830374,74.2505436 90.9546011,74.4789718 L89.6294639,75.8030287 C89.1601875,76.2733221 89.1591538,77.0381949 89.6294639,77.5084883 L95.2866217,83.1654462 C95.7403933,83.6181682 96.5332017,83.6192018 96.9911079,83.1654462 L98.3172789,81.8393221 C98.7875889,81.3690287 98.7865553,80.6041559 98.3162452,80.1338625 L92.660121,74.4779382 C92.4327184,74.2505436 92.1298594,74.124443 91.8073611,74.124443 Z M139.558817,83.4362525 C138.132383,83.4362525 136.791741,82.8801693 135.7829,81.8723977 L130.126776,76.2144062 C128.045008,74.1327119 128.045008,70.7455657 130.125742,68.6618041 L131.451913,67.3367137 C132.461787,66.3279085 133.802429,65.7728589 135.22783,65.7728589 C136.655299,65.7728589 137.995941,66.3279085 139.003748,67.3367137 L144.660906,72.9936716 C145.669747,74.0024768 146.22585,75.3420378 146.22585,76.7684222 C146.22585,78.1958402 145.669747,79.5364348 144.660906,80.5442064 L143.334735,81.8703305 C142.325894,82.8801693 140.986286,83.4362525 139.558817,83.4362525 Z M135.22783,69.9083401 C134.905332,69.9083401 134.603507,70.0334071 134.375071,70.2618353 L133.049933,71.5858922 C132.580657,72.0561856 132.580657,72.8210584 133.049933,73.2913518 L138.706057,78.9483097 C139.161896,79.4020653 139.955738,79.4020653 140.411577,78.9483097 L141.737748,77.6221856 C141.965151,77.3937574 142.091256,77.0909091 142.091256,76.7694558 C142.091256,76.4480025 141.965151,76.1451542 141.737748,75.9177596 L136.08059,70.2608017 C135.853188,70.0334071 135.550329,69.9083401 135.22783,69.9083401 Z M108.048045,75.7430792 C106.620577,75.7430792 105.278901,75.1880296 104.271094,74.1781908 L98.6149696,68.5222665 C96.5332017,66.438505 96.5332017,63.0513588 98.6149696,60.9696645 L99.9411405,59.6435404 C100.948948,58.6347352 102.28959,58.0796856 103.717058,58.0796856 C105.143493,58.0796856 106.485169,58.6347352 107.492976,59.644574 L113.1491,65.3004983 C115.231902,67.3842598 115.230868,70.771406 113.1491,72.8531003 L111.823963,74.1781908 C110.816156,75.1880296 109.47448,75.7430792 108.048045,75.7430792 Z M103.718092,62.2151668 C103.395594,62.2151668 103.093768,62.3402338 102.866366,62.5686621 L101.539161,63.8947861 C101.069885,64.3640459 101.069885,65.1289187 101.540195,65.5992121 L107.196319,71.2551364 C107.652158,71.7109592 108.446,71.7109592 108.901839,71.2551364 L110.226976,69.9300459 C110.697286,69.4597525 110.696252,68.6948797 110.225942,68.2245863 L104.569818,62.5686621 C104.341382,62.3402338 104.038523,62.2151668 103.718092,62.2151668 Z M188.542383,71.8060515 C186.099871,71.8060515 183.802071,70.8551286 182.073811,69.1269295 C180.345551,67.3987304 179.39356,65.1010112 179.39356,62.6575527 C179.39356,60.2140942 180.345551,57.9163749 182.073811,56.1892095 C183.802071,54.4610104 186.099871,53.5090539 188.542383,53.5090539 C190.985928,53.5090539 193.283728,54.4610104 195.011988,56.1892095 C196.740248,57.9163749 197.692238,60.2140942 197.692238,62.6575527 C197.692238,65.1010112 196.740248,67.3987304 195.011988,69.1269295 C193.283728,70.8551286 190.986961,71.8060515 188.542383,71.8060515 Z M188.542383,57.644535 C187.203808,57.644535 185.944824,58.166509 184.996969,59.1132975 C184.050147,60.060086 183.528154,61.3190253 183.528154,62.6585863 C183.528154,63.9981473 184.050147,65.2570866 184.996969,66.2049087 C185.94379,67.1516972 187.203808,67.6726376 188.542383,67.6726376 C189.881991,67.6726376 191.142008,67.1516972 192.08883,66.2049087 C193.035652,65.2570866 193.557645,63.9981473 193.557645,62.6585863 C193.557645,61.3190253 193.035652,60.060086 192.08883,59.1132975 C191.140975,58.1654754 189.881991,57.644535 188.542383,57.644535 Z M151.468515,71.5259427 C150.041046,71.5259427 148.69937,70.9708931 147.691563,69.9610543 L142.035439,64.30513 C139.953671,62.2234357 139.953671,58.8362895 142.034405,56.752528 L143.360576,55.4274375 C144.369417,54.4175987 145.710059,53.8625491 147.136494,53.8625491 C148.563962,53.8625491 149.905638,54.4175987 150.913445,55.4274375 L156.56957,61.0833618 C158.651337,63.1671233 158.651337,66.5542695 156.56957,68.6359638 L155.244432,69.9610543 C154.236625,70.9708931 152.894949,71.5259427 151.468515,71.5259427 Z M147.137528,57.9980303 C146.815029,57.9980303 146.513204,58.1230973 146.284768,58.3515256 L144.95963,59.676616 C144.490354,60.1469094 144.48932,60.9117822 144.95963,61.3820756 L150.616788,67.0379999 C151.072627,67.4938227 151.866469,67.4938227 152.322308,67.0379999 L153.647445,65.7129094 C154.117755,65.242616 154.116722,64.4777432 153.646412,64.0074498 L147.990288,58.3515256 C147.761851,58.1230973 147.458992,57.9980303 147.137528,57.9980303 Z M119.957742,63.8348366 C118.530274,63.8348366 117.188598,63.279787 116.180791,62.2699482 L110.5257,56.614024 C109.515826,55.6052188 108.960757,54.2646241 108.960757,52.8382397 C108.960757,51.4108217 109.515826,50.0691935 110.5257,49.0614219 L111.850838,47.7373651 C112.858645,46.7275263 114.199287,46.1724767 115.626755,46.1724767 C117.05319,46.1724767 118.394866,46.7275263 119.402673,47.7373651 L125.058797,53.3932893 C127.141599,55.4760173 127.141599,58.8631634 125.058797,60.9458914 L123.73366,62.2709818 C122.725853,63.279787 121.385211,63.8348366 119.957742,63.8348366 Z M115.626755,50.3069242 C115.304257,50.3069242 115.002432,50.4319913 114.775029,50.6604195 L113.448858,51.9855099 C113.220422,52.2139382 113.09535,52.5167864 113.09535,52.8382397 C113.09535,53.159693 113.220422,53.4625413 113.448858,53.6909695 L119.104982,59.3468938 C119.560821,59.8027166 120.355697,59.8027166 120.809469,59.3468938 L122.13564,58.0218034 C122.363042,57.7933751 122.488114,57.4905268 122.488114,57.1690736 C122.488114,56.8476203 122.363042,56.544772 122.13564,56.3163437 L116.479515,50.6604195 C116.252113,50.4319913 115.949254,50.3069242 115.626755,50.3069242 Z M131.866406,51.9255604 C130.439971,51.9255604 129.099329,51.3694772 128.090488,50.3617057 L122.434364,44.7047478 C121.424489,43.6959426 120.86942,42.355348 120.86942,40.9289636 C120.86942,39.5015455 121.424489,38.1599173 122.434364,37.1521457 L123.758468,35.8270553 C124.768342,34.8182501 126.10795,34.2632005 127.535419,34.2632005 C128.961854,34.2632005 130.302496,34.8182501 131.311337,35.8260217 L136.967461,41.4840131 C137.977335,42.4917847 138.532405,43.8323794 138.532405,45.2597974 C138.532405,46.6861818 137.977335,48.02781 136.967461,49.0355816 L135.642324,50.360672 C134.634516,51.3694772 133.293874,51.9255604 131.866406,51.9255604 Z M127.536453,38.397648 C127.213954,38.397648 126.912129,38.5227151 126.683693,38.7501097 L125.359589,40.0762338 C125.130119,40.304662 125.005048,40.6075103 125.005048,40.9289636 C125.005048,41.2504169 125.130119,41.5532651 125.358555,41.7816934 L131.01468,47.4376176 C131.470518,47.8913732 132.26436,47.8913732 132.720199,47.4376176 L134.045337,46.1125272 C134.273773,45.884099 134.398844,45.5812507 134.398844,45.2597974 C134.398844,44.9383441 134.273773,44.6354958 134.045337,44.4081012 L128.389213,38.7501097 C128.160776,38.5237487 127.857917,38.397648 127.536453,38.397648 Z M149.341266,32.605287 C146.897721,32.605287 144.599921,31.6533305 142.871661,29.9251314 C141.1434,28.1969323 140.19141,25.8992131 140.19141,23.4557546 C140.19141,21.0122961 141.1434,18.7145769 142.871661,16.9874114 C144.599921,15.2592123 146.897721,14.3072558 149.341266,14.3072558 C151.783777,14.3072558 154.081578,15.2592123 155.809838,16.9874114 C157.538098,18.7145769 158.490088,21.0122961 158.490088,23.4557546 C158.490088,25.8992131 157.538098,28.1969323 155.809838,29.9251314 C154.081578,31.6533305 151.783777,32.605287 149.341266,32.605287 Z M149.341266,18.4427369 C148.001658,18.4427369 146.742674,18.9647109 145.794818,19.9114994 C144.847996,20.8582879 144.326004,22.1172272 144.326004,23.4567882 C144.326004,24.7963492 144.847996,26.0552885 145.794818,27.0031106 C146.742674,27.9498991 148.001658,28.4718731 149.341266,28.4718731 C150.679841,28.4718731 151.938825,27.9498991 152.88668,27.0031106 C153.833502,26.0552885 154.355495,24.7963492 154.355495,23.4567882 C154.355495,22.1172272 153.833502,20.8582879 152.88668,19.9114994 C151.937791,18.9647109 150.678807,18.4427369 149.341266,18.4427369 Z" id="Shape"></path>
        </g>
    </g>
</svg>