<?xml version="1.0" encoding="UTF-8"?>
<svg width="102px" height="77px" viewBox="0 0 102 77" version="1.1" xmlns="http://www.w3.org/2000/svg" xmlns:xlink="http://www.w3.org/1999/xlink">
    <!-- Generator: Sketch 43.1 (39012) - http://www.bohemiancoding.com/sketch -->
    <title>requirements</title>
    <desc>Created with Sketch.</desc>
    <defs></defs>
    <g id="Page-1" stroke="none" stroke-width="1" fill="none" fill-rule="evenodd">
        <g id="requirements">
            <path d="M101.337162,75.2298851 L101.337162,1.77011494 C101.337162,0.792507454 100.591531,0 99.6717491,0 L1.66541304,0 C0.745630815,0 0,0.792507454 0,1.77011494 L0,75.2298851 C0,76.2074925 0.745630815,77 1.66541304,77 L99.6717491,77 C100.591531,77 101.337162,76.2074925 101.337162,75.2298851 Z" id="Shape-Copy-2" fill-opacity="0.01" fill="#FFFFFF" fill-rule="nonzero"></path>
            <g id="Group" transform="translate(4.000000, 12.000000)">
                <path d="M89.0241625,6.75153435 C87.9690698,4.41843472 86.0526769,2.63087257 83.629373,1.71634695 C81.206069,0.800938584 78.9218506,1.31760005 76.5254623,2.36895142 L30.9719079,22.1100598 C26.5846602,22.0994669 24.2030873,17.6719943 22.2005644,13.7111096 C21.0153795,11.3647688 20.1202661,10.1690846 20.6917747,7.79184764 C20.6917747,7.80420609 14.8393027,12.9109653 14.0942061,12.9109653 C13.3491095,12.9109653 10.3928432,11.6008007 8.91219403,10.2968965 C7.7996813,13.0810798 11.3603412,21.5615887 18.3020604,26.955898 L7.79132105,31.2184508 C7.70788259,31.2802431 7.61367788,31.308491 7.52126755,31.3490973 C4.53452975,32.6582108 2.44743708,35.1071338 1.34299904,38.1287759 C0.290597889,41.0082958 0.46576198,43.8228874 1.81602945,46.4967273 C4.53719969,51.8814824 9.36107362,54.0279187 15.4978374,52.1856263 C16.1931578,51.9772981 16.9001417,51.7168878 17.6098172,51.4052782 L85.9979485,22.4388267 C86.3003007,22.3099456 86.5326723,22.0574801 86.6502039,21.7546979 C86.7686327,21.4519158 86.7524833,21.1049963 86.6134192,20.8110417 C86.3334967,20.2151876 85.0368414,21.1015263 84.4312397,21.3716468 C81.158299,22.806993 78.7109901,21.8606275 76.2383408,20.8604755 L84.7936808,16.9467883 C88.8319226,15.1812948 90.8230238,10.7247774 89.0241625,6.75153435 Z" id="Path" fill="#FFFFF7"></path>
                <path d="M54.4858336,35.5877417 C56.8217855,30.3121651 57.5912834,21.3993865 46.091554,17.3967636 C51.5872299,15.1106541 53.9978926,14.9230314 55.4116091,14.3932362 C61.9283126,15.4886978 66.5396391,21.5613994 63.2595779,31.5374691 C60.7387532,32.5788634 60.1396296,33.3725704 54.4858336,35.5877417 Z" id="Path-5" fill="#FCB717"></path>
                <path d="M23.9852753,24.5374896 C28.9232811,22.2906538 30.4636678,21.7845072 30.4636678,21.7845072 C30.4636678,21.7845072 20.6528564,22.9033684 21.0213237,8.57548915 C15.9862494,12.5824329 17.4037564,11.3060755 17.4037564,11.3060755 C17.4037564,11.3060755 15.0255618,13.9252411 13.0793639,12.8434318 C13.0793639,17.0118847 14.1633328,24.0515354 23.9852753,24.5374896 Z" id="Path-6" fill="#FCB717"></path>
                <path d="M92.2811525,6.58999208 C94.1458039,10.7324818 92.2569725,15.604808 88.0710394,17.4455055 L79.0277126,21.2999261 C81.5907946,22.3426812 84.7267569,22.12824 88.1193994,20.6317529 C88.7471499,20.3501262 89.4920804,20.6271511 89.7822407,21.2483866 C89.9263908,21.5548627 89.9431308,21.9165597 89.8203707,22.2322394 C89.6985406,22.547919 89.4576704,22.8111387 89.1442602,22.9455096 L18.2549573,53.1458334 C17.5193267,53.4707165 16.7864862,53.7422194 16.0657357,53.9594217 C9.7045309,55.8801895 4.01106665,53.7136886 1.19037455,48.0995612 C-0.209276495,45.3118249 -0.379466622,42.1228165 0.711424192,39.1206388 C1.85625505,35.9702851 4.28820686,33.3813441 7.38417917,32.0164669 C7.47996924,31.9741308 7.57761932,31.9446797 7.66410938,31.8802553 L17.9250292,27.3585787 C7.97665074,23.5498544 7.65966932,12.6422941 8.81287018,9.73951412 C10.3476714,11.0989601 14.3666244,12.6182764 14.3666244,12.6182764 C14.3666244,12.6182764 22.1589321,6.27155141 22.1589321,6.25866653 C21.5665217,8.7371657 21.7850718,11.3997346 23.0136028,13.8460216 C25.0893643,17.9756264 27.6014643,21.4536243 32.1491677,21.4646685 L78.9551726,1.55568444 C81.4392044,0.459549081 84.1771265,0.385921182 86.6890584,1.34032283 C89.2009902,2.29380413 91.1874717,4.15751034 92.2811525,6.58999208 Z M20.4444056,26.2613211 C24.8757661,24.2450133 28.2493238,22.5763734 28.2493238,22.5763734 C28.2493238,22.5763734 21.4837482,20.1605698 20.0257203,10.9199262 C16.792235,13.8824419 15.0869214,15.0848672 15.0869214,15.0848672 C15.0869214,15.0848672 12.1457014,13.6558684 10.4676529,12.8389855 C10.4676529,17.8485578 12.0540775,23.1183028 20.4444056,26.2613211 Z M52.5945825,15.8134314 L45.9562471,18.6012982 C49.0636355,19.4233161 57.7268078,25.7240325 52.8221935,35.8630336 L59.5550431,32.8827266 C64.6295999,22.7257007 58.0385582,17.1098009 52.5945825,15.8134314 Z M43.2617459,19.4610693 L14.5926146,31.6556902 C17.2105665,32.5005703 19.4769782,34.3845242 20.6822591,37.0618187 C21.5852898,39.0690993 21.6448098,41.3037061 20.8412892,43.3735704 L52.1730126,30.0202304 C52.0800125,28.5771236 51.7201023,27.1303354 51.0281817,25.751653 C49.3439505,22.4006632 46.6395085,20.2037907 43.2617459,19.4610693 Z M17.2393965,50.8523243 L50.5752714,36.6495025 C51.2681219,35.4521287 51.7638123,34.1571981 52.0130525,32.8107278 L16.2591758,48.0029246 C14.6326046,48.6600536 12.8423532,48.6858234 11.192532,48.0590659 C9.47203073,47.4056183 8.11050971,46.1290945 7.36092915,44.462343 C7.08099895,43.8401872 7.35627915,43.10851 7.98123962,42.8195205 L18.3451674,38.0235831 C16.6330361,34.3053742 12.1960028,32.6321802 8.41275994,34.3016928 C5.9426781,35.3904654 4.00269665,37.455728 3.09129597,39.9664393 C2.23569533,42.3216118 2.36496543,44.8139162 3.45492624,46.9840985 C6.01707815,52.0837509 11.173002,53.5296188 17.2393965,50.8523243 Z M18.8734077,40.5416573 L10.3350714,44.4927145 C10.8037917,45.0366406 11.4036422,45.4590807 12.0974227,45.7223004 C13.1883135,46.1364573 14.3722044,46.1070062 15.4426352,45.6348673 C16.8534462,45.0145522 17.935037,43.8852843 18.4874575,42.4587437 C18.7292576,41.8356676 18.8575977,41.1895828 18.8734077,40.5416573 Z M61.8459498,31.8480431 L79.8842433,24.163131 C78.5143523,23.8686194 77.2356013,23.3302154 76.0814704,22.5543614 L63.2502509,28.0221533 C63.0112407,29.3612607 62.5239203,30.6534304 61.8459498,31.8480431 Z M63.390681,25.2380984 L87.0954687,15.1372709 C89.9719608,13.8368181 91.2609418,10.4711027 89.9728908,7.60697744 C88.2793595,3.84735281 83.8200062,2.14838903 80.0135134,3.82710514 L54.4031543,14.7221936 C57.8199768,15.4446674 60.5523189,17.6535043 62.2514301,21.0321046 C62.9331206,22.3905393 63.2930309,23.8143189 63.390681,25.2380984 Z" id="Shape" fill="#000000" fill-rule="nonzero"></path>
            </g>
        </g>
    </g>
</svg>