<?xml version="1.0" encoding="UTF-8"?>
<svg width="35px" height="35px" viewBox="0 0 35 35" version="1.1" xmlns="http://www.w3.org/2000/svg" xmlns:xlink="http://www.w3.org/1999/xlink">
    <!-- Generator: Sketch 53.1 (72631) - https://sketchapp.com -->
    <title>Artboard</title>
    <desc>Created with Sketch.</desc>
    <g id="Artboard" stroke="none" stroke-width="1" fill="none" fill-rule="evenodd">
        <g id="script" transform="translate(1.000000, 1.000000)" fill="#64A3C1" fill-rule="nonzero">
            <path d="M23.2164179,21 L9.78358209,21 C9.3358209,21 9,21.4285714 9,22 C9,22.5714286 9.3358209,23 9.78358209,23 L23.2164179,23 C23.6641791,23 24,22.5714286 24,22 C23.8880597,21.5714286 23.5522388,21 23.2164179,21 Z" id="Path"></path>
            <path d="M23.2164179,16 L9.78358209,16 C9.3358209,16 9,16.4285714 9,17 C9,17.5714286 9.3358209,18 9.78358209,18 L23.2164179,18 C23.6641791,18 24,17.5714286 24,17 C23.8880597,16.4285714 23.5522388,16 23.2164179,16 Z" id="Path"></path>
            <path d="M9,12 C9,12.5714286 9.3358209,13 9.78358209,13 L23.2164179,13 C23.6641791,13 24,12.5714286 24,12 C24,11.4285714 23.6641791,11 23.2164179,11 L9.67164179,11 C9.3358209,11 9,11.4285714 9,12 Z" id="Path"></path>
            <path d="M23.2164179,26 L9.78358209,26 C9.3358209,26 9,26.4285714 9,27 C9,27.5714286 9.3358209,28 9.78358209,28 L23.2164179,28 C23.6641791,28 24,27.5714286 24,27 C23.8880597,26.4285714 23.5522388,26 23.2164179,26 Z" id="Path"></path>
            <path d="M29.8456592,0 C29.5176849,0 29.1897106,0 28.8617363,0.110367893 C28.7524116,0 28.6430868,0 28.4244373,0 L10.7138264,0 C7.4340836,0.551839465 6.34083601,2.97993311 6.34083601,4.96655518 L6.34083601,22.4046823 L0.765273312,22.4046823 C0.327974277,22.4046823 0,22.735786 0,23.1772575 L0,29.0267559 C0,31.1237458 1.63987138,32.7792642 3.82636656,32.8896321 C3.93569132,33 4.04501608,33 4.26366559,33 L22.6302251,33 C24.2700965,33 25.4726688,32.6688963 26.3472669,32.1170569 C27.221865,31.5652174 27.5498392,30.6822742 27.5498392,29.4682274 L27.5498392,9.82274247 L33.2347267,9.82274247 C33.6720257,9.82274247 34,9.4916388 34,9.05016722 L34,3.86287625 C33.8906752,1.65551839 32.1414791,0 29.8456592,0 Z M6.45016077,27.2608696 L6.45016077,29.1371237 C6.45016077,30.4615385 5.35691318,31.4548495 4.04501608,31.4548495 C2.73311897,31.4548495 1.63987138,30.4615385 1.63987138,29.1371237 L1.63987138,24.0602007 L6.45016077,24.0602007 L6.45016077,27.2608696 Z M25.8006431,3.86287625 L25.8006431,29.5785953 C25.8006431,30.3511706 25.4726688,30.6822742 25.2540193,30.90301 C24.7073955,31.3444816 23.8327974,31.4548495 22.5209003,31.4548495 L22.5209003,31.4548495 L7.21543408,31.4548495 C7.76205788,30.7926421 8.09003215,29.909699 8.09003215,29.0267559 L8.09003215,4.96655518 C8.09003215,4.52508361 8.19935691,1.98662207 11.0418006,1.5451505 L26.6752412,1.5451505 C26.1286174,2.20735786 25.8006431,2.97993311 25.8006431,3.86287625 Z M32.2508039,8.27759197 L27.4405145,8.27759197 L27.4405145,3.86287625 C27.4405145,2.53846154 28.5337621,1.5451505 29.8456592,1.5451505 C31.1575563,1.5451505 32.2508039,2.64882943 32.2508039,3.86287625 L32.2508039,8.27759197 Z" id="Shape"></path>
            <path d="M12,7 C12.3,7 12.5,6.9047619 12.7,6.71428571 C12.9,6.52380952 13,6.23809524 13,6.04761905 C13,5.76190476 12.9,5.47619048 12.7,5.28571429 C12.4,4.9047619 11.6,4.9047619 11.3,5.28571429 C11.1,5.47619048 11,5.76190476 11,5.95238095 C11,6.52380952 11.4,7 12,7 Z" id="Path"></path>
            <path d="M16,7 C16.6,7 17,6.52380952 17,5.95238095 C17,5.47619048 16.5,5 16,5 C15.4,5 15,5.47619048 15,5.95238095 C15,6.52380952 15.5,7 16,7 Z" id="Path"></path>
            <path d="M21,7 C21.3,7 21.5,6.9047619 21.7,6.71428571 C21.9,6.52380952 22,6.23809524 22,6.04761905 C22,5.57142857 21.6,5.0952381 21,5 C20.4,5 20,5.47619048 20,5.95238095 C20,6.23809524 20.1,6.42857143 20.3,6.61904762 C20.4,6.9047619 20.7,7 21,7 Z" id="Path"></path>
        </g>
    </g>
</svg>