<?xml version="1.0" encoding="UTF-8"?>
<svg width="74px" height="74px" viewBox="0 0 74 74" version="1.1" xmlns="http://www.w3.org/2000/svg" xmlns:xlink="http://www.w3.org/1999/xlink">
    <!-- Generator: Sketch 53.1 (72631) - https://sketchapp.com -->
    <title>search</title>
    <desc>Created with Sketch.</desc>
    <g id="search" stroke="none" stroke-width="1" fill="none" fill-rule="evenodd">
        <g fill="#E3C200" fill-rule="nonzero" id="Group">
            <g>
                <path d="M29.5237113,10.2608247 C30.4773196,10.2608247 31.2402062,9.49793814 31.2402062,8.5443299 C31.2402062,7.59072165 30.4773196,6.82783505 29.5237113,6.82783505 C17.0505155,6.82783505 6.90412371,16.9742268 6.90412371,29.4474227 C6.90412371,41.9206186 17.0505155,52.0670103 29.5237113,52.0670103 C30.4773196,52.0670103 31.2402062,51.3041237 31.2402062,50.3505155 C31.2402062,49.3969072 30.4773196,48.6340206 29.5237113,48.6340206 C18.9195876,48.6340206 10.2989691,40.0134021 10.2989691,29.4092784 C10.2989691,18.8051546 18.9195876,10.2608247 29.5237113,10.2608247 Z" id="Path"></path>
                <path d="M58.5515464,49.4731959 C57.8649485,48.7865979 56.8350515,48.7865979 56.1484536,49.4731959 L54.0123711,51.6092784 L51.5329897,49.1298969 C56.1484536,43.9041237 58.971134,37.0762887 58.971134,29.5618557 C58.971134,13.2360825 45.7350515,0 29.485567,0 C13.2360825,0 0,13.2360825 0,29.485567 C0,45.7350515 13.2360825,58.971134 29.485567,58.971134 C37,58.971134 43.8278351,56.1484536 49.0536082,51.5329897 L51.5329897,54.0123711 L49.3969072,56.1484536 C49.0536082,56.4917526 48.9010309,56.9113402 48.9010309,57.3309278 C48.9010309,57.7505155 49.0536082,58.1701031 49.3969072,58.5134021 L62.9,72.0164948 C64.1969072,73.3134021 65.7989691,73.885567 67.4391753,73.885567 C69.0793814,73.885567 70.6814433,73.2752577 71.9783505,72.0164948 C73.1608247,70.8340206 73.8474227,69.1938144 73.8474227,67.4773196 C73.8474227,65.7608247 73.1608247,64.1587629 71.9783505,62.9381443 L58.5515464,49.4731959 Z M29.5237113,55.5381443 C15.1814433,55.5381443 3.47113402,43.8278351 3.47113402,29.485567 C3.47113402,15.143299 15.1814433,3.43298969 29.5237113,3.43298969 C43.8659794,3.43298969 55.5762887,15.143299 55.5762887,29.485567 C55.5762887,43.8278351 43.8659794,55.5381443 29.5237113,55.5381443 Z M69.5752577,69.5371134 C68.3927835,70.7195876 66.485567,70.7195876 65.3030928,69.5371134 L53.0969072,57.3309278 L57.2927835,53.0587629 L69.4989691,65.2649485 C70.1092784,65.8752577 70.3381443,66.5618557 70.3381443,67.4010309 C70.4525773,68.2783505 70.185567,68.9649485 69.5752577,69.5371134 Z" id="Shape"></path>
            </g>
        </g>
    </g>
</svg>