<?xml version="1.0" encoding="UTF-8"?>
<svg width="90px" height="90px" viewBox="0 0 90 90" version="1.1" xmlns="http://www.w3.org/2000/svg" xmlns:xlink="http://www.w3.org/1999/xlink">
    <!-- Generator: Sketch 53.1 (72631) - https://sketchapp.com -->
    <title>Artboard</title>
    <desc>Created with Sketch.</desc>
    <g id="Artboard" stroke="none" stroke-width="1" fill="none" fill-rule="evenodd">
        <path d="M87,51.4423306 L87,38.7574316 L74.1306413,37.4589774 C73.3325416,34.7621879 72.2351544,32.1652794 70.8384798,29.8680143 L79.1187648,19.6801427 L70.239905,10.7907253 L59.7648456,19.4803805 C57.5700713,18.3816885 55.175772,17.3828775 52.6817102,16.8834721 L51.2850356,3 L45,3 L44.9002375,3 L38.6152019,3 L37.2185273,16.8834721 C34.7244656,17.4827586 32.3301663,18.2818074 30.1353919,19.4803805 L19.6603325,10.7907253 L10.8812352,19.7800238 L19.1615202,29.9678954 C17.7648456,32.3650416 16.6674584,34.862069 15.8693587,37.5588585 L3,38.8573127 L3,51.3424495 L15.8693587,52.6409037 C16.6674584,55.3376932 17.7648456,57.9346017 19.1615202,60.2318668 L10.8812352,70.3198573 L19.760095,79.2092747 L30.2351544,70.5196195 C32.4299287,71.6183115 34.824228,72.6171225 37.3182898,73.1165279 L38.7149644,87 L45,87 L45.0997625,87 L51.3847981,87 L52.7814727,73.1165279 C55.2755344,72.5172414 57.6698337,71.7181926 59.8646081,70.5196195 L70.3396675,79.2092747 L79.2185273,70.3198573 L70.8384798,60.1319857 C72.2351544,57.7348395 73.3325416,55.2378121 74.1306413,52.5410226 L87,51.4423306 Z M44.9002375,64.1272295 C34.4251781,64.1272295 25.9453682,55.6373365 25.9453682,45.1498216 C25.9453682,34.6623068 34.4251781,26.1724138 44.9002375,26.1724138 C55.3752969,26.1724138 63.8551069,34.6623068 63.8551069,45.1498216 C63.8551069,55.6373365 55.3752969,64.1272295 44.9002375,64.1272295 Z" id="Shape" fill="#2E94B5" fill-rule="nonzero"></path>
    </g>
</svg>