<svg xmlns="http://www.w3.org/2000/svg" viewBox="0 0 95.49 60.61"><defs><style>.cls-1{fill:#e3c200;}</style></defs><title>users</title><g id="Layer_2" data-name="Layer 2"><g id="Layer_1-2" data-name="Layer 1"><path class="cls-1" d="M93.61,11.76A10,10,0,0,0,89,8.54s-.35-1.16.32-1.74S91.73,3,87.22,1.17c0,0-5.9-.68-3.67,4.24,0,0,.63,1.39-.18,1.79s-3.44.71-5.77,3.53-2,3.89-2,3.89a7.5,7.5,0,0,0-6-3.4l-.23-1.11a1.81,1.81,0,0,0,2.33-1.75c.31-2.32-1.21-1.74-1.21-1.74s1.56-4-3.53-4a3.41,3.41,0,0,0-2.82,4.11c.58,3.58,1.48,3.54,1.48,3.54l.22.89s-1.52,0-1.83.22a8.39,8.39,0,0,0-4.92-3.26S62.58,2.33,56.72.67c0,0-3.84,0-3.89,2.28A15.46,15.46,0,0,0,54,8.18s-3.4.81-4.2,2.33a4.68,4.68,0,0,0-.63,2.68L47.74,13s2.23-3,1-5.94-4.2-3.36-6.48-2.15c0,0-4,1.65-2.77,4.74a9.64,9.64,0,0,0,.82,2.1s-1.58.09-1.94.58c0,0-1.66-4.25-6-5.1,0,0,4.2-6.21-2.59-7.24,0,0-4.12.49-4,2.77a11.78,11.78,0,0,0,.81,3.76l.09.8a4.16,4.16,0,0,0-3.85,1.21l-.45,1.83a6.14,6.14,0,0,0-4.69-1.83s.49-2.68.49-3.08.67-.59.67-.59a4.73,4.73,0,0,0-5.61-3.64,3,3,0,0,0-2.61.68c-1,1-.83,3.58-.83,4.3s1.34,1.21,1.75,1.12.77.54.77.54l.18.31s-3.89.27-4.83,1.88-1.79,5.86-2.24,6.57-5,8.86-5,8.86.31,1.16.76,1.34c0,0-.76,1.12-1,1.43a4,4,0,0,0,0,2.15c.14.22.72,0,.72,0a1.83,1.83,0,0,1,.4-1.66c.67-.62.36-.31.36-.31l.13.8.41.32a4.85,4.85,0,0,1,.17-1.3,2.15,2.15,0,0,0,.14-.89l1,.4s3.31-5.95,3.62-6.66,1.57-4.79,2-4.7.27,1.12.27,1.12.23,3.67-1.25,5.72a25,25,0,0,0-3,6.89s.72,1,3.93,2.14L9.14,37H8.83a4.25,4.25,0,0,0-.56,2.83l.24.46v8.5l.18,1.83s-1.11,1-1.07,1.65A3.91,3.91,0,0,0,9,54.33a4.62,4.62,0,0,0,2.91.36,10.07,10.07,0,0,0,.41-3.53l-.58-.49s.78-8.23,1-9.62l.78-.54v-3l-.35-.18A39.51,39.51,0,0,1,14.26,33c.22-.18.39.31.39.31s-.38,8.14,0,8.77a12.75,12.75,0,0,0,.77,1.07l.32-.14,1.07,8.23s.09,3.94-.22,4.34-.29.72.24,1,3.38.27,3.52,0a3.65,3.65,0,0,0,.35-2c-.18-.62-.53-3.89-1.79-4.06,0,0,.81-7.38.9-7.7l.67-.31s-.31-2.28-.4-2.5.36-6.67.36-6.67l2.05-.71a12,12,0,0,1-.89-3.09c0-1-.27-6.84-2.33-9.79l.07-1.79,1.81-1.14s2.08,2.55,4,2.95c0,0-1.54,8.25-1.41,10.53s1.41,8.19,1.41,8.19.87,1.34.8,1.94a7.73,7.73,0,0,0,2.28,6.44,43.58,43.58,0,0,1-1.81,4.09c-.4.54-2.08,3-1.47,4,0,0,.33.6,2.34.67a1.33,1.33,0,0,0,.34,1.81c1,.87,3.8.52,3.8.52a3.49,3.49,0,0,1,1.37-2.4c1.14-.6,1.87-1.07,1.47-2a10.37,10.37,0,0,0-1.27-2A11.78,11.78,0,0,1,31.37,46c.13-2.55.6-6.17.67-8.59l2.68-.6s3-.2,3-1.27-.2-9.2-2.35-14.43c0,0,2.62-.73,2.89-1.14,0,0,1.14,4.5.33,7.25a10.11,10.11,0,0,0-.74,4.49c.2,2.42,2.46,11.87,2.46,11.87l.69-.07S42.1,50.26,43,51.6A3.18,3.18,0,0,1,42,53.42a2.32,2.32,0,0,0-.67,1.94s.14,1,.14,1.34.33,2.15,3.15,2.08c0,0,2-2.41,2.28-2.75a2.59,2.59,0,0,0,0-1.88c-.2-.2-.81-1-.81-1a2.73,2.73,0,0,1-.46-1.88A64.24,64.24,0,0,0,46.53,43s4-1.54,6.17-2.68c0,0,1.2,6,1.27,6.64s1.34.47,1.34.47,2.22,5.84,2.49,7.11a4.09,4.09,0,0,1,0,2s-2,.07-2,1.28,2.08,2.61,5.64,1.81c0,0,1.4-.67.87-3.15s-1.61-9.46-.87-10.8l1.34.27.6-2.49.81-.13s-.27,6,2.55,10.06l.51,2.24a1.53,1.53,0,0,0-1.85,0c-.94.74-1.48,3.82,3.08,3.69,0,0,2.15,0,2.35-.67s-.47-1.54-.47-1.54l-.07-.47s1.18-.07,1.49-.14.46-1.61.46-1.61l-.61-2.14a3.35,3.35,0,0,1-.47-2.08,15.11,15.11,0,0,0-.2-8.45,3.1,3.1,0,0,1,0-3c.87-1.47,1.68-3.68,2.82-5.63,0,0,.13.54,1.14.74,0,0-.67-2.69,0-2.55a.75.75,0,0,0,.52.74,4.26,4.26,0,0,1,0-1.5,22.19,22.19,0,0,0,0-3l1.83-3.71s-1.16,6.48-.85,7l.85.09S76,41.81,78,44.76s3.54,7.38,3.54,8.32v7.51s3.43.27,4.1-1.47.38-1.88,1.19-2.95A12.09,12.09,0,0,1,89.13,54,8.26,8.26,0,0,1,87,48.79C87.15,46,88.64,36.31,90.51,34a5.73,5.73,0,0,0,.8-5.23l1.2-.27v6s-.59,2.55.48,3.48,1.39-.94,1.39-.94-.72-2.54,0-3.08a3.34,3.34,0,0,0,.92-1.61S96.43,19.81,93.61,11.76Zm-42,16.81-.18.94-2.26-6.15L51.76,21h.53l.59.61Zm24-7.11a21.44,21.44,0,0,0-1.7,3.74l-.4-.2a8.43,8.43,0,0,1-1-3.18,19.39,19.39,0,0,1,.76-3.17s.27-.85.58-.58,1.75,2.1,1.75,2.1S76,21.11,75.55,21.46Z"/></g></g></svg>