<?xml version="1.0" encoding="UTF-8"?>
<svg width="103px" height="77px" viewBox="0 0 103 77" version="1.1" xmlns="http://www.w3.org/2000/svg" xmlns:xlink="http://www.w3.org/1999/xlink">
    <!-- Generator: Sketch 43.1 (39012) - http://www.bohemiancoding.com/sketch -->
    <title>wireframes</title>
    <desc>Created with Sketch.</desc>
    <defs></defs>
    <g id="Page-1" stroke="none" stroke-width="1" fill="none" fill-rule="evenodd">
        <g id="wireframes" fill-rule="nonzero">
            <path d="M102.243243,75.2298851 L102.243243,1.77011494 C102.243243,0.792507454 101.497612,0 100.57783,0 L2.57149412,0 C1.6517119,0 0.906081081,0.792507454 0.906081081,1.77011494 L0.906081081,75.2298851 C0.906081081,76.2074925 1.6517119,77 2.57149412,77 L100.57783,77 C101.497612,77 102.243243,76.2074925 102.243243,75.2298851 Z" id="Shape-Copy-2" fill-opacity="0.01" fill="#FFFFFF"></path>
            <path d="M82.2432432,73.5703231 L82.2432432,4.7215076 C82.2432432,3.805263 81.4976124,3.0625 80.5778302,3.0625 L22.5714941,3.0625 C21.6517119,3.0625 20.9060811,3.805263 20.9060811,4.7215076 L20.9060811,73.5703231 C20.9060811,74.4865677 21.6517119,75.2293307 22.5714941,75.2293307 L80.5778302,75.2293307 C81.4976124,75.2293307 82.2432432,74.4865677 82.2432432,73.5703231 Z" id="Shape-Copy-2" fill="#FFFFF7"></path>
            <path d="M36.1718147,49 L73.6911197,49 C74.5920475,49 75.3223938,48.2724627 75.3223938,47.375 L75.3223938,19.75 C75.3223938,18.8525373 74.5920475,18.125 73.6911197,18.125 L36.1718147,18.125 C35.2708868,18.125 34.5405405,18.8525373 34.5405405,19.75 L34.5405405,47.375 C34.5405405,48.2724627 35.2708868,49 36.1718147,49 Z" id="Shape-Copy-3" fill="#FCB717"></path>
            <path d="M31.2972973,46.375 L71.7027027,46.375 C72.6729327,46.375 73.4594595,45.5914983 73.4594595,44.625 L73.4594595,14.875 C73.4594595,13.9085017 72.6729327,13.125 71.7027027,13.125 L31.2972973,13.125 C30.3270673,13.125 29.5405405,13.9085017 29.5405405,14.875 L29.5405405,44.625 C29.5405405,45.5914983 30.3270673,46.375 31.2972973,46.375 Z M54.4513514,29.75 L69.9459459,18.375 L69.9459459,41.125 L54.4513514,29.75 Z M66.3709459,42.875 L36.6290541,42.875 L51.5,31.92875 L66.3709459,42.875 Z M51.5,27.57125 L36.6290541,16.625 L66.3709459,16.625 L51.5,27.57125 Z M48.5486486,29.75 L33.0540541,41.125 L33.0540541,18.375 L48.5486486,29.75 Z" id="Shape" fill="#000000"></path>
            <path d="M83.8506757,74.8125 L83.8506757,2.1875 C83.8506757,1.22100169 83.0641489,0.4375 82.0939189,0.4375 L20.9060811,0.4375 C19.9358511,0.4375 19.1493243,1.22100169 19.1493243,2.1875 L19.1493243,74.8125 C19.1493243,75.7789983 19.9358511,76.5625 20.9060811,76.5625 L82.0939189,76.5625 C83.0641489,76.5625 83.8506757,75.7789983 83.8506757,74.8125 Z M80.3371622,73.0625 L22.6628378,73.0625 L22.6628378,3.9375 L80.3371622,3.9375 L80.3371622,73.0625 Z" id="Shape" fill="#000000"></path>
            <rect id="Rectangle-path" fill="#000000" x="29.5405405" y="53.375" width="43.9189189" height="3.5"></rect>
            <rect id="Rectangle-path" fill="#000000" x="29.5405405" y="62.125" width="43.9189189" height="3.5"></rect>
        </g>
    </g>
</svg>