<?xml version="1.0" encoding="UTF-8"?>
<svg width="720px" height="720px" viewBox="0 0 720 720" version="1.1" xmlns="http://www.w3.org/2000/svg" xmlns:xlink="http://www.w3.org/1999/xlink">
    <!-- Generator: Sketch 53.1 (72631) - https://sketchapp.com -->
    <title>dislike</title>
    <desc>Created with Sketch.</desc>
    <defs>
        <radialGradient cx="49.7777778%" cy="49.8333333%" fx="49.7777778%" fy="49.8333333%" r="71%" id="radialGradient-1">
            <stop stop-color="#FAFAFA" offset="0%"></stop>
            <stop stop-color="#EEEEEE" offset="100%"></stop>
        </radialGradient>
    </defs>
    <g id="dislike" stroke="none" stroke-width="1" fill="none" fill-rule="evenodd">
        <g id="dislike_square" fill-rule="nonzero">
            <g id="Page-1">
                <g id="workflow">
                    <g id="Group">
                        <rect id="Rectangle-Copy" fill="url(#radialGradient-1)" x="0" y="0" width="720" height="720"></rect>
                        <g id="Rectangle" transform="translate(200.000000, 201.000000)">
                            <rect id="path-2" fill="#000000" x="0" y="0" width="321" height="321"></rect>
                            <rect id="path-2-2" fill="#FFFFFF" x="0" y="0" width="321" height="321"></rect>
                        </g>
                    </g>
                </g>
            </g>
            <path d="M366.19,459 C367.198511,458.974079 368.202607,458.856934 369.19,458.65 C377.01,456.94 383.07,449.84 383.51,440.97 C384.51,414.71 387.9,399.15 404.19,375.7 C406.258928,379.055249 409.908264,381.110362 413.85,381.14 L450.55,381.14 C456.855512,381.096399 461.956399,375.995512 462,369.69 L462,287.24 C461.956399,280.934488 456.855512,275.833601 450.55,275.79 L413.85,275.79 C410.016202,275.810895 406.445403,277.742578 404.33,280.94 C402.157853,279.117144 399.86239,277.446502 397.46,275.94 C393.69,273.68 389.46,272.33 383.58,271.72 C371.9,270.51 352.74,271.41 308.5,271.22 C307.454146,271.248401 306.447668,271.624951 305.64,272.29 C296.74,279.56 292.87,286.51 291.11,294.34 C290.238503,294.604815 289.467883,295.12786 288.9,295.84 C282.24,304.16 279.83,313.76 281.38,322.03 C280.738686,322.328324 280.174246,322.769613 279.73,323.32 C271.96,332.44 270.39,344.12 273.15,352.95 C268.69802,357.96154 266.525237,364.595772 267.15,371.27 C268.26,379 273.88,386.77 281,388 L340,388 C336.48,411.19 338.82,432.51 346.66,446.33 C350.9,453.78 357.07,457.96 363.19,458.85 C364.183399,458.990623 365.187822,459.037496 366.19,458.99 L366.19,459 Z M354.59,441.83 C347.9,430.03 345.12,407.97 349.66,384.29 C349.843971,382.958841 349.460313,381.611622 348.602647,380.577098 C347.744981,379.542574 346.492195,378.9159 345.15,378.85 L282.31,378.85 C278.939935,377.223992 276.643095,373.97895 276.23,370.26 C275.81,366.59 277.3,362.26 281.02,358.26 L308.56,358.26 C311.089464,358.26 313.14,356.209464 313.14,353.68 C313.14,351.150536 311.089464,349.1 308.56,349.1 L281.56,349.1 C280.18,344.04 281.24,337.3 285.78,330.77 L308.52,330.77 C311.049464,330.77 313.1,328.719464 313.1,326.19 C313.1,323.660536 311.049464,321.61 308.52,321.61 L290.72,321.61 C289.34,316.61 290.4,309.82 294.94,303.29 L308.52,303.29 C311.049464,303.29 313.1,301.239464 313.1,298.71 C313.1,296.180536 311.049464,294.13 308.52,294.13 L300.45,294.13 C301.86,289.23 304.45,285.47 310.4,280.39 C352.97,280.54 372.7,279.87 382.61,280.89 C387.66,281.42 390.03,282.16 392.7,283.75 C395.11,285.19 398.05,287.75 402.36,291.2 L402.36,362.6 C381.08,389.67 375.36,412.43 374.36,440.6 C371.29,454.6 358.92,450.76 354.6,441.82 L354.59,441.83 Z M450.59,371.98 L413.89,371.98 C413.274271,372.00882 412.674904,371.776822 412.239041,371.340959 C411.803178,370.905096 411.57118,370.305729 411.6,369.69 L411.6,287.24 C411.57118,286.624271 411.803178,286.024904 412.239041,285.589041 C412.674904,285.153178 413.274271,284.92118 413.89,284.95 L450.59,284.95 C451.205729,284.92118 451.805096,285.153178 452.240959,285.589041 C452.676822,286.024904 452.90882,286.624271 452.88,287.24 L452.88,369.69 C452.90882,370.305729 452.676822,370.905096 452.240959,371.340959 C451.805096,371.776822 451.205729,372.00882 450.59,371.98 L450.59,371.98 Z" id="Shape" fill="#64A3C1"></path>
        </g>
    </g>
</svg>