<?xml version="1.0" encoding="UTF-8"?>
<svg width="720px" height="720px" viewBox="0 0 720 720" version="1.1" xmlns="http://www.w3.org/2000/svg" xmlns:xlink="http://www.w3.org/1999/xlink">
    <!-- Generator: Sketch 53.1 (72631) - https://sketchapp.com -->
    <title>likes</title>
    <desc>Created with Sketch.</desc>
    <defs>
        <radialGradient cx="49.7777778%" cy="49.8333333%" fx="49.7777778%" fy="49.8333333%" r="71%" id="radialGradient-1">
            <stop stop-color="#FAFAFA" offset="0%"></stop>
            <stop stop-color="#EEEEEE" offset="100%"></stop>
        </radialGradient>
    </defs>
    <g id="likes" stroke="none" stroke-width="1" fill="none" fill-rule="evenodd">
        <g id="dislike_square" fill-rule="nonzero">
            <g id="Page-1">
                <g id="workflow">
                    <g id="Group">
                        <rect id="Rectangle-Copy" fill="url(#radialGradient-1)" x="0" y="0" width="720" height="720"></rect>
                        <g id="Rectangle" transform="translate(200.000000, 201.000000)">
                            <rect id="path-2" fill="#000000" x="0" y="0" width="321" height="321"></rect>
                            <rect id="path-2-2" fill="#FFFFFF" x="0" y="0" width="321" height="321"></rect>
                        </g>
                    </g>
                </g>
            </g>
            <path d="M357.76,263 C356.717814,263.024697 355.68011,263.145204 354.66,263.36 C346.6,265.12 340.36,272.44 339.91,281.59 C338.91,308.65 335.38,324.69 318.59,348.86 C316.449274,345.389723 312.667424,343.271887 308.59,343.26 L270.8,343.26 C264.301193,343.303618 259.043618,348.561193 259,355.06 L259,440.06 C259.043553,446.560464 264.299576,451.82094 270.8,451.87 L308.63,451.87 C312.583534,451.847334 316.264416,449.851179 318.44,446.55 C320.68053,448.431254 323.045947,450.158542 325.52,451.72 C329.41,454.05 333.81,455.45 339.83,456.07 C351.83,457.32 371.63,456.4 417.22,456.59 C418.299941,456.561054 419.338848,456.170143 420.17,455.48 C429.34,448 433.33,440.83 435.17,432.76 C436.069634,432.480779 436.866457,431.941445 437.46,431.21 C444.32,422.63 446.81,412.74 445.21,404.21 C445.869521,403.904815 446.448333,403.4493 446.9,402.88 C454.9,393.48 456.54,381.44 453.69,372.34 C458.59,366.55 460.61,359.76 459.89,353.46 C458.73,345.46 452.94,337.46 445.58,336.2 L384.76,336.2 C388.39,312.29 385.98,290.31 377.9,276.07 C373.53,268.39 367.17,264.07 360.9,263.16 C359.873096,263.018922 358.835441,262.97206 357.8,263.02 L357.76,263 Z M369.71,280.7 C376.61,292.86 379.48,315.6 374.8,340.01 C374.628983,341.379179 375.031377,342.758166 375.911918,343.820496 C376.792459,344.882826 378.072862,345.534052 379.45,345.62 L444.22,345.62 C447.690454,347.298301 450.057518,350.639372 450.49,354.47 C450.92,358.25 449.38,362.7 445.55,366.86 L417.16,366.86 C415.420063,366.779934 413.776909,367.662593 412.883002,369.157492 C411.989095,370.652391 411.989095,372.517609 412.883002,374.012508 C413.776909,375.507407 415.420063,376.390066 417.16,376.31 L445,376.31 C446.41,381.52 445.32,388.46 440.64,395.19 L417.16,395.19 C414.553216,395.19 412.44,397.303216 412.44,399.91 C412.44,402.516784 414.553216,404.63 417.16,404.63 L435.51,404.63 C436.93,409.85 435.84,416.79 431.16,423.52 L417.16,423.52 C414.553216,423.52 412.44,425.633216 412.44,428.24 C412.44,430.846784 414.553216,432.96 417.16,432.96 L425.48,432.96 C424.02,438.01 421.36,441.89 415.23,447.12 C371.35,446.97 351,447.67 340.79,446.61 C335.59,446.07 333.14,445.3 330.39,443.61 C327.91,442.12 324.87,439.51 320.39,435.94 L320.39,362.36 C342.33,334.46 348.22,311 349.31,281.95 C352.47,267.49 365.22,271.48 369.67,280.7 L369.71,280.7 Z M270.8,352.7 L308.63,352.7 C309.264287,352.671254 309.88141,352.910652 310.330379,353.359621 C310.779348,353.80859 311.018746,354.425713 310.99,355.06 L310.99,440.06 C311.018746,440.694287 310.779348,441.31141 310.330379,441.760379 C309.88141,442.209348 309.264287,442.448746 308.63,442.42 L270.8,442.42 C270.165713,442.448746 269.54859,442.209348 269.099621,441.760379 C268.650652,441.31141 268.411254,440.694287 268.44,440.06 L268.44,355.06 C268.411254,354.425713 268.650652,353.80859 269.099621,353.359621 C269.54859,352.910652 270.165713,352.671254 270.8,352.7 Z" id="Shape" fill="#64A3C1"></path>
        </g>
    </g>
</svg>