<?xml version="1.0" encoding="UTF-8"?>
<svg width="720px" height="720px" viewBox="0 0 720 720" version="1.1" xmlns="http://www.w3.org/2000/svg" xmlns:xlink="http://www.w3.org/1999/xlink">
    <!-- Generator: Sketch 53.1 (72631) - https://sketchapp.com -->
    <title>wants</title>
    <desc>Created with Sketch.</desc>
    <defs>
        <radialGradient cx="49.7777778%" cy="49.8333333%" fx="49.7777778%" fy="49.8333333%" r="71%" id="radialGradient-1">
            <stop stop-color="#FAFAFA" offset="0%"></stop>
            <stop stop-color="#EEEEEE" offset="100%"></stop>
        </radialGradient>
    </defs>
    <g id="wants" stroke="none" stroke-width="1" fill="none" fill-rule="evenodd">
        <g id="dislike_square" fill-rule="nonzero">
            <g id="Page-1">
                <g id="workflow">
                    <g id="Group">
                        <rect id="Rectangle-Copy" fill="url(#radialGradient-1)" x="0" y="0" width="720" height="720"></rect>
                        <g id="Rectangle" transform="translate(200.000000, 201.000000)">
                            <rect id="path-2" fill="#000000" x="0" y="0" width="321" height="321"></rect>
                            <rect id="path-2-2" fill="#FFFFFF" x="0" y="0" width="321" height="321"></rect>
                        </g>
                    </g>
                </g>
            </g>
            <path d="M421.30146,396.505935 C421.00146,395.805935 420.30146,395.805935 419.80146,395.605935 C417.60146,394.505935 416.70146,393.205935 416.80146,391.105935 C416.90146,388.905935 418.30146,387.805935 420.20146,387.105935 C421.30146,386.705935 422.50146,386.605935 423.60146,386.305935 C425.40146,385.905935 425.50146,385.705935 424.50146,384.305935 C423.70146,383.105935 423.00146,382.005935 422.60146,380.705935 C421.40146,377.405935 422.50146,374.405935 425.70146,372.805935 C426.90146,372.205935 428.20146,371.705935 429.50146,371.205935 C434.60146,369.205935 435.00146,367.605935 431.60146,363.305935 C429.20146,360.205935 426.50146,357.405935 424.00146,354.405935 C418.60146,348.005935 415.90146,340.805935 418.50146,332.405935 C420.00146,327.605935 420.50146,322.905935 419.90146,318.005935 C419.20146,312.605935 417.90146,307.405935 414.80146,302.905935 C406.90146,291.405935 396.00146,284.005935 382.60146,280.305935 C368.00146,276.205935 353.10146,275.405935 338.20146,278.005935 C323.60146,280.505935 310.70146,286.605935 300.30146,297.505935 C291.00146,307.205935 286.50146,318.905935 285.80146,332.105935 C285.40146,340.005935 286.90146,347.705935 288.90146,355.205935 C291.60146,364.905935 296.30146,373.405935 303.20146,380.805935 C306.60146,384.405935 309.90146,388.205935 312.70146,392.305935 C315.10146,395.805935 316.40146,399.705935 316.00146,403.905935 C315.60146,409.605935 314.60146,415.105935 312.80146,420.605935 C310.70146,426.805935 307.90146,432.805935 305.30146,438.705935 C303.30146,443.105935 303.40146,443.205935 308.10146,443.205935 C325.10146,443.205935 342.10146,443.205935 359.10146,443.205935 C364.90146,443.205935 370.60146,443.205935 376.40146,443.205935 C379.30146,443.205935 380.00146,442.505935 379.80146,439.505935 C379.80146,438.805935 379.60146,438.105935 379.60146,437.505935 C379.40146,434.505935 378.60146,431.505935 378.70146,428.505935 C378.90146,423.405935 382.70146,419.405935 387.80146,419.205935 C389.60146,419.105935 391.30146,419.205935 393.10146,419.405935 C397.30146,419.905935 401.40146,420.505935 405.60146,420.805935 C408.70146,421.005935 411.80146,421.205935 414.90146,420.505935 C420.40146,419.205935 421.80146,416.505935 419.40146,411.305935 C418.50146,409.305935 417.50146,407.405935 416.70146,405.405935 C415.60146,402.405935 416.70146,399.805935 419.20146,398.005935 C420.00146,397.605935 421.00146,397.505935 421.30146,396.505935 M342.50146,449.805935 C330.90146,449.805935 319.30146,449.805935 307.60146,449.805935 C306.60146,449.805935 305.60146,449.805935 304.70146,449.805935 C298.80146,450.005935 295.10146,444.105935 297.80146,438.705935 C298.90146,436.405935 300.00146,434.105935 301.00146,431.805935 C303.80146,425.305935 306.90146,419.005935 308.10146,412.005935 C308.30146,410.605935 308.60146,409.105935 308.90146,407.705935 C310.00146,401.905935 308.40146,396.905935 304.50146,392.605935 C301.20146,389.005935 298.10146,385.205935 294.90146,381.505935 C287.50146,372.905935 283.70146,362.605935 281.00146,351.805935 C279.10146,343.805935 278.60146,335.705935 279.30146,327.605935 C280.40146,315.705935 284.90146,305.105935 292.50146,295.905935 C302.10146,284.205935 314.60146,277.205935 329.00146,273.205935 C335.60146,271.305935 342.30146,270.405935 349.20146,270.105935 C362.70146,269.605935 375.90146,270.805935 388.70146,275.205935 C398.10146,278.405935 406.40146,283.505935 413.30146,290.605935 C419.50146,296.905935 424.20146,304.205935 425.80146,313.105935 C427.00146,319.805935 427.60146,326.505935 425.20146,333.105935 C422.60146,340.305935 425.30146,346.005935 430.00146,351.305935 C433.00146,354.705935 436.20146,358.105935 438.60146,362.005935 C442.20146,367.705935 440.60146,373.505935 434.60146,376.505935 C433.30146,377.105935 431.90146,377.605935 430.50146,378.205935 C429.30146,378.705935 429.10146,379.405935 429.80146,380.505935 C430.50146,381.505935 431.20146,382.405935 431.70146,383.405935 C433.20146,386.505935 432.80146,388.905935 430.40146,391.305935 C429.70146,392.005935 429.30146,392.505935 429.60146,393.605935 C430.60146,398.005935 429.70146,400.005935 425.90146,402.405935 C425.60146,402.605935 425.20146,402.805935 424.90146,403.005935 C423.40146,403.605935 423.40146,404.605935 424.10146,405.805935 C424.50146,406.605935 424.90146,407.405935 425.30146,408.205935 C426.00146,409.605935 426.50146,411.105935 426.90146,412.605935 C428.40146,418.805935 426.10146,423.605935 420.30146,426.205935 C416.60146,427.805935 412.60146,428.305935 408.50146,428.005935 C402.40146,427.705935 396.30146,426.805935 390.20146,426.105935 C386.50146,425.705935 384.90146,427.405935 385.60146,431.105935 C386.30146,434.705935 386.60146,438.305935 386.50146,441.905935 C386.40146,443.905935 386.00146,445.805935 385.20146,447.605935 C384.50146,449.205935 383.30146,450.105935 381.50146,450.105935 C380.50146,450.105935 379.50146,450.105935 378.60146,450.105935 C366.60146,449.805935 354.60146,449.805935 342.50146,449.805935" id="Fill-1" stroke="#64A3C1" stroke-width="3" fill="#64A3C1"></path>
            <path d="M356.80146,321.005935 C356.90146,316.205935 353.30146,312.305935 348.40146,312.305935 C345.20146,312.305935 341.30146,314.305935 336.60146,318.605935 C335.20146,319.905935 333.00146,319.805935 331.70146,318.405935 C327.90146,314.205935 324.50146,312.305935 321.40146,312.305935 C315.60146,312.305935 312.20146,315.205935 312.00146,321.205935 C311.80146,327.205935 319.00146,334.805935 334.20146,343.305935 C349.30146,334.805935 356.60146,327.205935 356.80146,321.005935 Z M348.40146,305.405935 C357.20146,305.405935 363.90146,312.505935 363.70146,321.105935 C363.40146,330.805935 354.00146,340.305935 336.00146,350.205935 C335.00146,350.805935 333.70146,350.805935 332.70146,350.205935 C314.20146,340.205935 304.80146,330.605935 305.20146,320.905935 C305.60146,311.005935 312.30146,305.405935 321.50146,305.405935 C325.90146,305.405935 330.20146,307.405935 334.50146,311.405935 C339.40146,307.505935 344.00146,305.405935 348.40146,305.405935 Z" id="Path-2-Copy" stroke="#64A3C1" stroke-width="0.5" fill="#64A3C1"></path>
        </g>
    </g>
</svg>