<?xml version="1.0" encoding="UTF-8"?>
<svg width="720px" height="720px" viewBox="0 0 720 720" version="1.1" xmlns="http://www.w3.org/2000/svg" xmlns:xlink="http://www.w3.org/1999/xlink">
    <!-- Generator: Sketch 53.1 (72631) - https://sketchapp.com -->
    <title>day-to-day</title>
    <desc>Created with Sketch.</desc>
    <defs>
        <radialGradient cx="50.0055556%" cy="50.0011111%" fx="50.0055556%" fy="50.0011111%" r="70.71%" id="radialGradient-1">
            <stop stop-color="#FAFAFA" offset="0%"></stop>
            <stop stop-color="#EEEEEE" offset="100%"></stop>
        </radialGradient>
    </defs>
    <g id="day-to-day" stroke="none" stroke-width="1" fill="none" fill-rule="evenodd">
        <g id="wants" fill-rule="nonzero">
            <g id="Group">
                <rect id="Rectangle-Copy" fill="url(#radialGradient-1)" x="0" y="0" width="720" height="720"></rect>
                <g id="Rectangle" transform="translate(200.000000, 201.000000)">
                    <rect id="path-2_2_" fill="#000000" x="0" y="0" width="321" height="321"></rect>
                    <rect id="path-2_1_" fill="#FFFFFF" x="0" y="0" width="321" height="321"></rect>
                </g>
            </g>
            <g id="Shape" transform="translate(254.000000, 274.000000)" fill="#64A3C1">
                <path d="M106.5,29 C108.5,29 110,27.4 110,25.4 L110,3.6 C110,1.7 108.4,0.1 106.5,0.1 C104.6,0.1 103,1.7 103,3.6 L103,25.4 C103,27.4 104.5,29 106.5,29 Z" id="Path"></path>
                <path d="M163.5,52 C164.4,52 165.3,51.7 166,51 L186,31 C187.4,29.6 187.4,27.5 186,26.1 C184.6,24.7 182.5,24.7 181.1,26.1 L161.1,46.1 C159.7,47.4 159.7,49.5 161,50.9 L161.1,51 C161.7,51.7 162.6,52 163.5,52 Z" id="Path"></path>
                <path d="M46,51 C47.4,52.3 49.6,52.3 51,51 C52.4,49.7 52.4,47.6 51.1,46.2 L51,46.1 L31,26.1 C29.6,24.7 27.5,24.7 26.1,26.1 C24.7,27.5 24.7,29.6 26.1,31 L46,51 Z" id="Path"></path>
                <path d="M176.3,74.9 C176.9,76.2 178.2,77 179.6,77 C180.1,77 180.6,76.9 181,76.7 L190.9,72.6 C192.7,71.9 193.5,69.9 192.8,68.2 L192.8,68.1 C192,66.3 189.9,65.5 188.1,66.3 L188.1,66.3 L178.2,70.4 C176.5,71 175.6,72.8 176.2,74.5 C176.2,74.7 176.2,74.8 176.3,74.9 Z" id="Path"></path>
                <path d="M19.2,74.8 L29.1,78.8 C29.5,79 30,79 30.5,79 C32.4,79 34,77.4 34,75.5 C34,74 33.1,72.7 31.8,72.2 L21.9,68.2 C20,67.5 18,68.5 17.3,70.4 C16.7,72.1 17.5,74 19.2,74.8 L19.2,74.8 Z" id="Path"></path>
                <path d="M71.3,32.8 C71.8,34.1 73.1,35 74.5,35 C76.5,35 78,33.4 78,31.4 C78,30.9 77.9,30.4 77.7,30 L73.6,20.1 C72.9,18.3 70.9,17.5 69.1,18.2 C67.3,19 66.5,21.1 67.3,22.9 L67.3,22.9 L71.3,32.8 Z" id="Path"></path>
                <path d="M134.2,33.8 C134.6,34 135.1,34 135.5,34 C136.9,34 138.2,33.1 138.8,31.8 L142.7,21.9 C143.4,20.1 142.5,18.1 140.8,17.3 C139,16.6 137,17.5 136.2,19.3 L136.2,19.3 L132.2,29.2 C131.5,31 132.4,33 134.2,33.8 Z" id="Path"></path>
                <path d="M207.5,111 L177.3,111 C177.3,70.5 146.2,43 105.5,43 C64.8,43 35,70.5 35,111 L3.6,111 C1.7,111 0.1,112.6 0.1,114.5 C0.1,116.4 1.7,118 3.6,118 L207.5,118 C209.4,118 211,116.4 211,114.5 C211,112.6 209.4,111 207.5,111 Z M41.8,111 C41.8,74.3 68.7,50 105.5,50 C142.3,50 170.6,74.3 170.6,111 C108.8,111 108.6,111.5 41.8,111 Z"></path>
                <path d="M190.5,130 L21.5,130 C19.6,130 18,131.6 18,133.5 C18,135.4 19.6,137 21.5,137 L190.5,137 C192.4,137 194,135.4 194,133.5 C194,131.6 192.4,130 190.5,130 Z" id="Path"></path>
                <path d="M172.5,147 L38.5,147 C36.6,147 35,148.6 35,150.5 C35,152.4 36.6,154 38.5,154 L172.5,154 C174.4,154 176,152.4 176,150.5 C176,148.6 174.4,147 172.5,147 Z" id="Path"></path>
                <path d="M157.5,165 L52.5,165 C50.6,165 49,166.6 49,168.5 C49,170.4 50.6,172 52.5,172 L157.5,172 C159.4,172 161,170.4 161,168.5 C161,166.6 159.4,165 157.5,165 Z" id="Path"></path>
            </g>
        </g>
    </g>
</svg>