<?xml version="1.0" encoding="UTF-8"?>
<svg width="720px" height="720px" viewBox="0 0 720 720" version="1.1" xmlns="http://www.w3.org/2000/svg" xmlns:xlink="http://www.w3.org/1999/xlink">
    <!-- Generator: Sketch 53.1 (72631) - https://sketchapp.com -->
    <title>day-to-day</title>
    <desc>Created with Sketch.</desc>
    <defs>
        <radialGradient cx="50.0055556%" cy="50.0011111%" fx="50.0055556%" fy="50.0011111%" r="70.71%" id="radialGradient-1">
            <stop stop-color="#FAFAFA" offset="0%"></stop>
            <stop stop-color="#EEEEEE" offset="100%"></stop>
        </radialGradient>
    </defs>
    <g id="day-to-day" stroke="none" stroke-width="1" fill="none" fill-rule="evenodd">
        <g id="wants" fill-rule="nonzero">
            <g id="Group">
                <rect id="Rectangle-Copy" fill="url(#radialGradient-1)" x="0" y="0" width="720" height="720"></rect>
                <g id="Rectangle" transform="translate(200.000000, 201.000000)">
                    <rect id="path-2_2_" fill="#000000" x="0" y="0" width="321" height="321"></rect>
                    <rect id="path-2_1_" fill="#FFFFFF" x="0" y="0" width="321" height="321"></rect>
                </g>
            </g>
            <path d="M449.403522,384.956049 C447.703522,377.156049 440.003522,372.156049 432.203522,373.856049 C428.503522,374.656049 425.203522,376.956049 423.103522,380.156049 C421.703522,382.456049 421.003522,385.156049 421.103522,387.856049 L397.503522,389.956049 C396.303522,382.456049 395.603522,374.756049 395.603522,367.156049 L395.603522,361.256049 C395.603522,358.756049 397.603522,356.756049 400.103522,356.756049 L400.103522,356.756049 L418.203522,356.756049 C428.403522,356.756049 436.703522,348.456049 436.703522,338.256049 C436.703522,328.056049 428.403522,319.756049 418.203522,319.756049 L418.203522,319.756049 L376.003522,319.756049 C385.003522,312.756049 388.903522,301.056049 385.803522,290.056049 C383.203522,280.556049 375.603522,273.256049 366.103522,270.856049 C357.703522,268.756049 348.803522,270.556049 341.903522,275.856049 C335.103522,281.056049 331.203522,289.156049 331.203522,297.756049 C331.203522,306.256049 335.003522,314.356049 341.603522,319.756049 L301.603522,319.756049 C291.403522,319.756049 283.103522,328.056049 283.103522,338.256049 C283.103522,348.456049 291.403522,356.756049 301.603522,356.756049 L316.703522,356.756049 C319.203522,356.756049 321.203522,358.756049 321.203522,361.256049 L321.203522,361.256049 L321.203522,367.656049 C321.203522,370.056049 320.903522,372.456049 320.803522,374.856049 L294.703522,387.756049 C290.003522,382.756049 282.303522,381.756049 276.503522,385.556049 C269.803522,389.956049 268.003522,398.956049 272.403522,405.656049 L272.403522,405.656049 C274.503522,408.856049 277.803522,411.156049 281.603522,411.856049 C282.603522,412.056049 283.603522,412.156049 284.603522,412.156049 C287.403522,412.156049 290.203522,411.356049 292.503522,409.756049 C295.703522,407.656049 298.003522,404.356049 298.703522,400.556049 C299.203522,397.856049 298.903522,395.156049 297.803522,392.656049 L320.403522,381.556049 C319.803522,388.856049 318.603522,396.156049 316.903522,403.356049 L311.103522,426.956049 C309.903522,431.756049 310.703522,436.756049 313.303522,440.956049 C315.903522,445.256049 320.103522,448.256049 325.003522,449.356049 C326.403522,449.656049 327.903522,449.856049 329.303522,449.856049 C337.703522,449.856049 345.003522,444.256049 347.203522,436.156049 L356.603522,400.856049 C357.003522,399.256049 359.803522,399.256049 360.203522,400.856049 L369.603522,436.156049 C372.303522,445.956049 382.303522,451.756049 392.103522,449.356049 C396.903522,448.256049 401.003522,445.156049 403.503522,440.956049 C406.103522,436.756049 406.803522,431.756049 405.703522,426.956049 L399.803522,402.856049 C399.203522,400.456049 399.003522,398.056049 398.503522,395.656049 L422.103522,393.556049 C424.303522,398.956049 429.503522,402.456049 435.303522,402.556049 C436.303522,402.556049 437.403522,402.456049 438.403522,402.256049 C442.103522,401.456049 445.403522,399.156049 447.503522,395.956049 C449.503522,392.656049 450.203522,388.756049 449.403522,384.956049 Z M292.703522,399.356049 C291.803522,404.056049 287.203522,407.156049 282.503522,406.156049 C277.803522,405.256049 274.703522,400.656049 275.703522,395.956049 C276.103522,393.656049 277.503522,391.656049 279.403522,390.456049 C280.803522,389.556049 282.503522,389.056049 284.203522,389.056049 C284.803522,389.056049 285.403522,389.156049 286.003522,389.256049 C288.203522,389.756049 290.203522,391.056049 291.503522,392.956049 L291.503522,392.956049 C292.803522,394.856049 293.203522,397.156049 292.703522,399.356049 Z M394.003522,404.256049 L399.903522,428.356049 C400.703522,431.656049 400.203522,435.056049 398.403522,437.956049 C394.703522,443.956049 386.803522,445.856049 380.803522,442.156049 C378.003522,440.456049 376.003522,437.756049 375.103522,434.656049 L365.703522,399.356049 C364.603522,395.256049 360.403522,392.856049 356.403522,393.856049 C353.703522,394.556049 351.603522,396.656049 350.903522,399.356049 L341.503522,434.656049 C339.603522,441.356049 332.803522,445.356049 326.003522,443.656049 C322.703522,442.856049 319.903522,440.856049 318.203522,437.956049 C316.403522,435.056049 315.903522,431.656049 316.703522,428.356049 L322.503522,404.756049 C324.503522,396.156049 325.803522,387.356049 326.303522,378.556049 L350.203522,366.756049 C351.603522,365.956049 352.103522,364.156049 351.303522,362.756049 C350.603522,361.456049 349.003522,360.956049 347.603522,361.556049 L326.603522,371.956049 C326.603522,370.556049 326.903522,369.156049 326.903522,367.756049 L326.903522,361.356049 C326.903522,355.656049 322.303522,351.056049 316.603522,351.056049 L316.603522,351.056049 L301.503522,351.056049 C294.503522,351.056049 288.803522,345.356049 288.803522,338.356049 C288.803522,331.356049 294.503522,325.656049 301.503522,325.656049 L301.503522,325.656049 L343.203522,325.656049 C346.003522,325.656049 348.303522,323.356049 348.303522,319.856049 C348.303522,318.256049 347.503522,316.756049 346.203522,315.756049 C336.303522,308.656049 334.003522,294.956049 341.103522,285.056049 C342.303522,283.356049 343.803522,281.756049 345.503522,280.456049 C351.003522,276.256049 358.103522,274.756049 364.803522,276.456049 C372.303522,278.356049 378.203522,284.156049 380.303522,291.556049 C383.003522,300.956049 379.303522,310.956049 371.103522,316.256049 C368.703522,317.756049 368.003522,320.856049 369.503522,323.256049 C370.403522,324.756049 372.103522,325.656049 373.803522,325.656049 L418.403522,325.656049 C425.403522,325.656049 431.103522,331.356049 431.103522,338.356049 C431.103522,345.356049 425.403522,351.056049 418.403522,351.056049 L400.303522,351.056049 C394.603522,351.056049 390.003522,355.656049 390.003522,361.356049 L390.003522,361.356049 L390.003522,367.256049 C390.103522,375.056049 390.703522,382.856049 392.003522,390.556049 L385.903522,391.056049 C384.303522,391.256049 383.203522,392.656049 383.403522,394.256049 C383.603522,395.656049 384.803522,396.756049 386.203522,396.756049 L386.503522,396.756049 L393.103522,396.156049 C393.103522,398.856049 393.403522,401.556049 394.003522,404.256049 Z M442.503522,392.756049 C441.303522,394.756049 439.303522,396.056049 437.003522,396.556049 C432.303522,397.556049 427.703522,394.556049 426.603522,389.856049 L426.603522,389.856049 C425.603522,385.156049 428.603522,380.456049 433.303522,379.456049 L433.303522,379.456049 C433.903522,379.356049 434.603522,379.256049 435.203522,379.256049 C440.003522,379.256049 443.903522,383.256049 443.903522,388.056049 C443.903522,389.756049 443.403522,391.356049 442.503522,392.756049 L442.503522,392.756049 Z" id="Shape" fill="#64A3C1"></path>
        </g>
    </g>
</svg>