<?xml version="1.0" encoding="UTF-8"?>
<svg width="720px" height="720px" viewBox="0 0 720 720" version="1.1" xmlns="http://www.w3.org/2000/svg" xmlns:xlink="http://www.w3.org/1999/xlink">
    <!-- Generator: Sketch 53.1 (72631) - https://sketchapp.com -->
    <title>role</title>
    <desc>Created with Sketch.</desc>
    <defs>
        <radialGradient cx="49.9933333%" cy="50.0044444%" fx="49.9933333%" fy="50.0044444%" r="70.71%" id="radialGradient-1">
            <stop stop-color="#FAFAFA" offset="0%"></stop>
            <stop stop-color="#EEEEEE" offset="100%"></stop>
        </radialGradient>
    </defs>
    <g id="role" stroke="none" stroke-width="1" fill="none" fill-rule="evenodd">
        <g id="role_square" fill-rule="nonzero">
            <g id="Page-1">
                <g id="Artboard-Copy">
                    <g id="role">
                        <g id="Group">
                            <rect id="Rectangle-Copy" fill="url(#radialGradient-1)" x="0" y="0" width="720" height="720"></rect>
                            <g id="Rectangle" transform="translate(200.000000, 201.000000)">
                                <rect id="path-2_2_" fill="#000000" x="0" y="0" width="321" height="321"></rect>
                                <rect id="path-2_1_" fill="#FFFFFF" x="0" y="0" width="321" height="321"></rect>
                            </g>
                            <path d="M361,275 C407.8,275 446,313.2 446,360 C446,406.8 407.8,445 361,445 C314.2,445 276,406.8 276,360 C276,313.2 314.2,275 361,275 Z M361,281.1 C317.6,281.1 282.1,316.6 282.1,360 C282.1,403.4 317.6,438.9 361,438.9 C404.4,438.9 439.9,403.4 439.9,360 C439.9,316.6 404.4,281.1 361,281.1 Z M361,305.7 C348.8,305.7 339.5,315 339.5,327.2 C339.5,339.4 348.8,348.7 361,348.7 C373.2,348.7 382.5,339.4 382.5,327.2 C382.5,315 373.2,305.7 361,305.7 Z M361,299.6 C376.6,299.6 388.6,311.6 388.6,327.2 C388.6,342.8 376.6,354.8 361,354.8 C345.4,354.8 333.4,342.8 333.4,327.2 C333.4,311.6 345.4,299.6 361,299.6 Z M361,415.9 C379.4,415.9 396.5,406.7 407.1,391.8 C405.8,380.5 381,370.3 361,370.3 C341,370.3 316.2,380.5 314.9,391.8 C325.5,406.8 342.6,415.9 361,415.9 Z M361,422.1 C340.2,422.1 320.9,411.5 309.3,394.5 L308.8,393.7 L308.8,392.8 C308.8,376.4 337.5,364.3 361,364.3 C384.5,364.3 413.2,376.3 413.2,392.8 L413.2,393.7 L412.7,394.5 C401.1,411.5 381.8,422.1 361,422.1 Z" id="uEA01-user" stroke="#64A3C1" fill="#64A3C1"></path>
                        </g>
                    </g>
                </g>
            </g>
            <path d="M308.8,392.8 L308.8,393.7 L309.3,394.5 C320.9,411.5 340.2,422.1 361,422.1 C381.8,422.1 401.1,411.5 412.7,394.5 L413.2,393.7 L413.2,392.8 C413.2,376.3 384.5,364.3 361,364.3 C337.5,364.3 308.8,376.4 308.8,392.8 Z M407.1,391.8 C396.5,406.7 379.4,415.9 361,415.9 C342.6,415.9 325.5,406.8 314.9,391.8 C316.2,380.5 341,370.3 361,370.3 C381,370.3 405.8,380.5 407.1,391.8 Z" id="Shape" stroke="#64A3C1" fill="#64A3C1"></path>
            <path d="M361,299.6 C345.4,299.6 333.4,311.6 333.4,327.2 C333.4,342.8 345.4,354.8 361,354.8 C376.6,354.8 388.6,342.8 388.6,327.2 C388.6,311.6 376.6,299.6 361,299.6 Z M361,348.7 C348.8,348.7 339.5,339.4 339.5,327.2 C339.5,315 348.8,305.7 361,305.7 C373.2,305.7 382.5,315 382.5,327.2 C382.5,339.4 373.2,348.7 361,348.7 Z" id="Shape" stroke="#64A3C1" fill="#64A3C1"></path>
        </g>
    </g>
</svg>