<?xml version="1.0" encoding="UTF-8"?>
<svg width="720px" height="720px" viewBox="0 0 720 720" version="1.1" xmlns="http://www.w3.org/2000/svg" xmlns:xlink="http://www.w3.org/1999/xlink">
    <!-- Generator: Sketch 53.1 (72631) - https://sketchapp.com -->
    <title>day-to-day</title>
    <desc>Created with Sketch.</desc>
    <defs>
        <radialGradient cx="50.0055556%" cy="50.0011111%" fx="50.0055556%" fy="50.0011111%" r="70.71%" id="radialGradient-1">
            <stop stop-color="#FAFAFA" offset="0%"></stop>
            <stop stop-color="#EEEEEE" offset="100%"></stop>
        </radialGradient>
    </defs>
    <g id="day-to-day" stroke="none" stroke-width="1" fill="none" fill-rule="evenodd">
        <g id="wants" fill-rule="nonzero">
            <g id="Group">
                <rect id="Rectangle-Copy" fill="url(#radialGradient-1)" x="0" y="0" width="720" height="720"></rect>
                <g id="Rectangle" transform="translate(200.000000, 201.000000)">
                    <rect id="path-2_2_" fill="#000000" x="0" y="0" width="321" height="321"></rect>
                    <rect id="path-2_1_" fill="#FFFFFF" x="0" y="0" width="321" height="321"></rect>
                </g>
            </g>
            <g id="Shape" transform="translate(280.000000, 280.000000)" fill="#64A3C1">
                <path d="M53.9,99.4 C52.6,98.2 50.7,98.2 49.4,99.4 L13.3,135.5 C12.1,136.8 12.1,138.7 13.3,140 C13.9,140.6 14.7,140.9 15.6,140.9 C16.5,140.9 17.3,140.6 17.9,140 L54,103.9 C55.1,102.6 55.1,100.7 53.9,99.4 Z" id="Path"></path>
                <path d="M57.2,108.3 L21.1,144.4 C19.9,145.7 19.9,147.6 21.1,148.9 C21.7,149.5 22.5,149.8 23.4,149.8 C24.3,149.8 25.1,149.5 25.7,148.9 L61.8,112.8 C63,111.5 63,109.6 61.8,108.3 C60.5,107.1 58.5,107.1 57.2,108.3 Z" id="Path"></path>
                <path d="M114.4,92.2 L97.8,75.6 L136,37.4 L143.6,37.4 C144.4,37.4 145.2,37.1 145.8,36.5 L159.1,23.2 C160.3,22 160.3,20 159.1,18.8 L141.3,0.9 C140.1,-0.3 138.1,-0.3 136.9,0.9 L123.6,14.2 C123,14.8 122.7,15.6 122.7,16.4 L122.7,24 L84.4,62.2 C80.3,58 71.3,49 67.8,45.6 C73.7,27.4 63.8,7.9 45.6,2 C39.1,-0.1 32.2,-0.2 25.6,1.6 C24.5,1.9 23.7,2.7 23.4,3.8 C23.1,4.9 23.4,6 24.2,6.8 L36,18.7 L32.3,32.4 L18.7,36 L6.9,24.2 C6.1,23.4 5,23.1 3.9,23.4 C2.8,23.7 2,24.5 1.7,25.6 C-3.5,43.9 7.2,63 25.5,68.2 C32.1,70.1 39.1,69.9 45.6,67.8 L62.2,84.5 L58.1,88.6 C50.9,85.1 42.3,86.5 36.7,92.2 L5.5,123.4 C-1.8,130.8 -1.8,142.7 5.5,150.1 L9.9,154.5 C13.4,158 18.2,160 23.2,160 C28.2,160 33,158 36.5,154.5 L67.6,123.4 C73.3,117.8 74.7,109.2 71.2,102 L75.3,97.9 L92,114.6 C86.1,132.7 96,152.2 114.1,158.1 C117.6,159.2 121.2,159.8 124.9,159.8 C128,159.8 131.2,159.4 134.2,158.5 C135.3,158.2 136.1,157.4 136.4,156.3 C136.7,155.2 136.4,154.1 135.6,153.3 L124,141.3 L127.7,127.6 L141.4,123.9 L153.2,135.7 C154,136.5 155.1,136.8 156.2,136.5 C157.3,136.2 158.1,135.4 158.4,134.3 C161.8,122.3 158.4,109.4 149.6,100.5 C140.3,91.4 126.8,88.2 114.4,92.2 Z M48.6,61.9 C47.7,61 46.4,60.7 45.2,61.2 C30.7,66.9 14.3,59.8 8.6,45.3 C7.1,41.4 6.4,37.1 6.7,32.9 L15.5,41.7 C16.3,42.5 17.4,42.8 18.5,42.5 L35.7,37.9 C36.8,37.6 37.6,36.8 37.9,35.7 L42.5,18.5 C42.8,17.4 42.5,16.3 41.7,15.5 L32.9,6.7 C48.5,5.6 62,17.3 63.1,32.8 C63.4,37 62.8,41.2 61.2,45.2 C60.4,47.1 60.4,47.1 72,58.8 L79.9,66.7 L66.7,80 L48.6,61.9 Z M128,27.6 C128.6,27 128.9,26.2 128.9,25.4 L128.9,17.8 L139.1,7.6 L152.4,20.9 L142.2,31.1 L134.6,31.1 C133.8,31.1 133,31.4 132.4,32 L67.8,96.7 L63.4,92.3 L128,27.6 Z M63.3,118.9 L32.2,150 C27.2,154.8 19.4,154.8 14.4,150 L10,145.6 C5.1,140.7 5.1,132.7 10,127.8 L41.1,96.7 C46,91.8 53.9,91.8 58.8,96.6 C58.8,96.6 58.8,96.6 58.9,96.7 L63.3,101.1 C68.2,106 68.2,113.9 63.3,118.9 L63.3,118.9 L63.3,118.9 Z M153.3,127.1 L144.5,118.3 C143.7,117.5 142.6,117.2 141.5,117.5 L124.3,122.1 C123.2,122.4 122.4,123.2 122.1,124.3 L117.5,141.5 C117.2,142.6 117.5,143.7 118.3,144.5 L127.1,153.3 C111.5,154.4 98,142.7 96.9,127.2 C96.6,123 97.2,118.8 98.8,114.8 C99.3,113.6 99,112.3 98.1,111.4 L80,93.3 L93.3,80 L111.4,98.1 C112.3,99 113.6,99.3 114.8,98.8 C125.3,94.7 137.1,97.2 145.1,105.1 C150.8,110.9 153.8,118.9 153.3,127.1 L153.3,127.1 Z"></path>
            </g>
        </g>
    </g>
</svg>