<?xml version="1.0" encoding="UTF-8"?>
<svg width="720px" height="720px" viewBox="0 0 720 720" version="1.1" xmlns="http://www.w3.org/2000/svg" xmlns:xlink="http://www.w3.org/1999/xlink">
    <!-- Generator: Sketch 53.1 (72631) - https://sketchapp.com -->
    <title>wants</title>
    <desc>Created with Sketch.</desc>
    <defs>
        <radialGradient cx="50.0055556%" cy="50.0011111%" fx="50.0055556%" fy="50.0011111%" r="70.71%" id="radialGradient-1">
            <stop stop-color="#FAFAFA" offset="0%"></stop>
            <stop stop-color="#EEEEEE" offset="100%"></stop>
        </radialGradient>
    </defs>
    <g id="wants" stroke="none" stroke-width="1" fill="none" fill-rule="evenodd">
        <g id="wants_square" fill-rule="nonzero">
            <g id="Group">
                <rect id="Rectangle-Copy" fill="url(#radialGradient-1)" x="0" y="0" width="720" height="720"></rect>
                <g id="Rectangle" transform="translate(200.000000, 201.000000)">
                    <rect id="path-2_2_" fill="#000000" x="0" y="0" width="321" height="321"></rect>
                    <rect id="path-2_1_" fill="#FFFFFF" x="0" y="0" width="321" height="321"></rect>
                </g>
            </g>
            <path d="M421.3,396.7 C421,396 420.3,396 419.8,395.8 C417.6,394.7 416.7,393.4 416.8,391.3 C416.9,389.1 418.3,388 420.2,387.3 C421.3,386.9 422.5,386.8 423.6,386.5 C425.4,386.1 425.5,385.9 424.5,384.5 C423.7,383.3 423,382.2 422.6,380.9 C421.4,377.6 422.5,374.6 425.7,373 C426.9,372.4 428.2,371.9 429.5,371.4 C434.6,369.4 435,367.8 431.6,363.5 C429.2,360.4 426.5,357.6 424,354.6 C418.6,348.2 415.9,341 418.5,332.6 C420,327.8 420.5,323.1 419.9,318.2 C419.2,312.8 417.9,307.6 414.8,303.1 C406.9,291.6 396,284.2 382.6,280.5 C368,276.4 353.1,275.6 338.2,278.2 C323.6,280.7 310.7,286.8 300.3,297.7 C291,307.4 286.5,319.1 285.8,332.3 C285.4,340.2 286.9,347.9 288.9,355.4 C291.6,365.1 296.3,373.6 303.2,381 C306.6,384.6 309.9,388.4 312.7,392.5 C315.1,396 316.4,399.9 316,404.1 C315.6,409.8 314.6,415.3 312.8,420.8 C310.7,427 307.9,433 305.3,438.9 C303.3,443.3 303.4,443.4 308.1,443.4 C325.1,443.4 342.1,443.4 359.1,443.4 C364.9,443.4 370.6,443.4 376.4,443.4 C379.3,443.4 380,442.7 379.8,439.7 C379.8,439 379.6,438.3 379.6,437.7 C379.4,434.7 378.6,431.7 378.7,428.7 C378.9,423.6 382.7,419.6 387.8,419.4 C389.6,419.3 391.3,419.4 393.1,419.6 C397.3,420.1 401.4,420.7 405.6,421 C408.7,421.2 411.8,421.4 414.9,420.7 C420.4,419.4 421.8,416.7 419.4,411.5 C418.5,409.5 417.5,407.6 416.7,405.6 C415.6,402.6 416.7,400 419.2,398.2 C420,397.8 421,397.7 421.3,396.7 M342.5,450 C330.9,450 319.3,450 307.6,450 C306.6,450 305.6,450 304.7,450 C298.8,450.2 295.1,444.3 297.8,438.9 C298.9,436.6 300,434.3 301,432 C303.8,425.5 306.9,419.2 308.1,412.2 C308.3,410.8 308.6,409.3 308.9,407.9 C310,402.1 308.4,397.1 304.5,392.8 C301.2,389.2 298.1,385.4 294.9,381.7 C287.5,373.1 283.7,362.8 281,352 C279.1,344 278.6,335.9 279.3,327.8 C280.4,315.9 284.9,305.3 292.5,296.1 C302.1,284.4 314.6,277.4 329,273.4 C335.6,271.5 342.3,270.6 349.2,270.3 C362.7,269.8 375.9,271 388.7,275.4 C398.1,278.6 406.4,283.7 413.3,290.8 C419.5,297.1 424.2,304.4 425.8,313.3 C427,320 427.6,326.7 425.2,333.3 C422.6,340.5 425.3,346.2 430,351.5 C433,354.9 436.2,358.3 438.6,362.2 C442.2,367.9 440.6,373.7 434.6,376.7 C433.3,377.3 431.9,377.8 430.5,378.4 C429.3,378.9 429.1,379.6 429.8,380.7 C430.5,381.7 431.2,382.6 431.7,383.6 C433.2,386.7 432.8,389.1 430.4,391.5 C429.7,392.2 429.3,392.7 429.6,393.8 C430.6,398.2 429.7,400.2 425.9,402.6 C425.6,402.8 425.2,403 424.9,403.2 C423.4,403.8 423.4,404.8 424.1,406 C424.5,406.8 424.9,407.6 425.3,408.4 C426,409.8 426.5,411.3 426.9,412.8 C428.4,419 426.1,423.8 420.3,426.4 C416.6,428 412.6,428.5 408.5,428.2 C402.4,427.9 396.3,427 390.2,426.3 C386.5,425.9 384.9,427.6 385.6,431.3 C386.3,434.9 386.6,438.5 386.5,442.1 C386.4,444.1 386,446 385.2,447.8 C384.5,449.4 383.3,450.3 381.5,450.3 C380.5,450.3 379.5,450.3 378.6,450.3 C366.6,450 354.6,450 342.5,450" id="Fill-1" fill="#64A3C1"></path>
            <path d="M356.8,321.2 C356.9,316.4 353.3,312.5 348.4,312.5 C345.2,312.5 341.3,314.5 336.6,318.8 C335.2,320.1 333,320 331.7,318.6 C327.9,314.4 324.5,312.5 321.4,312.5 C315.6,312.5 312.2,315.4 312,321.4 C311.8,327.4 319,335 334.2,343.5 C349.3,335 356.6,327.4 356.8,321.2 Z M348.4,305.6 C357.2,305.6 363.9,312.7 363.7,321.3 C363.4,331 354,340.5 336,350.4 C335,351 333.7,351 332.7,350.4 C314.2,340.4 304.8,330.8 305.2,321.1 C305.6,311.2 312.3,305.6 321.5,305.6 C325.9,305.6 330.2,307.6 334.5,311.6 C339.4,307.7 344,305.6 348.4,305.6 Z" id="Path-2-Copy" fill="#64A3C1"></path>
        </g>
    </g>
</svg>