<?xml version="1.0" encoding="UTF-8"?>
<svg width="720px" height="720px" viewBox="0 0 720 720" version="1.1" xmlns="http://www.w3.org/2000/svg" xmlns:xlink="http://www.w3.org/1999/xlink">
    <!-- Generator: Sketch 53.1 (72631) - https://sketchapp.com -->
    <title>day-to-day</title>
    <desc>Created with Sketch.</desc>
    <defs>
        <radialGradient cx="50.0055556%" cy="50.0011111%" fx="50.0055556%" fy="50.0011111%" r="70.71%" id="radialGradient-1">
            <stop stop-color="#FAFAFA" offset="0%"></stop>
            <stop stop-color="#EEEEEE" offset="100%"></stop>
        </radialGradient>
    </defs>
    <g id="day-to-day" stroke="none" stroke-width="1" fill="none" fill-rule="evenodd">
        <g id="wants" fill-rule="nonzero">
            <g id="Group">
                <rect id="Rectangle-Copy" fill="url(#radialGradient-1)" x="0" y="0" width="720" height="720"></rect>
                <g id="Rectangle" transform="translate(200.000000, 201.000000)">
                    <rect id="path-2_2_" fill="#000000" x="0" y="0" width="321" height="321"></rect>
                    <rect id="path-2_1_" fill="#FFFFFF" x="0" y="0" width="321" height="321"></rect>
                </g>
            </g>
            <g id="Group-2" transform="translate(261.000000, 261.000000)" fill="#64A3C1">
                <path d="M184.7,55 L181.4,55 C174.6,55 169.1,60.5 169.1,67.3 L169.1,152.1 L179.9,194.6 C180.3,196 181.5,196.9 182.9,197 C184.4,197.1 185.6,196 185.9,194.6 L197,152.1 L197,67.3 C197.1,60.6 191.7,55.1 185,55 C184.9,55 184.8,55 184.7,55 Z M175.3,82.9 L191,82.9 L191,148.2 L175.3,148.2 L175.3,82.9 Z M181.3,61 L184.6,61 C188.1,61 190.9,63.8 190.9,67.3 L190.9,77.2 L175.2,77.2 L175.2,67.3 C175.2,63.9 177.9,61.1 181.3,61 L181.3,61 Z M183.2,181.7 L176,154.4 L190.2,154.4 L183.2,181.7 Z" id="Shape"></path>
                <path d="M150.3,27.8 L124,27.8 L124,20.6 C124.1,19 122.9,17.7 121.4,17.6 C121.3,17.6 121.2,17.6 121,17.6 L109.3,17.6 L109.3,15.2 C109.3,6.8 101.8,5.68434189e-14 92.6,5.68434189e-14 L68.7,5.68434189e-14 C59.5,5.68434189e-14 52,6.9 52,15.2 L52,17.3 L40.6,17.3 C39,17.2 37.7,18.4 37.6,19.9 C37.6,20 37.6,20.1 37.6,20.3 L37.6,27.5 L11.6,27.5 C5.4,27.5 5.68434189e-14,32.3 5.68434189e-14,38.3 L5.68434189e-14,186.3 C5.68434189e-14,192.3 5.1,197.1 11.7,197.1 L150.4,197.1 C156.7,197.1 162.1,192.3 162.1,186.3 L162.1,38.6 C162,32.6 156.9,27.8 150.3,27.8 Z M58.3,15.2 C58.3,10.2 63.1,6 69,6 L93,6 C99,6 103.8,10.2 103.8,15.3 L103.8,17.4 L58.3,17.4 L58.3,15.2 Z M118.4,23.6 L118.4,43 L43.9,43 L43.9,23.6 L118.4,23.6 Z M156,186.5 C156,189.2 153.3,191.3 150.3,191.3 L11.7,191.3 C8.7,191.3 6,189.2 6,186.5 L6,38.5 C6,35.8 8.7,33.7 11.7,33.7 L38,33.7 L38,46 C37.9,47.6 39.1,48.9 40.6,49 C40.7,49 40.8,49 41,49 L121.4,49 C123,49.1 124.3,47.9 124.4,46.4 C124.4,46.3 124.4,46.2 124.4,46 L124.4,33.8 L150.7,33.8 C153.7,33.8 156.4,35.9 156.4,38.6 L156.4,186.6 L156,186.5 L156,186.5 Z" id="Shape-2"></path>
                <path d="M136.7,144.3 L136.7,113.2 C136.8,111.6 135.6,110.3 134.1,110.2 C134,110.2 133.9,110.2 133.7,110.2 L121.7,110.2 L121.7,101.6 C121.8,100 120.6,98.7 119.1,98.6 C119,98.6 118.9,98.6 118.7,98.6 L83.5,98.6 L83.5,90.9 C93.4,89.4 100.1,80.1 98.5,70.3 C97.1,61.4 89.4,54.9 80.5,55 C70.6,54.9 62.4,62.9 62.3,72.8 C62.3,72.9 62.3,73 62.3,73.1 C62.4,82 68.8,89.5 77.6,90.9 L77.6,98.6 L42.2,98.6 C40.6,98.5 39.3,99.7 39.2,101.2 C39.2,101.3 39.2,101.4 39.2,101.6 L39.2,110.2 L27.2,110.2 C25.6,110.1 24.3,111.3 24.2,112.8 C24.2,112.9 24.2,113 24.2,113.2 L24.2,144.3 C14.3,145.9 7.5,155.3 9.1,165.3 C10.7,175.3 20.1,182 30.1,180.4 C40.1,178.8 46.8,169.4 45.2,159.4 C43.9,151.7 37.9,145.6 30.1,144.3 L30.1,116.1 L39.1,116.1 L39.1,124.7 C39,126.3 40.2,127.6 41.7,127.7 C41.8,127.7 41.9,127.7 42.1,127.7 L77.4,127.7 L77.4,141.9 L59.3,160 C58.1,161.1 58.1,162.9 59.2,164.1 L59.3,164.2 L78.4,183.2 C79,183.7 79.7,184.1 80.5,184.1 C81.3,184.1 82.1,183.8 82.6,183.2 L101.7,164.2 C102.9,163.1 102.9,161.3 101.8,160.1 L101.7,160 L83.5,141.9 L83.5,127.4 L118.8,127.4 C120.4,127.5 121.7,126.3 121.8,124.8 C121.8,124.7 121.8,124.6 121.8,124.4 L121.8,116.1 L130.8,116.1 L130.8,144.3 C120.9,145.9 114.2,155.1 115.8,164.9 C117.2,173.7 124.8,180.2 133.7,180.2 C143.7,180.3 151.8,172.3 152,162.3 C152.1,153.4 145.6,145.7 136.7,144.3 L136.7,144.3 Z M68.2,73.1 C68.1,66.3 73.6,60.8 80.4,60.7 C87.2,60.6 92.7,66.1 92.8,72.9 C92.9,79.7 87.4,85.2 80.6,85.3 L80.5,85.3 C73.8,85.3 68.3,79.8 68.2,73.1 L68.2,73.1 Z M39.5,162.1 C39.5,168.9 34.1,174.4 27.3,174.4 C20.5,174.4 15,169 15,162.2 C15,155.4 20.4,149.9 27.2,149.9 L27.3,149.9 C33.9,149.8 39.4,155.1 39.5,161.7 C39.5,161.8 39.5,162 39.5,162.1 L39.5,162.1 Z M80.5,176.9 L65.5,162.1 L80.5,147.3 L95.5,162.1 L80.5,176.9 Z M45.2,121.4 L45.2,104.5 L115.8,104.5 L115.8,121.4 L45.2,121.4 Z M133.8,174.2 C127.1,174.1 121.6,168.6 121.7,161.9 C121.8,155.2 127.3,149.7 134,149.8 C140.7,149.9 146.1,155.3 146.1,162 C146,168.7 140.5,174.1 133.8,174.2 L133.8,174.2 Z" id="Shape-3"></path>
            </g>
        </g>
    </g>
</svg>