<?xml version="1.0" encoding="utf-8"?>
<!-- Generator: Adobe Illustrator 22.1.0, SVG Export Plug-In . SVG Version: 6.00 Build 0)  -->
<svg version="1.1" id="Layer_1" xmlns="http://www.w3.org/2000/svg" xmlns:xlink="http://www.w3.org/1999/xlink" x="0px" y="0px"
	 width="428px" height="428px" viewBox="0 0 428 428" style="enable-background:new 0 0 428 428;" xml:space="preserve">
<style type="text/css">
	.st0{fill:#F3F3F3;}
	.st1{fill:#C9C9C9;}
	.st2{fill:#000000;}
	.st3{fill:#2F383A;}
	.st4{fill:none;stroke:#F3F3F3;stroke-width:4;stroke-miterlimit:10;}
</style>
<g>
	<path class="st0" d="M51,28L51,28C66,6.1,71.1,6.1,96,6.1h253l11,10.2c9.4,8.7,14.8,21,14.8,33.8v355.6V394
		c-7.7,9.7-19.4,27.2-31.8,27.2H99.1c-15.8,0-30.9-6.3-42.1-17.4l-6-18.5V28z"/>
	<rect x="156.8" y="237.9" class="st1" width="187.3" height="14.4"/>
	<rect x="156.8" y="305.3" class="st1" width="187.3" height="14.4"/>
	<rect x="156.8" y="367.7" class="st1" width="187.3" height="14.4"/>
	<polygon class="st1" points="109.8,370.2 94,354.5 83.9,364.5 109.8,390.3 156.4,343.7 146.4,333.6 	"/>
	<polygon class="st1" points="109.8,307.8 94,292 83.9,302.1 109.8,327.9 156.4,281.3 146.4,271.2 	"/>
	<polygon class="st1" points="109.8,240 94,224.2 83.9,234.6 109.8,260.5 156.4,213.8 146.4,203.4 	"/>
	<path class="st2" d="M162.9,159.6l-12.6,12.6l30.5,30.5l12.6-12.6c4.3,2.5,9,4.3,14,5.7v17.9h43.4v-17.9c4.7-1.4,9.3-3.2,14-5.7
		l12.6,12.6l30.5-30.5L295.3,160c2.5-4.3,4.3-9,5.7-14h17.9v-43.4h-17.6c-1.4-4.7-3.2-9.3-5.7-14L308.2,76l-30.9-30.9l-12.6,12.6
		c-4.3-2.5-9-4.3-14-5.7V34.1h-43.4V52c-4.7,1.4-9.3,3.2-14,5.7l-12.6-12.6l-30.5,30.5l12.6,12.6c-2.5,4.3-4.3,9-5.7,14h-17.9v43.4
		h17.9C158.6,150.7,160.4,155.3,162.9,159.6z M153.5,117h14.7l1.1-5.7c1.4-7.2,4.3-14,8.3-19.7l3.2-5l-10.4-10.4l10.4-10.4
		l10.4,10.4l5-3.2c6.1-3.9,12.6-6.8,19.7-8.3l5.7-1.1V48.8h14.7v14.7l5.7,1.1c7.2,1.4,14,4.3,19.7,8.3l5,3.2l10.4-10.4l10.4,10.4
		l-10.4,10.4l3.2,5c3.9,6.1,6.8,12.6,8.3,19.7l1.1,5.7h14.7v14.7h-14.7l-1.1,5.7c-1.4,7.2-4.3,14-8.3,19.7l-3.2,5l10.4,10.4
		L277.3,183l-10.4-10.4l-5,3.2c-6.1,3.9-12.6,6.8-19.7,8.3l-5.7,1.1v14.7h-14.7v-14.7L216,184c-7.2-1.4-14-4.3-19.7-8.3l-5-3.2
		L180.8,183l-10.4-10.4l10.4-10.4l-2.9-5c-3.9-6.1-6.8-12.6-8.3-19.7l-1.1-5.7h-14.7V117H153.5z"/>
	<path class="st2" d="M229.2,164c21.9,0,39.5-17.9,39.5-39.5c0-21.9-17.9-39.5-39.5-39.5c-21.9,0-39.5,17.9-39.5,39.5
		C189.8,146,207.4,164,229.2,164z M229.2,99c14,0,25.1,11.5,25.1,25.1s-11.5,25.1-25.1,25.1s-25.1-11.5-25.1-25.1S215.3,99,229.2,99
		z"/>
</g>
<path class="st3" d="M-403.8-47.7"/>
<path class="st4" d="M86.9,6.1h252c19.8,0,35.9,16.1,35.9,35.9v343.3c0,19.8-16.1,35.9-35.9,35.9h-252c-19.8,0-35.9-16.1-35.9-35.9
	V42C51,22.2,67.1,6.1,86.9,6.1z"/>
</svg>
