<?xml version="1.0" encoding="utf-8"?>
<!-- Generator: Adobe Illustrator 21.1.0, SVG Export Plug-In . SVG Version: 6.00 Build 0)  -->
<svg version="1.1" id="Layer_1" xmlns="http://www.w3.org/2000/svg" xmlns:xlink="http://www.w3.org/1999/xlink" x="0px" y="0px"
	 viewBox="0 0 512 512" style="enable-background:new 0 0 512 512;" xml:space="preserve">
<style type="text/css">
	.st0{fill:#002833;}
	.st1{fill:#E8E8E8;}
	.st2{fill:#C9C9C9;}
	.st3{fill:#000000;}
	.st4{fill:#EDF0F4;}
</style>
<path class="st0" d="M0,355.3V31.4c0-5.8,4.7-10.5,10.5-10.5h491.1c5.7,0,10.4,4.7,10.4,10.5v323.9"/>
<g>
	<path class="st1" d="M512,355.3V397c0,5.8-4.7,10.5-10.5,10.5h-491C4.7,407.5,0,402.8,0,397v-41.8H512z"/>
	<rect x="146.3" y="480.6" class="st1" width="219.4" height="10.5"/>
</g>
<polygon class="st2" points="329.1,480.6 182.9,480.6 193.3,407.5 318.7,407.5 "/>
<rect x="20.9" y="41.8" class="st3" width="470.2" height="292.6"/>
<polygon class="st4" points="234,264.9 171.3,199.1 186.4,184.6 233.7,234.2 346.1,111.1 361.5,125.3 "/>
</svg>
