<?xml version="1.0" encoding="utf-8"?>
<!-- Generator: Adobe Illustrator 21.1.0, SVG Export Plug-In . SVG Version: 6.00 Build 0)  -->
<svg version="1.1" id="Layer_1" xmlns="http://www.w3.org/2000/svg" xmlns:xlink="http://www.w3.org/1999/xlink" x="0px" y="0px"
	 viewBox="0 0 512 512" style="enable-background:new 0 0 512 512;" xml:space="preserve">
<style type="text/css">
	.st0{fill:#F3F3F3;}
	.st1{fill:#C9C9C9;}
	.st2{fill:#000000;}
</style>
<rect y="64" class="st0" width="512" height="384"/>
<g>
	<rect x="48.1" y="122.6" class="st1" width="254.2" height="10.6"/>
	<rect x="48.1" y="154.6" class="st1" width="254.2" height="10.6"/>
	<rect x="48.1" y="186.6" class="st1" width="254.2" height="10.6"/>
	<rect x="48.1" y="218.6" class="st1" width="254.2" height="10.6"/>
	<rect x="48.1" y="250.6" class="st1" width="254.2" height="10.6"/>
	<rect x="48.1" y="282.6" class="st1" width="254.2" height="10.6"/>
	<rect x="48.1" y="314.6" class="st1" width="421.4" height="10.6"/>
	<rect x="48.1" y="346.6" class="st1" width="421.4" height="10.6"/>
	<rect x="48.1" y="378.6" class="st1" width="421.4" height="10.6"/>
</g>
<path class="st2" d="M367.1,239.6l-17.8,53.7h-22.8l58-170.6h26.6l58.2,170.6h-23.5l-18.2-53.7H367.1z M423,222.3l-16.7-49.1
	c-3.8-11.1-6.3-21.3-8.9-31.1H397c-2.6,10.2-5.3,20.5-8.6,30.9l-16.7,49.4L423,222.3L423,222.3z"/>
</svg>
