<?xml version="1.0" encoding="utf-8"?>
<!-- Generator: Adobe Illustrator 22.1.0, SVG Export Plug-In . SVG Version: 6.00 Build 0)  -->
<svg version="1.1" id="Layer_1" xmlns="http://www.w3.org/2000/svg" xmlns:xlink="http://www.w3.org/1999/xlink" x="0px" y="0px"
	 width="428px" height="428px" viewBox="0 0 428 428" style="enable-background:new 0 0 428 428;" xml:space="preserve">
<style type="text/css">
	.st0{fill:#F3F3F3;}
	.st1{fill:#586861;}
	.st2{fill:#000000;}
</style>
<rect x="14.9" y="73.4" class="st0" width="396.4" height="160"/>
<path class="st1" d="M417.6,70.7c-2.5-2.5-5.9-3.9-9.5-3.9H220.7V60c0-5.4-2.1-10.4-5.9-14.2C211,42,206,40,200.6,40h-40.2
	c-1.8,0-3.5-0.7-4.7-2c-1.3-1.3-2-2.9-2-4.7s0.7-3.5,2-4.7c1.3-1.3,2.9-2,4.7-2h80.3c5.4,0,10.4-2.1,14.2-5.9s5.9-8.8,5.9-14.2v-6.7
	h-13.4v6.7c0,1.8-0.7,3.5-2,4.7c-1.3,1.3-2.9,2-4.7,2h-80.3c-5.4,0-10.4,2.1-14.2,5.9s-5.9,8.8-5.9,14.2s2.1,10.4,5.9,14.2
	c3.8,3.8,8.8,5.9,14.2,5.9h40.2c1.8,0,3.5,0.7,4.7,2c1.3,1.3,2,3,2,4.7v6.7H19.9c-3.6,0-6.9,1.4-9.5,3.9c-2.5,2.5-3.9,5.9-3.9,9.5
	v147.3c0,3.6,1.4,6.9,3.9,9.5c2.5,2.5,5.9,3.9,9.5,3.9h26.8v68.2l20.1,53.5v14c-1,0.6-1.9,1.2-2.8,2.1c-2.5,2.5-3.9,5.9-3.9,9.5
	v40.2h13.4V388h80.3v40.2h13.4V388c0-3.6-1.4-6.9-3.9-9.5c-0.8-0.8-1.8-1.5-2.8-2.1V364c7.5-8,33.5-37.4,33.5-62.8v-33.6
	c0-5.4-2.1-10.4-5.9-14.2c-5.5-5.4-13.8-6.9-20.9-4.5v-8h93.7v8c-7.1-2.4-15.5-0.9-20.9,4.5c-3.8,3.8-5.9,8.8-5.9,14.2v33.6
	c0,25.4,26,54.8,33.5,62.8v12.5c-1,0.6-1.9,1.2-2.8,2.1c-2.5,2.5-3.9,5.9-3.9,9.5v40.2h13.4V388h80.3v40.2H368V388
	c0-3.6-1.4-6.9-3.9-9.5c-0.8-0.8-1.8-1.5-2.8-2.1v-14l20.1-53.5v-68.1h26.8c3.6,0,6.9-1.4,9.5-3.9c2.5-2.5,3.9-5.9,3.9-9.5V80.1
	C421.5,76.5,420.1,73.2,417.6,70.7z M169.1,262.8c2.5-2.5,6.9-2.5,9.5,0c1.3,1.3,2,2.9,2,4.7v33.6c0,19.5-22.7,46.6-31.5,55.4l-2,2
	v16.2h-67V360L60,306.5v-85.8c0-1.8,0.7-3.5,2-4.7c2.5-2.5,6.9-2.5,9.5,0c1.3,1.3,2,2.9,2,4.7v40.2h13.4v-53.5c0-1.8,0.7-3.5,2-4.7
	c2.5-2.5,6.9-2.5,9.5,0c1.3,1.3,2,3,2,4.7v53.5h13.4V194c0-1.8,0.7-3.5,2-4.7c2.5-2.5,6.9-2.5,9.5,0c1.3,1.3,2,2.9,2,4.7v66.9h13.4
	v-53.5c0-1.8,0.7-3.5,2-4.7c2.5-2.5,6.9-2.5,9.5,0c1.3,1.3,2,3,2,4.7v87h13.4v-26.8C167.1,265.8,167.8,264.1,169.1,262.8z
	 M368,306.5L347.9,360v14.6H281v-16.2l-2-2c-8.8-8.8-31.5-35.8-31.5-55.4v-33.6c0-1.8,0.7-3.5,2-4.7c2.5-2.5,6.9-2.5,9.5,0
	c1.3,1.3,2,2.9,2,4.7v26.8h13.4v-87c0-1.8,0.7-3.5,2-4.7c2.5-2.5,6.9-2.5,9.4,0c1.3,1.3,2,3,2,4.7v53.5H301v-66.9
	c0-1.8,0.7-3.5,2-4.7c2.5-2.5,6.9-2.5,9.5,0c1.3,1.3,2,3,2,4.7v66.9h13.4v-53.5c0-1.8,0.7-3.5,2-4.7c2.5-2.5,6.9-2.5,9.5,0
	c1.3,1.3,2,3,2,4.7v53.5h13.4v-40.2c0-1.8,0.7-3.5,2-4.7c2.5-2.5,6.9-2.5,9.5,0c1.3,1.3,2,3,2,4.7v86H368z M408.1,227.4h-26.8v-6.7
	c0-5.3-2.1-10.4-5.9-14.2c-5.6-5.7-14.4-7.1-21.6-4.3c-0.9-3.4-2.6-6.5-5.1-9.1c-5.6-5.6-14.4-7.1-21.6-4.3
	c-0.9-3.4-2.6-6.5-5.1-9.1c-7.6-7.6-20.8-7.6-28.4,0c-2.5,2.6-4.2,5.7-5.1,9.1c-7.2-2.8-16-1.3-21.6,4.3c-3.8,3.8-5.9,8.8-5.9,14.2
	v20.1h-93.7v-20.1c0-5.4-2.1-10.4-5.9-14.2c-5.6-5.6-14.4-7.1-21.6-4.3c-0.9-3.4-2.6-6.5-5.1-9.1c-7.6-7.6-20.8-7.6-28.4,0
	c-2.5,2.6-4.2,5.7-5.1,9.1c-7.2-2.8-16-1.3-21.6,4.3c-2.5,2.5-4.2,5.7-5.1,9.1c-7.2-2.8-16-1.3-21.6,4.3c-3.8,3.8-5.9,8.8-5.9,14.2
	v6.7H19.9V80.1h388.2V227.4z"/>
<path class="st0" d="M368,220.7v85.8L347.9,360v14.6H281v-16.2l-2-2c-8.8-8.8-31.5-35.8-31.5-55.4v-33.6c0-1.8,0.7-3.5,2-4.7
	c2.5-2.5,6.9-2.5,9.5,0c1.3,1.3,2,2.9,2,4.7v26.8h13.4v-87c0-1.8,0.7-3.5,2-4.7c2.5-2.5,6.9-2.5,9.4,0c1.3,1.3,2,3,2,4.7v53.5H301
	v-66.9c0-1.8,0.7-3.5,2-4.7c2.5-2.5,6.9-2.5,9.5,0c1.3,1.3,2,3,2,4.7v66.9h13.4v-53.5c0-1.8,0.7-3.5,2-4.7c2.5-2.5,6.9-2.5,9.5,0
	c1.3,1.3,2,3,2,4.7v53.5h13.4v-40.2c0-1.8,0.7-3.5,2-4.7c2.5-2.5,6.9-2.5,9.5,0C367.3,217.2,368,218.9,368,220.7z"/>
<path class="st0" d="M180.5,267.5v33.6c0,19.5-22.7,46.6-31.5,55.4l-2,2v16.2H80.1V360L60,306.5v-85.8c0-1.8,0.7-3.5,2-4.7
	c2.5-2.5,6.9-2.5,9.5,0c1.3,1.3,2,2.9,2,4.7v40.2h13.4v-53.5c0-1.8,0.7-3.5,2-4.7c2.5-2.5,6.9-2.5,9.5,0c1.3,1.3,2,3,2,4.7v53.5
	h13.4V194c0-1.8,0.7-3.5,2-4.7c2.5-2.5,6.9-2.5,9.5,0c1.3,1.3,2,2.9,2,4.7v66.9h13.4v-53.5c0-1.8,0.7-3.5,2-4.7
	c2.5-2.5,6.9-2.5,9.5,0c1.3,1.3,2,3,2,4.7v87h13.4v-26.8c0-1.8,0.7-3.5,2-4.7c2.5-2.5,6.9-2.5,9.5,0
	C179.8,264.1,180.5,265.8,180.5,267.5z"/>
<g>
	<rect x="273.5" y="168.9" class="st2" width="12.7" height="12.7"/>
	<rect x="146.5" y="168.9" class="st2" width="12.7" height="12.7"/>
	<rect x="57.6" y="92.7" class="st2" width="12.7" height="12.7"/>
	<rect x="83" y="92.7" class="st2" width="12.7" height="12.7"/>
	<rect x="108.4" y="92.7" class="st2" width="12.7" height="12.7"/>
	<rect x="133.8" y="92.7" class="st2" width="12.7" height="12.7"/>
	<rect x="159.2" y="92.7" class="st2" width="12.7" height="12.7"/>
	<rect x="184.6" y="92.7" class="st2" width="12.7" height="12.7"/>
	<rect x="210" y="92.7" class="st2" width="12.7" height="12.7"/>
	<rect x="235.4" y="92.7" class="st2" width="12.7" height="12.7"/>
	<rect x="260.8" y="92.7" class="st2" width="12.7" height="12.7"/>
	<rect x="286.2" y="92.7" class="st2" width="12.7" height="12.7"/>
	<rect x="311.6" y="92.7" class="st2" width="12.7" height="12.7"/>
	<rect x="337" y="92.7" class="st2" width="12.7" height="12.7"/>
	<rect x="362.4" y="92.7" class="st2" width="12.7" height="12.7"/>
	<rect x="44.9" y="118.1" class="st2" width="12.7" height="12.7"/>
	<rect x="70.3" y="118.1" class="st2" width="12.7" height="12.7"/>
	<rect x="95.7" y="118.1" class="st2" width="12.7" height="12.7"/>
	<rect x="121.1" y="118.1" class="st2" width="12.7" height="12.7"/>
	<rect x="146.5" y="118.1" class="st2" width="12.7" height="12.7"/>
	<rect x="171.9" y="118.1" class="st2" width="12.7" height="12.7"/>
	<rect x="197.3" y="118.1" class="st2" width="12.7" height="12.7"/>
	<rect x="222.7" y="118.1" class="st2" width="12.7" height="12.7"/>
	<rect x="248.1" y="118.1" class="st2" width="12.7" height="12.7"/>
	<rect x="273.5" y="118.1" class="st2" width="12.7" height="12.7"/>
	<rect x="298.9" y="118.1" class="st2" width="12.7" height="12.7"/>
	<rect x="324.3" y="118.1" class="st2" width="12.7" height="12.7"/>
	<rect x="349.7" y="118.1" class="st2" width="12.7" height="12.7"/>
	<rect x="375.1" y="118.1" class="st2" width="12.7" height="12.7"/>
	<rect x="57.6" y="143.5" class="st2" width="12.7" height="12.7"/>
	<rect x="83" y="143.5" class="st2" width="12.7" height="12.7"/>
	<rect x="108.4" y="143.5" class="st2" width="12.7" height="12.7"/>
	<rect x="133.8" y="143.5" class="st2" width="12.7" height="12.7"/>
	<rect x="159.2" y="143.5" class="st2" width="12.7" height="12.7"/>
	<rect x="184.6" y="143.5" class="st2" width="12.7" height="12.7"/>
	<rect x="210" y="143.5" class="st2" width="12.7" height="12.7"/>
	<rect x="235.4" y="143.5" class="st2" width="12.7" height="12.7"/>
	<rect x="260.8" y="143.5" class="st2" width="12.7" height="12.7"/>
	<rect x="286.2" y="143.5" class="st2" width="12.7" height="12.7"/>
	<rect x="311.6" y="143.5" class="st2" width="12.7" height="12.7"/>
	<rect x="337" y="143.5" class="st2" width="12.7" height="12.7"/>
	<rect x="362.4" y="143.5" class="st2" width="12.7" height="12.7"/>
	<rect x="44.9" y="168.9" class="st2" width="12.7" height="12.7"/>
	<rect x="70.3" y="168.9" class="st2" width="12.7" height="12.7"/>
	<rect x="171.9" y="168.9" class="st2" width="12.7" height="12.7"/>
	<rect x="197.3" y="168.9" class="st2" width="12.7" height="12.7"/>
	<rect x="222.7" y="168.9" class="st2" width="12.7" height="12.7"/>
	<rect x="248.1" y="168.9" class="st2" width="12.7" height="12.7"/>
	<rect x="375.1" y="168.9" class="st2" width="12.7" height="12.7"/>
	<rect x="349.7" y="168.9" class="st2" width="12.7" height="12.7"/>
	<rect x="184.6" y="194.3" class="st2" width="63.5" height="12.7"/>
</g>
</svg>
