<?xml version="1.0" encoding="utf-8"?>
<!-- Generator: Adobe Illustrator 21.1.0, SVG Export Plug-In . SVG Version: 6.00 Build 0)  -->
<svg version="1.1" id="Layer_1" xmlns="http://www.w3.org/2000/svg" xmlns:xlink="http://www.w3.org/1999/xlink" x="0px" y="0px"
	 viewBox="0 0 512 512" style="enable-background:new 0 0 512 512;" xml:space="preserve">
<style type="text/css">
	.st0{fill:#002833;}
	.st1{fill:#E8E8E8;}
	.st2{fill:#C9C9C9;}
	.st3{fill:#000000;}
	.st4{display:none;fill:#EDF0F4;}
	.st5{fill:#EDF0F4;}
</style>
<path class="st0" d="M0,355.3V31.4c0-5.8,4.7-10.5,10.5-10.5h491.1c5.7,0,10.4,4.7,10.4,10.5v323.9"/>
<g>
	<path class="st1" d="M512,355.3V397c0,5.8-4.7,10.5-10.5,10.5h-491C4.7,407.5,0,402.8,0,397v-41.8H512z"/>
	<rect x="146.3" y="480.6" class="st1" width="219.4" height="10.5"/>
</g>
<polygon class="st2" points="329.1,480.6 182.9,480.6 193.3,407.5 318.7,407.5 "/>
<rect x="20.9" y="41.8" class="st3" width="470.2" height="292.6"/>
<polygon class="st4" points="234,264.9 171.3,199.1 186.4,184.6 233.7,234.2 346.1,111.1 361.5,125.3 "/>
<g id="Layer_2">
	<rect x="90" y="94" class="st5" width="356" height="212"/>
</g>
<path class="st3" d="M449.3,41.7H62.7c-11.2,0-20.3,9.1-20.3,20.3v272.3h427.1V62C469.5,50.8,460.4,41.7,449.3,41.7z M183.5,249.4
	l-15.1,15.1L91.6,188l76.9-76.5l15.1,15.1L121.9,188L183.5,249.4z M200.5,204c-8.8,0-16-7.2-16-16c0-8.8,7.2-16,16-16
	c8.8,0,16,7.2,16,16C216.5,196.8,209.3,204,200.5,204z M256,204c-8.8,0-16-7.2-16-16c0-8.8,7.2-16,16-16c8.8,0,16,7.2,16,16
	C272,196.8,264.8,204,256,204z M311.5,204c-8.8,0-16-7.2-16-16c0-8.8,7.2-16,16-16c8.8,0,16,7.2,16,16
	C327.5,196.8,320.4,204,311.5,204z M343.5,264.5l-15.1-15.1l61.7-61.4l-61.7-61.4l15.1-15.1l76.9,76.5L343.5,264.5z"/>
</svg>
