<?xml version="1.0" encoding="utf-8"?>
<!-- Generator: Adobe Illustrator 22.1.0, SVG Export Plug-In . SVG Version: 6.00 Build 0)  -->
<svg version="1.1" id="Layer_1" xmlns="http://www.w3.org/2000/svg" xmlns:xlink="http://www.w3.org/1999/xlink" x="0px" y="0px"
	 width="428px" height="428px" viewBox="0 0 428 428" style="enable-background:new 0 0 428 428;" xml:space="preserve">
<style type="text/css">
	.st0{fill:none;}
	.st1{fill:#002833;}
	.st2{fill:#EDF0F4;}
	.st3{fill:#E8E8E8;}
	.st4{fill:#C9C9C9;}
	.st5{fill:#000000;}
	.st6{fill:#FFFFFF;}
	.st7{fill:#7A7C7C;}
</style>
<path class="st0" d="M230.2,289.6h-34.3c-1.5,0-2.7,1.3-2.7,2.7l0,0c0-1.5,1.3-2.7,2.7-2.7H230.2c1.5,0,2.7,1.3,2.7,2.7l0,0
	C232.9,290.9,231.6,289.6,230.2,289.6z"/>
<g>
	<path class="st1" d="M395.8,331.2V84c0-5.9-4.9-10.8-10.7-10.8H41.2c-5.9,0-10.7,4.9-10.7,10.8v247.2
		C30.4,331.2,396.7,331.2,395.8,331.2z"/>
	<rect x="46.5" y="87.5" class="st2" width="333.2" height="243.7"/>
	<rect x="-2" y="331.2" class="st3" width="430" height="7.2"/>
	<polygon class="st4" points="406.5,352.8 19.5,352.8 -2,338.5 428,338.5 	"/>
</g>
<g>
	<path class="st0" d="M212.8,90.6c1.8,0,3.1-1.5,3.1-3.1l0,0C216,89.2,214.6,90.6,212.8,90.6s-3.1-1.5-3.1-3.1l0,0
		C209.7,89.2,211.1,90.6,212.8,90.6z"/>
	<rect x="66.4" y="105.3" width="295.2" height="26.5"/>
	<rect x="66.4" y="105.3" class="st5" width="295.2" height="26.5"/>
	<rect x="270.9" y="136.5" class="st6" width="90.6" height="174.1"/>
	<g>
		<rect x="66.4" y="138.3" class="st7" width="194.9" height="7.2"/>
		<rect x="66.4" y="153.4" class="st7" width="82.6" height="7.2"/>
		<rect x="66.4" y="168.4" class="st7" width="194.9" height="7.2"/>
		<rect x="66.4" y="183.4" class="st7" width="194.9" height="7.2"/>
		<rect x="66.4" y="198.5" class="st7" width="194.9" height="7.2"/>
		<rect x="66.4" y="213.4" class="st7" width="82.6" height="7.2"/>
		<rect x="66.4" y="228.5" class="st7" width="194.9" height="7.2"/>
		<rect x="66.4" y="243.4" class="st7" width="194.9" height="7.2"/>
		<rect x="66.4" y="258.4" class="st7" width="194.9" height="7.2"/>
		<rect x="66.4" y="273.4" class="st7" width="82.6" height="7.2"/>
		<rect x="66.4" y="288.4" class="st7" width="194.9" height="7.2"/>
		<rect x="66.4" y="303.4" class="st7" width="194.9" height="7.2"/>
	</g>
</g>
</svg>
