<?xml version="1.0" encoding="utf-8"?>
<!-- Generator: Adobe Illustrator 21.1.0, SVG Export Plug-In . SVG Version: 6.00 Build 0)  -->
<svg version="1.1" id="Layer_1" xmlns="http://www.w3.org/2000/svg" xmlns:xlink="http://www.w3.org/1999/xlink" x="0px" y="0px"
	 viewBox="0 0 428 428" style="enable-background:new 0 0 428 428;" xml:space="preserve">
<style type="text/css">
	.st0{fill:#F3F3F3;}
	.st1{fill:#2F383A;}
	.st2{fill:#000000;}
</style>
<title>12-business</title>
<g>
	<path class="st0" d="M308.1,347.8c-0.2,12.3-0.4,27.7-0.5,46.8c-0.1,11.1-9,20.1-20.1,20.1H33.4c-11.1,0-20.1-9-20.1-20.1V107h73.6
		C98,107,107,98,107,86.9V13.4h180.6c8.9,0,16.8,6,19.2,14.6c-36.3-6.9-71.3,16.9-78.2,53.2c-6.9,36.3,16.9,71.3,53.2,78.2
		c8.6,1.6,17.4,1.6,25.9-0.2v41.5h-20.1c-3.7,0-6.7,3-6.7,6.7v133.8c0,3.7,3,6.7,6.7,6.7H308.1z"/>
	<path class="st1" d="M355.5,66.8C348.8,51.4,336.5,39,321,32.3C320.4,14.3,305.6,0,287.6,0H100.3c-1.8,0-3.5,0.7-4.8,1.9L1.9,95.6
		c-1.2,1.3-2,3-1.9,4.8v294.2C0,413,15,428,33.4,428h254.1c18.5,0,33.4-15,33.4-33.4c0-19.3-0.1-34.7-0.2-46.8h6.9
		c3.7,0,6.7-3,6.7-6.7V207.3c0-3.7-3-6.7-6.7-6.7H321v-45.8C354.8,140.1,370.3,100.7,355.5,66.8z M93.6,22.8v64.1
		c0,3.7-3,6.7-6.7,6.7H22.8L93.6,22.8z M307.6,394.6c-0.1,11.1-9,20.1-20.1,20.1H33.4c-11.1,0-20.1-9-20.1-20.1V107h73.6
		C98,107,107,98,107,86.9V13.4h180.6c8.9,0,16.8,6,19.2,14.6c-36.3-6.9-71.3,16.9-78.2,53.2c-6.9,36.3,16.9,71.3,53.2,78.2
		c8.6,1.6,17.4,1.6,25.9-0.2v41.5h-20.1c-3.7,0-6.7,3-6.7,6.7v133.8c0,3.7,3,6.7,6.7,6.7h20.5C307.9,360.1,307.8,375.5,307.6,394.6z
		 M321,334.4h-26.8V214H321V334.4z M294.2,147.1c-29.5,0-53.5-24-53.5-53.5c0-29.5,24-53.5,53.5-53.5s53.5,24,53.5,53.5
		C347.8,123.2,323.8,147.1,294.2,147.1z"/>
	<path class="st2" d="M287.6,347.8h40.1c3.7,0,6.7-3,6.7-6.7V207.3c0-3.7-3-6.7-6.7-6.7H321h-13.4h-20.1c-3.7,0-6.7,3-6.7,6.7v133.8
		C280.9,344.8,283.9,347.8,287.6,347.8z M294.2,214H321v120.4h-26.8V214z"/>
	<rect x="294.2" y="214" class="st2" width="26.8" height="120.4"/>
	<path class="st2" d="M247.4,240.8h-40.1c-3.7,0-6.7,3-6.7,6.7v93.6c0,3.7,3,6.7,6.7,6.7h40.1c3.7,0,6.7-3,6.7-6.7v-93.6
		C254.1,243.7,251.1,240.8,247.4,240.8z M240.8,334.4H214v-80.2h26.8V334.4z"/>
	<rect x="214" y="254.1" class="st2" width="26.8" height="80.2"/>
	<path class="st2" d="M407.9,160.5h-40.1c-3.7,0-6.7,3-6.7,6.7v173.9c0,3.7,3,6.7,6.7,6.7h40.1c3.7,0,6.7-3,6.7-6.7V167.2
		C414.6,163.5,411.6,160.5,407.9,160.5z M401.2,334.4h-26.8V173.9h26.8V334.4z"/>
	<rect x="374.5" y="173.9" class="st2" width="26.8" height="160.5"/>
	<path class="st2" d="M287.6,53.5v6.7c-11.1,0-20.1,9-20.1,20.1s9,20.1,20.1,20.1h13.4c3.7,0,6.7,3,6.7,6.7c0,3.7-3,6.7-6.7,6.7
		h-13.4c-3.7,0-6.7-3-6.7-6.7c0-3.7-3-6.7-6.7-6.7c-3.7,0-6.7,3-6.7,6.7c0,11.1,9,20.1,20.1,20.1v6.7c0,3.7,3,6.7,6.7,6.7
		s6.7-3,6.7-6.7v-6.7c11.1,0,20.1-9,20.1-20.1s-9-20.1-20.1-20.1h-13.4c-3.7,0-6.7-3-6.7-6.7s3-6.7,6.7-6.7h13.4
		c3.7,0,6.7,3,6.7,6.7s3,6.7,6.7,6.7s6.7-3,6.7-6.7c0-11.1-9-20.1-20.1-20.1v-6.7c0-3.7-3-6.7-6.7-6.7S287.6,49.8,287.6,53.5z"/>
	<path class="st1" d="M180.6,247.4V190l33.4-33.4v17.3c0,3.7,3,6.7,6.7,6.7c3.7,0,6.7-3,6.7-6.7v-33.4c0-0.8-0.2-1.6-0.5-2.3v-0.6
		c-0.3-0.5-0.6-1-0.9-1.4l-0.5-0.5c-0.5-0.5-1.1-0.9-1.8-1.2l0,0c-0.9-0.4-2-0.6-3-0.6h-33.4c-3.7,0-6.7,3-6.7,6.7s3,6.7,6.7,6.7
		h17.3l-35.4,35.4c-1.3,1.3-2,3-2,4.7v57.4l-71.6,71.6c-2.8,2.4-3.1,6.6-0.7,9.4s6.6,3.1,9.4,0.7c0.3-0.2,0.5-0.5,0.7-0.7l73.6-73.6
		C179.8,250.9,180.5,249.2,180.6,247.4z"/>
	<path class="st1" d="M46.8,147.1h86.9c3.7,0,6.7-3,6.7-6.7s-3-6.7-6.7-6.7H46.8c-3.7,0-6.7,3-6.7,6.7S43.1,147.1,46.8,147.1z"/>
	<path class="st1" d="M46.8,180.6h86.9c3.7,0,6.7-3,6.7-6.7c0-3.7-3-6.7-6.7-6.7H46.8c-3.7,0-6.7,3-6.7,6.7
		C40.1,177.6,43.1,180.6,46.8,180.6z"/>
	<path class="st1" d="M46.8,214h86.9c3.7,0,6.7-3,6.7-6.7c0-3.7-3-6.7-6.7-6.7H46.8c-3.7,0-6.7,3-6.7,6.7
		C40.1,211,43.1,214,46.8,214z"/>
	<path class="st1" d="M107,240.8c0-3.7-3-6.7-6.7-6.7H46.8c-3.7,0-6.7,3-6.7,6.7c0,3.7,3,6.7,6.7,6.7h53.5
		C104,247.4,107,244.4,107,240.8z"/>
	<path class="st1" d="M33.4,361.1c-3.7,0-6.7,3-6.7,6.7v13.4c0,11.1,9,20.1,20.1,20.1h13.4c3.7,0,6.7-3,6.7-6.7c0-3.7-3-6.7-6.7-6.7
		H46.8c-3.7,0-6.7-3-6.7-6.7v-13.4C40.1,364.1,37.1,361.1,33.4,361.1z"/>
	<path class="st1" d="M86.9,401.2h13.4c3.7,0,6.7-3,6.7-6.7c0-3.7-3-6.7-6.7-6.7H86.9c-3.7,0-6.7,3-6.7,6.7
		C80.3,398.3,83.2,401.2,86.9,401.2z"/>
</g>
</svg>
