<?xml version="1.0" encoding="utf-8"?>
<!-- Generator: Adobe Illustrator 22.1.0, SVG Export Plug-In . SVG Version: 6.00 Build 0)  -->
<svg version="1.1" id="Layer_1" xmlns="http://www.w3.org/2000/svg" xmlns:xlink="http://www.w3.org/1999/xlink" x="0px" y="0px"
	 width="428px" height="428px" viewBox="0 0 428 428" style="enable-background:new 0 0 428 428;" xml:space="preserve">
<style type="text/css">
	.st0{fill:#F3F3F3;}
	.st1{fill:#586861;}
	.st2{fill:#000000;}
</style>
<rect x="13.9" y="72.4" class="st0" width="396.4" height="160"/>
<path class="st1" d="M416.6,69.7c-2.5-2.5-5.9-3.9-9.5-3.9H219.7V59c0-5.4-2.1-10.4-5.9-14.2C210,41,205,39,199.6,39h-40.2
	c-1.8,0-3.5-0.7-4.7-2c-1.3-1.3-2-2.9-2-4.7s0.7-3.5,2-4.7c1.3-1.3,2.9-2,4.7-2h80.3c5.4,0,10.4-2.1,14.2-5.9s5.9-8.8,5.9-14.2v-6.7
	h-13.4v6.7c0,1.8-0.7,3.5-2,4.7c-1.3,1.3-2.9,2-4.7,2h-80.3c-5.4,0-10.4,2.1-14.2,5.9s-5.9,8.8-5.9,14.2s2.1,10.4,5.9,14.2
	c3.8,3.8,8.8,5.9,14.2,5.9h40.2c1.8,0,3.5,0.7,4.7,2c1.3,1.3,2,3,2,4.7v6.7H18.9c-3.6,0-6.9,1.4-9.5,3.9c-2.5,2.5-3.9,5.9-3.9,9.5
	v147.3c0,3.6,1.4,6.9,3.9,9.5c2.5,2.5,5.9,3.9,9.5,3.9h26.8v68.2l20.1,53.5v14c-1,0.6-1.9,1.2-2.8,2.1c-2.5,2.5-3.9,5.9-3.9,9.5
	v40.2h13.4V387h80.3v40.2h13.4V387c0-3.6-1.4-6.9-3.9-9.5c-0.8-0.8-1.8-1.5-2.8-2.1V363c7.5-8,33.5-37.4,33.5-62.8v-33.6
	c0-5.4-2.1-10.4-5.9-14.2c-5.5-5.4-13.8-6.9-20.9-4.5v-8h93.7v8c-7.1-2.4-15.5-0.9-20.9,4.5c-3.8,3.8-5.9,8.8-5.9,14.2v33.6
	c0,25.4,26,54.8,33.5,62.8v12.5c-1,0.6-1.9,1.2-2.8,2.1c-2.5,2.5-3.9,5.9-3.9,9.5v40.2h13.4V387h80.3v40.2H367V387
	c0-3.6-1.4-6.9-3.9-9.5c-0.8-0.8-1.8-1.5-2.8-2.1v-14l20.1-53.5v-68.1h26.8c3.6,0,6.9-1.4,9.5-3.9c2.5-2.5,3.9-5.9,3.9-9.5V79.1
	C420.5,75.5,419.1,72.2,416.6,69.7z M168.1,261.8c2.5-2.5,6.9-2.5,9.5,0c1.3,1.3,2,2.9,2,4.7v33.6c0,19.5-22.7,46.6-31.5,55.4l-2,2
	v16.2h-67V359L59,305.5v-85.8c0-1.8,0.7-3.5,2-4.7c2.5-2.5,6.9-2.5,9.5,0c1.3,1.3,2,2.9,2,4.7v40.2h13.4v-53.5c0-1.8,0.7-3.5,2-4.7
	c2.5-2.5,6.9-2.5,9.5,0c1.3,1.3,2,3,2,4.7v53.5h13.4V193c0-1.8,0.7-3.5,2-4.7c2.5-2.5,6.9-2.5,9.5,0c1.3,1.3,2,2.9,2,4.7v66.9h13.4
	v-53.5c0-1.8,0.7-3.5,2-4.7c2.5-2.5,6.9-2.5,9.5,0c1.3,1.3,2,3,2,4.7v87h13.4v-26.8C166.1,264.8,166.8,263.1,168.1,261.8z
	 M367,305.5L346.9,359v14.6H280v-16.2l-2-2c-8.8-8.8-31.5-35.8-31.5-55.4v-33.6c0-1.8,0.7-3.5,2-4.7c2.5-2.5,6.9-2.5,9.5,0
	c1.3,1.3,2,2.9,2,4.7v26.8h13.4v-87c0-1.8,0.7-3.5,2-4.7c2.5-2.5,6.9-2.5,9.4,0c1.3,1.3,2,3,2,4.7v53.5H300v-66.9
	c0-1.8,0.7-3.5,2-4.7c2.5-2.5,6.9-2.5,9.5,0c1.3,1.3,2,3,2,4.7v66.9h13.4v-53.5c0-1.8,0.7-3.5,2-4.7c2.5-2.5,6.9-2.5,9.5,0
	c1.3,1.3,2,3,2,4.7v53.5h13.4v-40.2c0-1.8,0.7-3.5,2-4.7c2.5-2.5,6.9-2.5,9.5,0c1.3,1.3,2,3,2,4.7v86H367z M407.1,226.4h-26.8v-6.7
	c0-5.3-2.1-10.4-5.9-14.2c-5.6-5.7-14.4-7.1-21.6-4.3c-0.9-3.4-2.6-6.5-5.1-9.1c-5.6-5.6-14.4-7.1-21.6-4.3
	c-0.9-3.4-2.6-6.5-5.1-9.1c-7.6-7.6-20.8-7.6-28.4,0c-2.5,2.6-4.2,5.7-5.1,9.1c-7.2-2.8-16-1.3-21.6,4.3c-3.8,3.8-5.9,8.8-5.9,14.2
	v20.1h-93.7v-20.1c0-5.4-2.1-10.4-5.9-14.2c-5.6-5.6-14.4-7.1-21.6-4.3c-0.9-3.4-2.6-6.5-5.1-9.1c-7.6-7.6-20.8-7.6-28.4,0
	c-2.5,2.6-4.2,5.7-5.1,9.1c-7.2-2.8-16-1.3-21.6,4.3c-2.5,2.5-4.2,5.7-5.1,9.1c-7.2-2.8-16-1.3-21.6,4.3c-3.8,3.8-5.9,8.8-5.9,14.2
	v6.7H18.9V79.1h388.2V226.4z"/>
<path class="st0" d="M367,219.7v85.8L346.9,359v14.6H280v-16.2l-2-2c-8.8-8.8-31.5-35.8-31.5-55.4v-33.6c0-1.8,0.7-3.5,2-4.7
	c2.5-2.5,6.9-2.5,9.5,0c1.3,1.3,2,2.9,2,4.7v26.8h13.4v-87c0-1.8,0.7-3.5,2-4.7c2.5-2.5,6.9-2.5,9.4,0c1.3,1.3,2,3,2,4.7v53.5H300
	v-66.9c0-1.8,0.7-3.5,2-4.7c2.5-2.5,6.9-2.5,9.5,0c1.3,1.3,2,3,2,4.7v66.9h13.4v-53.5c0-1.8,0.7-3.5,2-4.7c2.5-2.5,6.9-2.5,9.5,0
	c1.3,1.3,2,3,2,4.7v53.5h13.4v-40.2c0-1.8,0.7-3.5,2-4.7c2.5-2.5,6.9-2.5,9.5,0C366.3,216.2,367,217.9,367,219.7z"/>
<path class="st0" d="M179.5,266.5v33.6c0,19.5-22.7,46.6-31.5,55.4l-2,2v16.2H79.1V359L59,305.5v-85.8c0-1.8,0.7-3.5,2-4.7
	c2.5-2.5,6.9-2.5,9.5,0c1.3,1.3,2,2.9,2,4.7v40.2h13.4v-53.5c0-1.8,0.7-3.5,2-4.7c2.5-2.5,6.9-2.5,9.5,0c1.3,1.3,2,3,2,4.7v53.5
	h13.4V193c0-1.8,0.7-3.5,2-4.7c2.5-2.5,6.9-2.5,9.5,0c1.3,1.3,2,2.9,2,4.7v66.9h13.4v-53.5c0-1.8,0.7-3.5,2-4.7
	c2.5-2.5,6.9-2.5,9.5,0c1.3,1.3,2,3,2,4.7v87h13.4v-26.8c0-1.8,0.7-3.5,2-4.7c2.5-2.5,6.9-2.5,9.5,0
	C178.8,263.1,179.5,264.8,179.5,266.5z"/>
<g>
	<rect x="272.5" y="167.9" class="st2" width="12.7" height="12.7"/>
	<rect x="145.5" y="167.9" class="st2" width="12.7" height="12.7"/>
	<rect x="56.6" y="91.7" class="st2" width="12.7" height="12.7"/>
	<rect x="82" y="91.7" class="st2" width="12.7" height="12.7"/>
	<rect x="107.4" y="91.7" class="st2" width="12.7" height="12.7"/>
	<rect x="132.8" y="91.7" class="st2" width="12.7" height="12.7"/>
	<rect x="158.2" y="91.7" class="st2" width="12.7" height="12.7"/>
	<rect x="183.6" y="91.7" class="st2" width="12.7" height="12.7"/>
	<rect x="209" y="91.7" class="st2" width="12.7" height="12.7"/>
	<rect x="234.4" y="91.7" class="st2" width="12.7" height="12.7"/>
	<rect x="259.8" y="91.7" class="st2" width="12.7" height="12.7"/>
	<rect x="285.2" y="91.7" class="st2" width="12.7" height="12.7"/>
	<rect x="310.6" y="91.7" class="st2" width="12.7" height="12.7"/>
	<rect x="336" y="91.7" class="st2" width="12.7" height="12.7"/>
	<rect x="361.4" y="91.7" class="st2" width="12.7" height="12.7"/>
	<rect x="43.9" y="117.1" class="st2" width="12.7" height="12.7"/>
	<rect x="69.3" y="117.1" class="st2" width="12.7" height="12.7"/>
	<rect x="94.7" y="117.1" class="st2" width="12.7" height="12.7"/>
	<rect x="120.1" y="117.1" class="st2" width="12.7" height="12.7"/>
	<rect x="145.5" y="117.1" class="st2" width="12.7" height="12.7"/>
	<rect x="170.9" y="117.1" class="st2" width="12.7" height="12.7"/>
	<rect x="196.3" y="117.1" class="st2" width="12.7" height="12.7"/>
	<rect x="221.7" y="117.1" class="st2" width="12.7" height="12.7"/>
	<rect x="247.1" y="117.1" class="st2" width="12.7" height="12.7"/>
	<rect x="272.5" y="117.1" class="st2" width="12.7" height="12.7"/>
	<rect x="297.9" y="117.1" class="st2" width="12.7" height="12.7"/>
	<rect x="323.3" y="117.1" class="st2" width="12.7" height="12.7"/>
	<rect x="348.7" y="117.1" class="st2" width="12.7" height="12.7"/>
	<rect x="374.1" y="117.1" class="st2" width="12.7" height="12.7"/>
	<rect x="56.6" y="142.5" class="st2" width="12.7" height="12.7"/>
	<rect x="82" y="142.5" class="st2" width="12.7" height="12.7"/>
	<rect x="107.4" y="142.5" class="st2" width="12.7" height="12.7"/>
	<rect x="132.8" y="142.5" class="st2" width="12.7" height="12.7"/>
	<rect x="158.2" y="142.5" class="st2" width="12.7" height="12.7"/>
	<rect x="183.6" y="142.5" class="st2" width="12.7" height="12.7"/>
	<rect x="209" y="142.5" class="st2" width="12.7" height="12.7"/>
	<rect x="234.4" y="142.5" class="st2" width="12.7" height="12.7"/>
	<rect x="259.8" y="142.5" class="st2" width="12.7" height="12.7"/>
	<rect x="285.2" y="142.5" class="st2" width="12.7" height="12.7"/>
	<rect x="310.6" y="142.5" class="st2" width="12.7" height="12.7"/>
	<rect x="336" y="142.5" class="st2" width="12.7" height="12.7"/>
	<rect x="361.4" y="142.5" class="st2" width="12.7" height="12.7"/>
	<rect x="43.9" y="167.9" class="st2" width="12.7" height="12.7"/>
	<rect x="69.3" y="167.9" class="st2" width="12.7" height="12.7"/>
	<rect x="170.9" y="167.9" class="st2" width="12.7" height="12.7"/>
	<rect x="196.3" y="167.9" class="st2" width="12.7" height="12.7"/>
	<rect x="221.7" y="167.9" class="st2" width="12.7" height="12.7"/>
	<rect x="247.1" y="167.9" class="st2" width="12.7" height="12.7"/>
	<rect x="374.1" y="167.9" class="st2" width="12.7" height="12.7"/>
	<rect x="348.7" y="167.9" class="st2" width="12.7" height="12.7"/>
	<rect x="183.6" y="193.3" class="st2" width="63.5" height="12.7"/>
</g>
</svg>
