<?xml version="1.0" encoding="utf-8"?>
<!-- Generator: Adobe Illustrator 22.1.0, SVG Export Plug-In . SVG Version: 6.00 Build 0)  -->
<svg version="1.1" id="Layer_1" xmlns="http://www.w3.org/2000/svg" xmlns:xlink="http://www.w3.org/1999/xlink" x="0px" y="0px"
	 width="24px" height="24px" viewBox="0 0 24 24" style="enable-background:new 0 0 24 24;" xml:space="preserve">
<style type="text/css">
	.st0{fill:#A3B9D5;}
</style>
<g>
	<path class="st0" d="M21.5,17.3l-7.7-6.4c-0.3-0.3-0.7-0.3-0.9,0c-0.1,0.1-0.2,0.3-0.2,0.6l0.5,10c0,0.5,0.3,0.7,0.6,0.7
		c0.2,0,0.4-0.1,0.6-0.3l1.4-1.9c0,0,0,0,0,0c0,0,0,0,0,0l1.3,2.7c0.2,0.4,0.5,0.6,0.9,0.6c0.2,0,0.3,0,0.5-0.1l1.2-0.6
		c0.5-0.3,0.7-0.9,0.5-1.4l-1.3-2.7c0,0,0,0,0,0c0,0,0,0,0,0c0,0,0,0,0,0l2.4,0c0.5,0,0.6-0.2,0.7-0.4
		C21.8,17.9,21.9,17.6,21.5,17.3z M18.7,17.6c-0.3,0-0.6,0.1-0.7,0.3c-0.1,0.2-0.1,0.5,0,0.8l1.3,2.7c0.1,0.1,0,0.3-0.1,0.3
		l-1.2,0.6c-0.1,0.1-0.3,0-0.3-0.1l-1.3-2.7C16.3,19.2,16,19,15.7,19c-0.2,0-0.5,0.1-0.6,0.4L14,20.9l-0.5-9.3l7.2,6L18.7,17.6z"/>
	<path class="st0" d="M11.8,3c4,0,7.2,3.2,7.2,7.2c0,0.2,0.2,0.4,0.4,0.4c0.2,0,0.4-0.2,0.4-0.4c0-4.4-3.6-8-8-8s-8,3.6-8,8
		s3.6,8,8,8c0.2,0,0.4-0.2,0.4-0.4c0-0.2-0.2-0.4-0.4-0.4c-4,0-7.2-3.2-7.2-7.2S7.8,3,11.8,3z"/>
	<path class="st0" d="M11.8,0C6.1,0,1.5,4.6,1.5,10.3s4.6,10.3,10.3,10.3c0.2,0,0.4-0.2,0.4-0.4c0-0.2-0.2-0.4-0.4-0.4
		c-5.2,0-9.5-4.3-9.5-9.5c0-5.2,4.3-9.5,9.5-9.5c5.2,0,9.5,4.3,9.5,9.5c0,0.2,0.2,0.4,0.4,0.4s0.4-0.2,0.4-0.4C22,4.6,17.4,0,11.8,0
		z"/>
</g>
</svg>
