<?xml version="1.0" encoding="utf-8"?>
<!-- Generator: Adobe Illustrator 21.1.0, SVG Export Plug-In . SVG Version: 6.00 Build 0)  -->
<svg version="1.1" id="Layer_1" xmlns="http://www.w3.org/2000/svg" xmlns:xlink="http://www.w3.org/1999/xlink" x="0px" y="0px"
	 viewBox="0 0 428 428" style="enable-background:new 0 0 428 428;" xml:space="preserve">
<style type="text/css">
	.st0{fill:#000000;}
	.st1{fill:#EDF0F4;}
</style>
<g>
	<path class="st0" d="M345.7,0H82.3C36.9,0,0,36.9,0,82.3v263.4C0,391.1,36.9,428,82.3,428h263.4c45.4,0,82.3-36.9,82.3-82.3V82.3
		C428,36.9,391.1,0,345.7,0z M214,345.7c-63.5,0-115.2-51.7-115.2-115.2c0-9.1,7.4-16.5,16.5-16.5c9.1,0,16.5,7.4,16.5,16.5
		c0,45.4,36.9,82.3,82.3,82.3s82.3-36.9,82.3-82.3c0-43-33.1-78.3-75.1-81.9l4.5,4.5c6.4,6.4,6.4,16.9,0,23.3
		c-3.2,3.2-7.4,4.8-11.7,4.8s-8.4-1.6-11.6-4.8l-32.9-32.9c-6.4-6.4-6.4-16.9,0-23.3l32.9-32.9c6.4-6.4,16.9-6.4,23.3,0
		s6.4,16.8,0,23.3l-5.2,5.2c60.5,3.4,108.7,53.5,108.7,114.9C329.2,294,277.5,345.7,214,345.7z"/>
	<path class="st1" d="M329.2,230.5c0,63.5-51.7,115.2-115.2,115.2S98.8,294,98.8,230.5c0-9.1,7.4-16.5,16.5-16.5
		c9.1,0,16.5,7.4,16.5,16.5c0,45.4,36.9,82.3,82.3,82.3s82.3-36.9,82.3-82.3c0-43-33.1-78.3-75.1-81.9l4.5,4.5
		c6.4,6.4,6.4,16.9,0,23.3c-3.2,3.2-7.4,4.8-11.7,4.8s-8.4-1.6-11.6-4.8l-32.9-32.9c-6.4-6.4-6.4-16.9,0-23.3l32.9-32.9
		c6.4-6.4,16.9-6.4,23.3,0s6.4,16.8,0,23.3l-5.2,5.2C281,119,329.2,169.1,329.2,230.5z"/>
</g>
</svg>
