<?xml version="1.0" encoding="utf-8"?>
<!-- Generator: Adobe Illustrator 21.1.0, SVG Export Plug-In . SVG Version: 6.00 Build 0)  -->
<svg version="1.1"
	 id="Layer_1" xmlns:cc="http://creativecommons.org/ns#" xmlns:dc="http://purl.org/dc/elements/1.1/" xmlns:inkscape="http://www.inkscape.org/namespaces/inkscape" xmlns:rdf="http://www.w3.org/1999/02/22-rdf-syntax-ns#" xmlns:sodipodi="http://sodipodi.sourceforge.net/DTD/sodipodi-0.dtd" xmlns:svg="http://www.w3.org/2000/svg"
	 xmlns="http://www.w3.org/2000/svg" xmlns:xlink="http://www.w3.org/1999/xlink" x="0px" y="0px" viewBox="0 0 428 428"
	 style="enable-background:new 0 0 428 428;" xml:space="preserve">
<style type="text/css">
	.st0{fill:#2F383A;}
	.st1{fill:#000000;}
</style>
<g transform="translate(0,-952.36218)">
	<path class="st0" d="M250.7,1183.9c-2.6-5.3-8.8-8.7-14.6-7.9c-3.2,0.4-6.3,1.9-8.5,4.3l-76.1,76.1c-5.8,5.2-6.1,15.4-0.6,20.8
		c5.5,5.5,15.7,5.1,20.8-0.7l76.1-76.2C252,1196.1,253.3,1189.2,250.7,1183.9z M203.1,1131.5c-2.6-5.3-8.8-8.7-14.6-7.9
		c-3.2,0.4-6.2,1.9-8.5,4.3l-76.1,76.2c-5.8,5.1-6.1,15.3-0.6,20.8c5.5,5.5,15.7,5.1,20.8-0.7l76.1-76.1
		C204.4,1143.8,205.7,1136.9,203.1,1131.5z M332.8,952.4c-49.2,0-89.9,37.7-94.7,85.6h-54.3c-3.2,0.4-6.3,1.9-8.6,4.2L3.9,1213.5
		c-5.2,5.3-5.2,14.8,0,20.1l84.4,84.4l0.1,0.2c0.4,0.4,0.7,0.7,1.1,1l1.1,1.1c0.2,0.2,0.4,0.4,0.7,0.6l55.3,55.4
		c5.3,5.3,14.9,5.3,20.3,0l171.3-171.3c2.6-2.6,4.1-6.3,4.1-10v-52.8c47.9-4.9,85.6-45.6,85.6-94.7
		C428,995.2,385.2,952.4,332.8,952.4z M271,1099.9c5.4,0,9.5,4.1,9.5,9.6c0,5.4-4.1,9.5-9.5,9.5c-5.4,0-9.5-4.1-9.5-9.5
		C261.4,1104,265.5,1099.9,271,1099.9z M313.8,1189.1l-157,157l-45.9-45.9l-1.1-1.1l-1.1-1.1l-74.5-74.5l156.9-157h48.5
		c1.1,5.4,2.8,10.7,4.8,15.7c-7.1,6.9-11.5,16.5-11.5,27.1c0,20.8,17.2,38,38,38c20.9,0,38.1-17.2,38.1-38
		c0-20.9-17.2-38.1-38.1-38.1h-0.3c-0.6-1.5-1-3.2-1.5-4.8h44.6V1189.1z M342.3,1113.4v-61.1c0-7.5-6.8-14.3-14.3-14.3H267
		c4.6-32.3,32.1-57.1,65.9-57.1c37,0,66.6,29.7,66.6,66.7C399.5,1081.3,374.8,1108.9,342.3,1113.4z M236.1,1175.9
		c-3.2,0.4-6.3,1.9-8.5,4.3l-76.1,76.1c-5.8,5.2-6.1,15.4-0.6,20.8c5.5,5.5,15.7,5.1,20.8-0.7l76.1-76.2c4.2-4.1,5.5-11,2.9-16.4
		C248.1,1178.5,241.9,1175.2,236.1,1175.9z M203.1,1131.5c-2.6-5.3-8.8-8.7-14.6-7.9c-3.2,0.4-6.2,1.9-8.5,4.3l-76.1,76.2
		c-5.8,5.1-6.1,15.3-0.6,20.8c5.5,5.5,15.7,5.1,20.8-0.7l76.1-76.1C204.4,1143.8,205.7,1136.9,203.1,1131.5z"/>
	<path class="st1" d="M269.2,1066.6c0.5,1.6,0.9,3.2,1.5,4.8h0.3c20.9,0,38.1,17.2,38.1,38.1c0,20.8-17.2,38-38.1,38
		c-20.8,0-38-17.2-38-38c0-10.6,4.4-20.2,11.5-27.1c-2-5-3.7-10.3-4.8-15.7h-48.5l-156.9,157l74.5,74.5l1.1,1.1
		c0.3,0.3,0.7,0.7,1.1,1.1l45.9,45.9l157-157v-122.6H269.2z M103.2,1224.8c-5.5-5.5-5.2-15.6,0.6-20.8l76.1-76.2
		c2.2-2.3,5.3-3.9,8.5-4.3c5.9-0.8,12.1,2.6,14.6,7.9c2.6,5.4,1.3,12.3-2.9,16.5l-76.1,76.1C118.9,1229.9,108.7,1230.3,103.2,1224.8
		z M247.8,1200.3l-76.1,76.2c-5.1,5.8-15.3,6.2-20.8,0.7c-5.5-5.5-5.2-15.6,0.6-20.8l76.1-76.1c2.2-2.3,5.3-3.9,8.5-4.3
		c5.8-0.8,12,2.6,14.6,7.9C253.3,1189.2,252,1196.1,247.8,1200.3z"/>
</g>
</svg>
