<?xml version="1.0" encoding="utf-8"?>
<!-- Generator: Adobe Illustrator 21.1.0, SVG Export Plug-In . SVG Version: 6.00 Build 0)  -->
<svg version="1.1" id="Layer_1" xmlns="http://www.w3.org/2000/svg" xmlns:xlink="http://www.w3.org/1999/xlink" x="0px" y="0px"
	 viewBox="0 0 428 428" style="enable-background:new 0 0 428 428;" xml:space="preserve">
<style type="text/css">
	.st0{fill:#EDF0F4;}
	.st1{fill:#000000;}
</style>
<title>BS-Question-Solid-Rounded-Circle</title>
<rect x="84.8" y="70.4" class="st0" width="217.9" height="273.3"/>
<path class="st1" d="M214,0C95.6,0,0,95.6,0,214s95.6,214,214,214s214-95.6,214-214S332.4,0,214,0z M214,332.9
	c-14.3,0-25.7-11.4-25.7-25.7c0-14.3,11.4-25.7,25.7-25.7l0,0c14.3,0,25.7,11.4,25.7,25.7C239.7,321.5,228.3,332.9,214,332.9z
	 M272,188.3c-2.9,3.8-6.2,7.6-9.5,10.9c-2.4,2.4-5.2,4.8-8.6,8.6c-3.8,3.3-6.7,6.2-9,9c-2.4,2.4-4.8,4.8-6.2,6.7
	c-4.3,5.7-6.2,13.3-5.7,20.4v14.7h-37.1v-20c-0.5-6.7,0.5-13.3,3.3-20c3.8-6.2,8.1-11.9,13.8-17.1l23.8-23.8
	c5.2-5.7,7.6-12.8,7.6-20.4c0-7.6-2.9-14.7-8.1-20c-5.2-5.2-12.8-8.1-20.4-8.1c-7.6-0.5-15.2,2.4-20.9,7.6c-5.7,5.2-9,12.8-9.5,20.4
	h-39.9c1.4-17.6,9.5-34.2,22.8-45.7c13.8-11.4,30.9-17.1,49-16.6c17.1-1,34.2,4.8,47.6,15.7c12.4,10.5,18.5,25.7,18.5,44.7
	C283,167.4,279.2,179.3,272,188.3z"/>
</svg>
